<svg width="152" height="1031" viewBox="0 0 152 1031" fill="none" xmlns="http://www.w3.org/2000/svg">
<path d="M6.55908 17.6272C6.55908 17.6272 10.5524 20.3215 9.80664 23.2565C10.3019 22.8467 10.6261 22.2664 10.7151 21.6298C10.8041 20.9932 10.6517 20.3463 10.2878 19.8163C9.06094 18.2767 11.2502 21.5485 13.7761 17.6512C11.3704 13.754 9.27746 17.1941 10.2878 15.4861C10.6517 14.9562 10.8041 14.3093 10.7151 13.6726C10.6261 13.036 10.3019 12.4558 9.80664 12.046C9.75711 13.1696 9.43577 14.2644 8.87012 15.2365C8.30446 16.2086 7.51148 17.0289 6.55908 17.6272Z" fill="#C09068"/>
<path d="M9.85474 19.3352C10.1626 20.054 10.646 20.6839 11.2607 21.1672C11.8755 21.6504 12.6019 21.9714 13.373 22.1007C14.1442 22.2301 14.9356 22.1636 15.6743 21.9073C16.4131 21.6511 17.0756 21.2133 17.6011 20.6343C21.4742 17.0739 22.6771 17.4828 22.6771 17.4828C22.6771 17.4828 20.8728 17.4828 17.6492 14.4516C12.9821 9.97706 9.9751 16.0394 9.9751 16.0394L9.85474 19.3352Z" fill="#C09068"/>
<path d="M3.14294 20.3456C4.56457 20.3456 5.71704 19.1931 5.71704 17.7715C5.71704 16.3499 4.56457 15.1974 3.14294 15.1974C1.72132 15.1974 0.568848 16.3499 0.568848 17.7715C0.568848 19.1931 1.72132 20.3456 3.14294 20.3456Z" fill="#C09068"/>
<path d="M110.051 42.0931C109.846 41.8546 109.653 41.6057 109.474 41.3473C108.939 40.5967 108.487 39.79 108.127 38.9416C107.409 37.2094 106.971 35.3743 106.828 33.5048C106.722 32.5615 106.722 31.6093 106.828 30.666C106.828 30.4255 106.828 30.1849 106.972 29.9684C107.116 29.7519 106.972 29.5354 107.141 29.2948C107.309 29.0542 107.429 28.4047 107.573 27.9476C108.956 24.3737 111.497 21.3667 114.79 19.4074C116.396 18.4296 118.128 17.6768 119.939 17.1701C121.722 16.6621 123.551 16.3317 125.4 16.1838C127.234 16.051 129.075 16.051 130.909 16.1838C131.823 16.1838 132.737 16.3281 133.627 16.4484H135.6V17.3866C135.6 17.531 135.6 17.6272 135.6 17.7475V18.4211C135.6 19.3112 135.768 20.2253 135.864 21.1395C135.997 22.9734 135.997 24.8146 135.864 26.6485C135.716 28.4969 135.386 30.3261 134.878 32.1094C134.371 33.9198 133.618 35.652 132.641 37.2576C130.681 40.5509 127.674 43.0921 124.101 44.4747C123.668 44.6431 123.21 44.7875 122.753 44.9077L122.08 45.0761L121.382 45.2205C120.439 45.3267 119.487 45.3267 118.543 45.2205C116.674 45.0777 114.839 44.6392 113.107 43.9214C112.258 43.561 111.452 43.1092 110.701 42.5742L110.051 42.0931ZM133.747 18.397H133.314C132.448 18.2527 131.582 18.1805 130.716 18.0843C128.972 17.9351 127.221 17.8949 125.472 17.964C121.969 18.0431 118.534 18.9411 115.44 20.5862C112.345 22.3038 109.921 25.0164 108.56 28.2844C108.392 28.6934 108.247 29.1023 108.103 29.5354C107.958 29.9684 107.983 29.9443 107.91 30.1849C107.838 30.4255 107.91 30.5939 107.766 30.8104C107.618 31.6761 107.569 32.5559 107.622 33.4326C107.726 35.2231 108.116 36.9854 108.776 38.6529C109.101 39.4994 109.521 40.3064 110.027 41.0586L110.532 41.7082L111.182 42.2134C111.934 42.7197 112.741 43.1393 113.588 43.4643C115.255 44.1248 117.018 44.5146 118.808 44.6191C119.685 44.671 120.565 44.6226 121.43 44.4747L122.056 44.3304L122.705 44.1379L123.956 43.6808C127.224 42.3203 129.937 39.8958 131.654 36.8006C133.3 33.7071 134.198 30.2716 134.277 26.7688C134.346 25.0199 134.305 23.2683 134.156 21.5244C134.156 20.6584 133.988 19.7923 133.843 18.9263L133.747 18.397ZM116.908 35.2369C116.539 33.9696 116.005 32.7564 115.32 31.6283C114.857 30.872 114.343 30.1486 113.78 29.4632L113.347 28.9339L112.914 28.4528L112.457 27.9957L111.976 27.5386C110.64 26.3695 109.189 25.3379 107.646 24.4593C106.098 23.5492 104.491 22.7455 102.834 22.0537C101.184 21.3556 99.4975 20.7453 97.7824 20.2253C90.9018 18.2061 83.6791 17.6247 76.5642 18.5173C74.808 18.7338 73.0279 19.0225 71.2959 19.4074C69.5638 19.7923 67.8318 20.2253 66.1237 20.7546C62.7771 21.7745 59.5507 23.1538 56.5009 24.8683C54.9799 25.7338 53.5173 26.6981 52.1225 27.7552C50.7374 28.8093 49.4347 29.9674 48.2254 31.2193C45.8155 33.6818 43.8823 36.5692 42.5239 39.7355C41.1834 42.8337 40.598 46.206 40.8159 49.5748C40.9144 51.2449 41.3394 52.8796 42.0669 54.3862C42.7016 55.8057 43.8675 56.9199 45.3144 57.4895C46.0205 57.7206 46.7733 57.7702 47.5036 57.6339C48.2521 57.4885 48.9689 57.2116 49.6207 56.8159C50.9431 55.9938 52.1015 54.9334 53.0368 53.6885C54.8641 51.0783 56.1409 48.1235 56.7896 45.004C57.4919 42.0134 57.8789 38.9576 57.9443 35.8864C58.0237 32.9017 57.8466 29.9157 57.415 26.9613C56.654 21.3378 54.8943 15.8956 52.2188 10.8912C50.9834 8.55427 49.356 6.44675 47.4074 4.66049C46.4628 3.82667 45.411 3.1228 44.28 2.56754C43.1797 2.0345 42.0028 1.67732 40.7918 1.50903C38.45 1.21326 36.0725 1.58868 33.9357 2.59159C31.9042 3.5045 30.0913 4.84152 28.6191 6.51288C27.9282 7.29758 27.3455 8.17143 26.8869 9.11103C26.4551 10.0243 26.1323 10.9851 25.9248 11.9738C25.5604 13.8649 25.5604 15.8082 25.9248 17.6994C26.2008 19.4146 26.8316 21.0533 27.7771 22.5107C28.5266 23.705 29.6095 24.6536 30.892 25.2393C32.1746 25.8251 33.6007 26.0222 34.9941 25.8065C36.2085 25.6459 37.383 25.2626 38.4583 24.6759C39.3383 24.1977 40.0958 23.5226 40.6716 22.7032C41.1555 21.979 41.4757 21.1581 41.6098 20.2975C41.8736 19.1671 41.7197 17.9795 41.1767 16.9536C41.0448 16.7232 40.8539 16.5322 40.6235 16.4003H40.455C40.3897 16.3816 40.3321 16.3422 40.2912 16.2879C40.2503 16.2336 40.2282 16.1675 40.2282 16.0996C40.2282 16.0316 40.2503 15.9655 40.2912 15.9112C40.3321 15.857 40.3897 15.8175 40.455 15.7989H40.864C41.2772 15.8855 41.6546 16.0952 41.9465 16.4003C42.4396 16.962 42.8116 17.6193 43.0393 18.3313C43.2669 19.0432 43.3455 19.7945 43.2697 20.5381C43.1986 21.634 42.8687 22.6975 42.3073 23.6414C41.6189 24.7749 40.6495 25.7113 39.4928 26.3598C38.2027 27.0715 36.7914 27.5365 35.331 27.7311C34.5321 27.8285 33.7242 27.8285 32.9253 27.7311C31.1353 27.5274 29.4534 26.7705 28.1138 25.566C27.3966 24.9269 26.773 24.1899 26.2614 23.3768C25.2161 21.6703 24.5516 19.7584 24.3129 17.7715C24.0282 15.6588 24.1507 13.5112 24.6738 11.4445C24.9502 10.3507 25.3539 9.29296 25.8767 8.29309C26.4187 7.26569 27.0895 6.31174 27.8732 5.45438C29.4978 3.6757 31.4714 2.25078 33.671 1.26847C34.8248 0.760794 36.0368 0.3972 37.2795 0.185902C39.8956 -0.266659 42.5879 0.111933 44.9777 1.26847C46.1936 1.86342 47.3259 2.61563 48.3457 3.50576C50.4132 5.36138 52.1463 7.55847 53.4697 10.0011C56.2953 15.1144 58.1702 20.6977 59.0029 26.4801C59.4573 29.5132 59.6505 32.5797 59.5803 35.6458C59.5157 38.8181 59.096 41.9732 58.3293 45.0521C57.9336 46.6314 57.4106 48.1761 56.7656 49.671C56.1127 51.2093 55.2636 52.6567 54.2396 53.9772C53.7087 54.6441 53.121 55.2639 52.4834 55.8296C51.8429 56.4094 51.1412 56.9176 50.3906 57.3452C49.6469 57.7853 48.8331 58.0945 47.9848 58.2593C47.0749 58.4172 46.1398 58.3427 45.2663 58.0428C44.407 57.728 43.6328 57.2173 43.0051 56.5513C42.3873 55.9063 41.8757 55.1674 41.4895 54.3621C40.7532 52.7736 40.3285 51.0586 40.2385 49.3102C40.1348 47.5708 40.2479 45.8253 40.5753 44.1139C40.5753 43.6808 40.7437 43.2719 40.8399 42.8388C40.9362 42.4058 41.0564 42.0209 41.1767 41.5879C41.4173 40.7459 41.7541 39.928 42.0669 39.1822C43.3948 36.0162 45.2583 33.1028 47.5758 30.5698C48.7998 29.2711 50.1187 28.0649 51.5212 26.9613C52.952 25.8524 54.4548 24.8398 56.0197 23.9301C57.5779 22.9967 59.1839 22.1455 60.8311 21.3801C62.467 20.6343 64.1509 19.9607 65.883 19.3593C67.6151 18.7579 69.3473 18.2527 71.1275 17.7956C72.9077 17.3385 74.688 16.9776 76.5163 16.6649C80.1824 16.0821 83.9005 15.8966 87.6064 16.1116C91.3495 16.3207 95.0552 16.9666 98.6484 18.0361C102.283 19.0788 105.744 20.6514 108.921 22.7032C110.514 23.7442 111.99 24.9541 113.323 26.3117L113.804 26.841L114.285 27.3943L114.742 27.9717L115.151 28.525C115.695 29.2923 116.185 30.0961 116.619 30.9307C117.179 32.0113 117.622 33.1483 117.942 34.3227C119.116 34.6425 120.253 35.086 121.334 35.6458C122.169 36.0793 122.972 36.5696 123.74 37.1133L124.293 37.5223L124.87 37.9793L125.424 38.4605L125.953 38.9416C127.311 40.2751 128.52 41.7511 129.561 43.344C131.613 46.5203 133.186 49.9816 134.228 53.6164C135.298 57.2095 135.944 60.9154 136.153 64.6585C136.368 68.3644 136.182 72.0826 135.6 75.7487C135.287 77.577 134.95 79.3572 134.469 81.1375C133.988 82.9177 133.507 84.6498 132.905 86.3819C132.304 88.114 131.63 89.7739 130.885 91.4338C130.119 93.081 129.268 94.687 128.335 96.2452C127.414 97.7862 126.394 99.2648 125.279 100.672C124.176 102.074 122.97 103.393 121.671 104.617C119.11 107.054 116.137 109.017 112.89 110.415C112.072 110.728 111.278 111.064 110.484 111.305L109.233 111.642L107.958 111.906C106.247 112.234 104.502 112.347 102.762 112.243C101.014 112.153 99.2988 111.728 97.7103 110.992C96.9048 110.606 96.1657 110.095 95.521 109.477C94.8549 108.849 94.3444 108.075 94.0295 107.215C93.7216 106.344 93.6389 105.409 93.789 104.497C93.9534 103.648 94.2627 102.835 94.7032 102.091C95.1308 101.34 95.6389 100.639 96.2187 99.9981C96.7844 99.3605 97.4041 98.7729 98.071 98.2419C99.321 97.1644 100.703 96.2509 102.185 95.5235C103.68 94.8787 105.224 94.3558 106.804 93.9598C109.883 93.1931 113.038 92.7735 116.21 92.7089C119.276 92.6386 122.343 92.8318 125.376 93.2862C131.158 94.1189 136.741 95.9937 141.854 98.8193C144.297 100.143 146.494 101.876 148.35 103.943C149.24 104.963 149.992 106.095 150.587 107.311C151.744 109.701 152.122 112.393 151.67 115.01C151.458 116.252 151.095 117.464 150.587 118.618C149.602 120.809 148.177 122.774 146.401 124.392C145.544 125.175 144.59 125.846 143.563 126.389C142.563 126.911 141.505 127.315 140.411 127.591C138.344 128.115 136.197 128.237 134.084 127.952C132.097 127.714 130.185 127.049 128.479 126.004C127.666 125.492 126.929 124.868 126.29 124.151C125.085 122.812 124.328 121.13 124.125 119.34C124.027 118.541 124.027 117.733 124.125 116.934C124.319 115.474 124.784 114.062 125.496 112.772C126.178 111.601 127.157 110.63 128.335 109.958C129.278 109.396 130.342 109.067 131.438 108.995C132.182 108.918 132.933 108.996 133.645 109.224C134.357 109.451 135.015 109.824 135.576 110.319C135.881 110.61 136.091 110.988 136.177 111.401C136.191 111.513 136.191 111.626 136.177 111.738C136.159 111.803 136.119 111.861 136.065 111.902C136.011 111.943 135.944 111.965 135.876 111.965C135.808 111.965 135.742 111.943 135.688 111.902C135.634 111.861 135.594 111.803 135.576 111.738C135.582 111.682 135.582 111.625 135.576 111.569C135.444 111.339 135.253 111.148 135.022 111.016C133.997 110.473 132.809 110.319 131.678 110.583C130.818 110.717 129.997 111.037 129.273 111.521C128.453 112.097 127.778 112.855 127.3 113.735C126.714 114.81 126.33 115.984 126.169 117.199C125.954 118.592 126.151 120.018 126.737 121.301C127.322 122.583 128.271 123.666 129.465 124.416C130.923 125.361 132.561 125.992 134.277 126.268C136.168 126.633 138.111 126.633 140.002 126.268C140.991 126.061 141.952 125.738 142.865 125.306C143.804 124.847 144.678 124.265 145.463 123.574C147.16 122.109 148.522 120.295 149.456 118.257C150.459 116.121 150.835 113.743 150.539 111.401C150.371 110.19 150.013 109.013 149.48 107.913C148.925 106.782 148.221 105.73 147.388 104.785C145.601 102.837 143.494 101.209 141.157 99.974C136.145 97.2958 130.695 95.536 125.063 94.7778C122.109 94.3462 119.122 94.1691 116.138 94.2485C113.066 94.3137 110.011 94.7007 107.02 95.4032C103.968 96.0765 101.081 97.3524 98.5282 99.1561C97.2833 100.091 96.2229 101.25 95.4008 102.572C95.0047 103.224 94.7278 103.941 94.583 104.689C94.4466 105.419 94.4962 106.172 94.7272 106.878C95.2969 108.325 96.411 109.491 97.8305 110.126C99.3371 110.854 100.972 111.279 102.642 111.377C106.011 111.595 109.383 111.009 112.481 109.669C115.641 108.301 118.52 106.36 120.973 103.943C122.225 102.734 123.383 101.431 124.437 100.046C125.494 98.6514 126.459 97.1888 127.324 95.6679C129.039 92.6182 130.418 89.3918 131.438 86.0451C131.967 84.3611 132.4 82.629 132.785 80.8729C133.17 79.1167 133.459 77.3605 133.675 75.6044C134.568 68.4894 133.986 61.2668 131.967 54.3862C131.447 52.6711 130.837 50.9848 130.139 49.3342C129.447 47.6777 128.643 46.0702 127.733 44.5228C126.855 42.9798 125.823 41.529 124.654 40.1926L124.197 39.7114L123.74 39.2544L123.259 38.8213L122.729 38.3883C122.044 37.8258 121.32 37.3114 120.564 36.8487C119.449 36.1317 118.244 35.5655 116.98 35.1647L116.908 35.2369Z" fill="#C09068"/>
<path d="M98.6724 19.672H97.8547C97.0547 19.5937 96.2489 19.5937 95.4489 19.672C94.2477 19.7475 93.0558 19.9327 91.8884 20.2253C90.3599 20.6039 88.8762 21.1443 87.4621 21.8371C85.782 22.6482 84.2199 23.6842 82.819 24.9164C81.2519 26.2766 79.9965 27.9587 79.1384 29.8481C78.2645 31.8906 77.8456 34.0988 77.9113 36.3194C77.9319 38.6143 78.5364 40.8661 79.6677 42.8629C80.2479 43.8381 81.007 44.6951 81.905 45.3889C82.7932 46.0734 83.819 46.5576 84.9121 46.8082C87.0673 47.2105 89.2932 46.9679 91.3111 46.1106C92.2622 45.7567 93.1423 45.2353 93.9094 44.5709C94.6359 43.9183 95.1826 43.0899 95.497 42.1652C95.7963 41.334 95.9032 40.4457 95.8098 39.5671C95.7243 38.7297 95.4878 37.9146 95.112 37.1614C94.4891 35.8287 93.4276 34.7502 92.1049 34.1062C91.11 33.6518 89.9899 33.55 88.9294 33.8175C88.2202 34.0047 87.5461 34.3053 86.9328 34.7076L86.4277 35.0444L86.2592 35.1647C86.1909 35.2068 86.1098 35.2231 86.0305 35.2107C85.9512 35.1983 85.8791 35.1581 85.8269 35.0971C85.7746 35.0362 85.7459 34.9587 85.7458 34.8784C85.7457 34.7982 85.7741 34.7205 85.8261 34.6595L85.9707 34.4911L86.4517 34.034C87.0886 33.4608 87.8326 33.0193 88.6408 32.7349C89.2357 32.5249 89.8624 32.4191 90.4932 32.4222C91.2458 32.4298 91.9896 32.5851 92.6823 32.8793C93.4515 33.2139 94.1527 33.6868 94.7512 34.2746C95.4015 34.9175 95.9384 35.6658 96.3391 36.4878C96.7837 37.3828 97.0532 38.3545 97.133 39.3506C97.237 40.44 97.072 41.5384 96.6525 42.5492C96.2331 43.5601 95.572 44.4525 94.7272 45.1483C93.8384 45.8614 92.8277 46.4075 91.7441 46.7601C90.6615 47.1304 89.5393 47.3727 88.4003 47.4818C87.223 47.5918 86.0354 47.5023 84.8879 47.2172C83.7231 46.9147 82.6338 46.3741 81.6884 45.6294C80.7237 44.8816 79.9077 43.9595 79.2827 42.911C78.1085 40.841 77.4793 38.5067 77.4543 36.127C77.3857 33.8235 77.821 31.5329 78.7295 29.4151C79.6149 27.4672 80.8925 25.7229 82.4824 24.2909C83.9309 23.0011 85.5498 21.9164 87.2937 21.0673C88.7409 20.3434 90.2558 19.7632 91.8164 19.3352C93.0288 19.0058 94.2688 18.7883 95.521 18.6857C96.3214 18.6171 97.1263 18.6171 97.9267 18.6857H98.7688C98.8698 18.7193 98.956 18.7872 99.0123 18.8775C99.0686 18.9679 99.0916 19.075 99.0773 19.1806C99.0631 19.2861 99.0124 19.3833 98.9342 19.4554C98.8559 19.5276 98.7547 19.5702 98.6484 19.5758L98.6724 19.672Z" fill="#C09068"/>
<path d="M132.472 53.472V53.6885C132.472 53.8329 132.472 54.0494 132.472 54.2899C132.551 55.0899 132.551 55.8956 132.472 56.6956C132.397 57.8968 132.212 59.0886 131.919 60.2561C131.541 61.7847 131.001 63.2686 130.307 64.6825C129.496 66.3627 128.46 67.9247 127.228 69.3255C125.868 70.8927 124.186 72.1481 122.296 73.0062C120.254 73.8802 118.046 74.2988 115.825 74.2331C113.53 74.2126 111.278 73.6082 109.282 72.477C108.306 71.8967 107.45 71.1377 106.756 70.2397C106.071 69.3515 105.587 68.3256 105.336 67.2326C104.934 65.0773 105.177 62.8513 106.034 60.8334C106.388 59.8823 106.909 59.0024 107.574 58.2353C108.226 57.5087 109.055 56.962 109.979 56.6475C110.81 56.3483 111.699 56.2413 112.577 56.3348C113.415 56.4203 114.23 56.6566 114.983 57.0324C116.289 57.6687 117.341 58.7287 117.966 60.0395C118.421 61.0345 118.522 62.1545 118.255 63.2151C118.067 63.9241 117.767 64.5983 117.365 65.2118L117.028 65.717L116.908 65.8854C116.866 65.9537 116.849 66.0348 116.862 66.114C116.874 66.1933 116.914 66.2656 116.975 66.3178C117.036 66.37 117.114 66.3988 117.194 66.3989C117.274 66.399 117.352 66.3704 117.413 66.3184L117.581 66.1741L118.038 65.6929C118.612 65.056 119.053 64.312 119.337 63.5037C119.547 62.9087 119.653 62.2822 119.65 61.6513C119.642 60.8987 119.487 60.1549 119.193 59.4622C118.858 58.693 118.386 57.9918 117.798 57.3933C117.155 56.7433 116.406 56.2066 115.585 55.8055C114.69 55.3609 113.718 55.0915 112.722 55.0116C111.632 54.9076 110.534 55.0726 109.523 55.4921C108.512 55.9115 107.62 56.5726 106.924 57.4173C106.211 58.3061 105.665 59.3168 105.312 60.4004C104.942 61.483 104.7 62.6053 104.591 63.7443C104.481 64.9216 104.57 66.1091 104.855 67.2566C105.158 68.4214 105.698 69.5108 106.443 70.4562C107.191 71.4209 108.113 72.2369 109.161 72.8619C111.231 74.0361 113.566 74.6652 115.945 74.6902C118.249 74.7588 120.539 74.3237 122.657 73.4152C124.615 72.5249 126.368 71.239 127.805 69.6383C129.095 68.1895 130.18 66.5706 131.029 64.8269C131.753 63.3795 132.333 61.8647 132.761 60.3042C133.091 59.0918 133.308 57.8516 133.411 56.5994C133.479 55.799 133.479 54.9941 133.411 54.1937C133.411 53.905 133.411 53.6885 133.411 53.5682V53.3517C133.377 53.2507 133.309 53.1646 133.219 53.1083C133.129 53.0519 133.021 53.0289 132.916 53.0432C132.81 53.0574 132.713 53.1081 132.641 53.1864C132.569 53.2647 132.526 53.3657 132.52 53.472H132.472Z" fill="#C09068"/>
<path d="M140.483 11.6611L139.569 11.3002C137.376 10.4796 135.114 9.85958 132.809 9.44782C131.664 9.24954 130.506 9.12897 129.345 9.08696H125.857C123.539 9.25652 121.251 9.71722 119.049 10.4582C116.879 11.1852 114.863 12.3111 113.107 13.7781C112.213 14.4832 111.406 15.2906 110.701 16.1838C110.372 16.6356 110.074 17.1099 109.811 17.6031C109.69 17.8437 109.546 18.1083 109.45 18.3489C109.348 18.584 109.259 18.825 109.185 19.0706L108.8 20.2494L107.982 19.3593C107.622 18.9744 107.189 18.5654 106.78 18.2045C106.371 17.8437 105.914 17.4588 105.456 17.0979C103.642 15.7836 101.7 14.6552 99.6589 13.73C98.6162 13.2262 97.5483 12.7765 96.4593 12.3828C95.3767 11.9738 94.2701 11.637 93.1395 11.3483C92.5862 11.204 92.0087 11.0596 91.4554 10.9393L90.6135 10.771L89.7475 10.6266C88.5928 10.4342 87.3418 10.3139 86.2833 10.2176C85.7059 10.2176 85.1286 10.2176 84.5512 10.2176H81.0869L79.3549 10.3379C78.7776 10.3379 78.2001 10.4823 77.5987 10.5304H76.7326L74.1347 10.9634L72.4025 11.3002L70.6943 11.6611L68.9865 12.07L67.2783 12.5031L65.5944 12.9842L63.9104 13.5134L62.2504 14.0908C61.1679 14.4998 60.0613 14.9328 59.0268 15.438C57.9691 15.9157 56.948 16.4705 55.9716 17.0979C55.9059 17.1216 55.8341 17.1225 55.7678 17.1007C55.7014 17.0788 55.6443 17.0353 55.6055 16.9771C55.5668 16.919 55.5486 16.8496 55.5539 16.7799C55.5592 16.7102 55.5877 16.6443 55.6348 16.5927C56.6314 15.9221 57.6768 15.327 58.7623 14.8125C59.8208 14.2833 60.9274 13.8262 62.034 13.3932L63.6938 12.7677L65.3779 12.1903L67.0859 11.6851L68.7939 11.228L70.5261 10.795L72.2581 10.4101L73.9902 10.0492L75.7464 9.7365L76.6125 9.59216H77.5025C78.0799 9.59216 78.6571 9.42376 79.2585 9.37564L81.039 9.20725H84.5993C85.2007 9.20725 85.8021 9.20725 86.3795 9.20725C87.5583 9.20725 88.7852 9.3997 89.9399 9.59216L90.83 9.7365L91.7202 9.9049C92.2975 9.9049 92.8989 10.1695 93.4763 10.2898C94.631 10.5785 95.8819 10.9153 96.9163 11.3243C98.0453 11.7162 99.1534 12.1659 100.236 12.6715C102.393 13.615 104.449 14.7757 106.371 16.1356C106.852 16.4965 107.333 16.8814 107.79 17.2663C108.26 17.6684 108.71 18.0939 109.137 18.5413L107.91 18.83C108.01 18.5097 108.13 18.1962 108.271 17.8918C108.391 17.6031 108.536 17.3144 108.704 17.0498C109.005 16.5059 109.342 15.9835 109.715 15.4861C110.457 14.4917 111.313 13.5875 112.265 12.7917C114.14 11.2848 116.277 10.1351 118.568 9.39971C120.906 8.64532 123.331 8.1926 125.785 8.05252H129.393C130.604 8.11518 131.81 8.25985 133.002 8.48554C135.359 8.94096 137.67 9.60928 139.906 10.4823L141.229 11.0115L141.758 12.3346C142.631 14.5711 143.299 16.882 143.755 19.239C143.98 20.4307 144.125 21.6363 144.188 22.8475C144.188 23.1603 144.188 23.4489 144.188 23.7617C144.188 24.0744 144.188 24.0504 144.188 24.2188V24.6759C144.188 25.2773 144.188 25.8787 144.188 26.4801C144.048 28.9333 143.595 31.3586 142.841 33.6972C142.09 36.0375 140.907 38.2163 139.353 40.1204C138.557 41.0726 137.653 41.9285 136.658 42.6704C136.161 43.0429 135.638 43.3805 135.094 43.6808L134.253 44.1139C133.948 44.2548 133.635 44.3754 133.314 44.4747L133.603 43.2478C134.05 43.6752 134.476 44.1249 134.878 44.595C135.263 45.0521 135.648 45.5332 136.009 46.0143C137.447 47.942 138.68 50.014 139.689 52.197C140.195 53.2798 140.645 54.3879 141.037 55.5168C141.446 56.6475 141.782 57.8022 142.071 58.957C142.191 59.5343 142.36 60.1117 142.456 60.7131L142.624 61.6032L142.769 62.4934C142.961 63.6721 143.057 64.899 143.154 66.0538C143.154 66.6552 143.154 67.2566 143.154 67.834C143.154 68.4114 143.154 69.0368 143.154 69.6142C143.154 70.1916 143.154 70.793 143.154 71.3944C143.154 71.9958 143.154 72.5973 142.985 73.1746C142.817 73.752 142.841 74.3534 142.769 74.9308V75.3638C142.769 75.5322 142.769 75.6525 142.769 75.8209L142.624 76.6869C142.624 77.2643 142.432 77.8657 142.311 78.4431L141.951 80.1752C141.951 80.7526 141.686 81.3299 141.566 81.9073C141.446 82.4846 141.301 83.062 141.133 83.6394C140.964 84.2168 140.844 84.7941 140.676 85.3474L140.17 87.0555L139.593 88.7395L138.968 90.3994C138.535 91.506 138.078 92.5886 137.548 93.6711C137.033 94.7483 136.438 95.7856 135.768 96.7745C135.717 96.8216 135.651 96.8501 135.581 96.8554C135.511 96.8607 135.442 96.8426 135.384 96.8038C135.326 96.765 135.282 96.7079 135.26 96.6416C135.238 96.5752 135.239 96.5034 135.263 96.4377C135.89 95.4614 136.445 94.4403 136.923 93.3825C137.428 92.324 137.861 91.2414 138.27 90.1588L138.847 88.4989L139.377 86.839L139.858 85.155C140.026 84.6017 140.147 84.0243 140.291 83.4469C140.435 82.8696 140.555 82.3163 140.676 81.7389C140.796 81.1615 140.94 80.6082 141.037 80.0308L141.373 78.2988C141.373 77.7214 141.566 77.144 141.662 76.5667L141.927 74.8346C141.927 74.2572 142.095 73.6558 142.119 73.0784C142.143 72.501 142.119 71.9237 142.239 71.3463C142.36 70.7689 142.239 70.1916 142.239 69.6142C142.239 69.0368 142.239 68.4595 142.239 67.8821C142.239 67.3047 142.239 66.7274 142.239 66.15C142.239 64.9953 142.023 63.7443 141.83 62.6858L141.686 61.8198L141.518 60.9778C141.518 60.4004 141.253 59.8471 141.109 59.2938C140.796 58.1872 140.483 57.0565 140.074 55.9739C139.681 54.885 139.231 53.817 138.727 52.7744C137.724 50.6891 136.506 48.7138 135.094 46.8804C134.734 46.4233 134.373 45.9903 133.988 45.5573C133.603 45.1242 133.218 44.6912 132.833 44.3544L131.943 43.5365L133.122 43.1516L133.843 42.8869L134.589 42.5261C135.083 42.2627 135.557 41.9653 136.009 41.636C136.902 40.9309 137.709 40.1235 138.414 39.2303C139.856 37.3666 140.926 35.2432 141.566 32.9755C142.307 30.7727 142.768 28.4853 142.937 26.1674C142.937 25.59 142.937 25.0126 142.937 24.4112V23.9782C142.937 23.8579 142.937 23.6895 142.937 23.5452C142.937 23.4008 142.937 22.9678 142.937 22.6791C142.895 21.5176 142.774 20.3602 142.576 19.2149C142.164 16.9102 141.544 14.6477 140.724 12.4549L140.483 11.6611Z" fill="#C09068"/>
<path d="M134.373 17.7475C133.787 17.5969 133.193 17.4844 132.593 17.4107H131.727C131.666 17.4107 131.608 17.3866 131.565 17.3437C131.522 17.3009 131.498 17.2427 131.498 17.1821C131.498 17.1215 131.522 17.0634 131.565 17.0205C131.608 16.9777 131.666 16.9536 131.727 16.9536H132.593C133.322 17.0192 134.046 17.1398 134.758 17.3144C134.932 18.026 135.053 18.7498 135.119 19.4796C135.119 19.7682 135.119 19.9848 135.119 20.1291V20.3456C135.119 20.4062 135.095 20.4644 135.052 20.5072C135.009 20.5501 134.951 20.5742 134.89 20.5742C134.829 20.5742 134.771 20.5501 134.728 20.5072C134.686 20.4644 134.662 20.4062 134.662 20.3456V20.1291C134.662 19.9848 134.662 19.7682 134.662 19.4796C134.602 18.8967 134.505 18.3182 134.373 17.7475Z" fill="#C09068"/>
<path d="M127.661 24.4834C126.691 24.6618 125.751 24.9777 124.87 25.4216C123.923 25.9104 123.1 26.61 122.465 27.4665C122.225 27.7655 122.031 28.0977 121.887 28.4528C122.005 28.0853 122.175 27.7368 122.393 27.4183C123.001 26.488 123.826 25.72 124.798 25.181C125.884 24.5734 127.062 24.1507 128.286 23.9301C128.066 25.1542 127.643 26.333 127.036 27.4183C126.497 28.3903 125.729 29.216 124.798 29.824C124.48 30.0421 124.132 30.2123 123.764 30.3292C124.119 30.1857 124.451 29.9912 124.75 29.7519C125.607 29.1168 126.306 28.2938 126.795 27.3462C127.221 26.4389 127.513 25.4746 127.661 24.4834Z" fill="#C09068"/>
<path d="M64.2954 27.4183L64.7043 27.2259L65.8591 26.6966C66.3643 26.4801 66.9658 26.2155 67.6875 25.9509C68.4092 25.6863 69.2029 25.3976 70.093 25.1089C70.9831 24.8202 71.9695 24.5315 73.028 24.2909C74.0865 24.0504 75.1931 23.7857 76.3479 23.5933L78.128 23.3287C78.7294 23.3287 79.355 23.1843 79.9564 23.1122L81.8327 22.9919C82.4582 22.9919 83.0838 22.9919 83.7334 22.9919H87.5102C88.7299 23.1013 89.9425 23.278 91.1427 23.5211C91.72 23.5211 92.2975 23.7857 92.8508 23.906C93.4041 24.0263 93.9333 24.2188 94.4626 24.3631C95.4373 24.6673 96.3931 25.0288 97.3253 25.4457C98.2154 25.8065 98.9611 26.2396 99.7309 26.5764L101.415 27.6108L102.81 28.6212L101.271 27.8514L99.4904 27.0575L98.3598 26.6245L97.1088 26.1914C96.6758 26.0471 96.2188 25.8787 95.7376 25.7584C95.2565 25.6381 94.7753 25.4697 94.246 25.3495C93.2116 25.1089 92.129 24.8924 90.9984 24.6999C89.8677 24.5075 88.5928 24.4112 87.4862 24.315H83.8295C83.2281 24.315 82.6026 24.315 82.0012 24.315H80.1728C78.97 24.315 77.7671 24.5075 76.6364 24.6759L73.3408 25.181L70.4057 25.7584C68.6015 26.1433 67.0859 26.5282 66.0274 26.8169L64.8005 27.1537L64.2954 27.4183Z" fill="#C09068"/>
<path d="M124.726 87.8493L124.919 87.4404C125.039 87.1758 125.231 86.7909 125.448 86.2857C125.664 85.7805 125.929 85.179 126.194 84.4573C126.458 83.7356 126.747 82.9417 127.036 82.0516C127.324 81.1615 127.613 80.1752 127.853 79.1167C128.094 78.0582 128.359 76.9516 128.551 75.7968C128.551 75.2195 128.744 74.618 128.816 74.0166C128.888 73.4152 128.96 72.7897 129.032 72.1883C129.104 71.5869 129.032 70.9373 129.153 70.3119C129.273 69.6864 129.153 69.0609 129.153 68.4114C129.153 67.7618 129.153 67.1363 129.153 66.5109V64.6344C129.043 63.4148 128.866 62.2021 128.623 61.0018C128.623 60.4245 128.359 59.8471 128.238 59.2938C128.118 58.7405 127.926 58.2112 127.781 57.682C127.477 56.7073 127.116 55.7514 126.699 54.8192C126.338 53.9291 125.905 53.1833 125.568 52.4135C125.231 51.6437 124.822 51.1866 124.534 50.7295L123.523 49.3342L124.293 50.8739L125.087 52.6541L125.52 53.7847C125.688 54.1697 125.809 54.6027 125.953 55.0357C126.097 55.4687 126.266 55.9258 126.386 56.407C126.506 56.8881 126.675 57.3692 126.795 57.8985C127.035 58.9329 127.252 60.0155 127.445 61.1462C127.637 62.2768 127.733 63.5518 127.829 64.6585V66.6552C127.829 67.2566 127.829 67.8821 127.829 68.4835C127.829 69.085 127.829 69.7104 127.829 70.3119C127.829 70.9133 127.829 71.5387 127.829 72.1402C127.829 73.343 127.637 74.5459 127.469 75.6766C127.3 76.8072 127.156 77.9379 126.963 78.9724C126.771 80.0068 126.579 80.9931 126.386 81.9073C126.001 83.7115 125.616 85.2272 125.328 86.2857L124.991 87.5126L124.726 87.8493Z" fill="#C09068"/>
<path d="M88.3166 38.6684C89.7419 38.5025 90.7628 37.2125 90.5969 35.7872C90.431 34.3619 89.1411 33.341 87.7158 33.507C86.2905 33.6729 85.2695 34.9628 85.4354 36.3881C85.6013 37.8134 86.8913 38.8343 88.3166 38.6684Z" fill="#C09068"/>
<path d="M118.628 64.4068C118.794 62.9815 117.773 61.6915 116.347 61.5256C114.922 61.3597 113.632 62.3807 113.466 63.806C113.3 65.2312 114.321 66.5212 115.747 66.6871C117.172 66.8531 118.462 65.8321 118.628 64.4068Z" fill="#C09068"/>
<path d="M42.0588 21.9025C43.5344 20.0374 43.2187 17.3292 41.3536 15.8536C39.4885 14.378 36.7803 14.6937 35.3046 16.5588C33.829 18.424 34.1448 21.1322 36.0098 22.6078C37.8749 24.0834 40.5832 23.7676 42.0588 21.9025Z" fill="#C09068"/>
<path d="M135.586 116.859C137.451 115.383 137.767 112.675 136.291 110.81C134.816 108.945 132.107 108.629 130.242 110.105C128.377 111.581 128.061 114.289 129.537 116.154C131.013 118.019 133.721 118.335 135.586 116.859Z" fill="#C09068"/>
<path d="M107.043 13.5578C107.933 12.9297 108.146 11.6988 107.518 10.8087C106.889 9.9185 105.659 9.70613 104.768 10.3343C103.878 10.9625 103.666 12.1933 104.294 13.0835C104.922 13.9736 106.153 14.186 107.043 13.5578Z" fill="#C09068"/>
<path d="M141.856 47.4071C142.485 46.5169 142.272 45.286 141.382 44.6579C140.492 44.0297 139.261 44.2421 138.633 45.1323C138.005 46.0224 138.217 47.2533 139.107 47.8814C139.998 48.5096 141.228 48.2972 141.856 47.4071Z" fill="#C09068"/>
<path d="M101.856 10.6746C102.648 10.1155 102.838 9.01986 102.279 8.22731C101.719 7.43477 100.624 7.24548 99.8313 7.80456C99.0387 8.36364 98.8493 9.4594 99.4084 10.252C99.9675 11.0445 101.063 11.2337 101.856 10.6746Z" fill="#C09068"/>
<path d="M144.326 52.3191C144.885 51.5265 144.696 50.4309 143.903 49.8718C143.11 49.3127 142.015 49.5019 141.456 50.2945C140.897 51.087 141.086 52.1828 141.878 52.7419C142.671 53.301 143.767 53.1116 144.326 52.3191Z" fill="#C09068"/>
<path d="M96.4785 8.67359C97.2059 8.16046 97.3795 7.15475 96.8664 6.42735C96.3533 5.69994 95.3477 5.52629 94.6203 6.03942C93.8929 6.55255 93.7193 7.55818 94.2324 8.28559C94.7455 9.01299 95.7511 9.18672 96.4785 8.67359Z" fill="#C09068"/>
<path d="M146.162 57.5529C146.676 56.8256 146.502 55.8198 145.775 55.3066C145.047 54.7933 144.042 54.9669 143.529 55.6942C143.015 56.4216 143.189 57.4272 143.916 57.9405C144.643 58.4537 145.649 58.2802 146.162 57.5529Z" fill="#C09068"/>
<path d="M91.453 7.74189C92.0718 7.30535 92.2196 6.44978 91.783 5.83094C91.3465 5.2121 90.4909 5.06433 89.872 5.50087C89.2532 5.93741 89.1054 6.79298 89.5419 7.41182C89.9785 8.03065 90.8341 8.17843 91.453 7.74189Z" fill="#C09068"/>
<path d="M146.811 62.4054C147.248 61.7866 147.1 60.931 146.481 60.4944C145.862 60.0577 145.007 60.2054 144.57 60.8242C144.133 61.4429 144.281 62.2985 144.9 62.7352C145.519 63.1718 146.374 63.0242 146.811 62.4054Z" fill="#C09068"/>
<path d="M86.4873 7.48174C87.0735 7.06808 87.2133 6.25756 86.7996 5.67136C86.386 5.08516 85.5754 4.94527 84.9892 5.35894C84.403 5.77261 84.2633 6.58313 84.677 7.16932C85.0906 7.75552 85.9011 7.89541 86.4873 7.48174Z" fill="#C09068"/>
<path d="M146.703 67.0895C147.117 66.5033 146.977 65.6928 146.39 65.2791C145.804 64.8655 144.994 65.0053 144.58 65.5915C144.166 66.1777 144.306 66.9883 144.892 67.402C145.478 67.8156 146.289 67.6757 146.703 67.0895Z" fill="#C09068"/>
<path d="M81.9267 7.51739C82.4261 7.16501 82.5452 6.4746 82.1928 5.97524C81.8404 5.47589 81.1499 5.3567 80.6506 5.70908C80.1512 6.06147 80.0321 6.75197 80.3845 7.25132C80.7369 7.75067 81.4274 7.86978 81.9267 7.51739Z" fill="#C09068"/>
<path d="M146.424 71.5018C146.777 71.0024 146.658 70.3119 146.158 69.9595C145.659 69.6071 144.968 69.7263 144.616 70.2257C144.264 70.725 144.383 71.4155 144.882 71.7679C145.381 72.1203 146.072 72.0011 146.424 71.5018Z" fill="#C09068"/>
<path d="M77.8535 7.84837C78.2877 7.54195 78.3913 6.9415 78.0849 6.50728C77.7785 6.07306 77.1781 5.9695 76.7439 6.27592C76.3096 6.58234 76.206 7.18278 76.5124 7.617C76.8188 8.05122 77.4193 8.15479 77.8535 7.84837Z" fill="#C09068"/>
<path d="M145.846 75.4038C146.152 74.9696 146.049 74.3691 145.614 74.0627C145.18 73.7563 144.58 73.8599 144.273 74.2941C143.967 74.7283 144.071 75.3287 144.505 75.6351C144.939 75.9415 145.539 75.838 145.846 75.4038Z" fill="#C09068"/>
<path d="M74.2027 8.6645C74.5826 8.39631 74.6732 7.87098 74.405 7.49108C74.1368 7.11119 73.6115 7.02059 73.2316 7.28877C72.8518 7.55696 72.7611 8.0823 73.0293 8.4622C73.2974 8.84209 73.8228 8.93268 74.2027 8.6645Z" fill="#C09068"/>
<path d="M144.743 78.8399C145.011 78.46 144.92 77.9347 144.54 77.6665C144.16 77.3984 143.635 77.489 143.367 77.869C143.099 78.2489 143.189 78.7742 143.569 79.0423C143.949 79.3105 144.474 79.2199 144.743 78.8399Z" fill="#C09068"/>
<path d="M70.6457 9.37684C70.9497 9.16235 71.0222 8.74202 70.8077 8.43807C70.5932 8.13412 70.1728 8.06164 69.8689 8.27613C69.5649 8.49063 69.4925 8.91087 69.707 9.21482C69.9215 9.51877 70.3418 9.59134 70.6457 9.37684Z" fill="#C09068"/>
<path d="M143.797 82.2116C144.011 81.9076 143.939 81.4874 143.635 81.273C143.331 81.0585 142.91 81.1311 142.696 81.4351C142.482 81.739 142.554 82.1594 142.858 82.3738C143.162 82.5883 143.582 82.5156 143.797 82.2116Z" fill="#C09068"/>
<path d="M67.4266 10.2611C67.698 10.0696 67.7629 9.69441 67.5715 9.42295C67.3801 9.1515 67.0048 9.08662 66.7334 9.27804C66.4619 9.46946 66.397 9.84469 66.5885 10.1161C66.7799 10.3876 67.1551 10.4525 67.4266 10.2611Z" fill="#C09068"/>
<path d="M142.854 85.3792C143.046 85.1078 142.981 84.7325 142.709 84.5411C142.438 84.3497 142.063 84.4146 141.871 84.686C141.68 84.9575 141.745 85.3327 142.016 85.5242C142.288 85.7156 142.663 85.6507 142.854 85.3792Z" fill="#C09068"/>
<path d="M64.9348 10.9252C65.1519 10.7721 65.2038 10.4718 65.0506 10.2547C64.8974 10.0376 64.5972 9.98574 64.3801 10.1389C64.1629 10.2921 64.1112 10.5923 64.2644 10.8094C64.4175 11.0265 64.7176 11.0784 64.9348 10.9252Z" fill="#C09068"/>
<path d="M142.086 87.8073C142.239 87.5902 142.187 87.29 141.97 87.1368C141.753 86.9836 141.452 87.0355 141.299 87.2526C141.146 87.4698 141.198 87.7699 141.415 87.923C141.632 88.0762 141.932 88.0245 142.086 87.8073Z" fill="#C09068"/>
<path d="M62.7058 11.7101C62.8577 11.6028 62.8939 11.3927 62.7866 11.2407C62.6793 11.0888 62.4691 11.0526 62.3171 11.1598C62.1651 11.2671 62.129 11.4772 62.2363 11.6292C62.3436 11.7812 62.5538 11.8174 62.7058 11.7101Z" fill="#C09068"/>
<path d="M140.983 89.8242C141.09 89.6722 141.054 89.462 140.902 89.3548C140.75 89.2475 140.54 89.2838 140.432 89.4358C140.325 89.5878 140.361 89.798 140.513 89.9052C140.665 90.0124 140.876 89.9762 140.983 89.8242Z" fill="#C09068"/>
<path d="M60.7985 12.829C60.9179 12.7446 60.9461 12.5795 60.8618 12.4601C60.7774 12.3408 60.6123 12.3124 60.493 12.3968C60.3737 12.4812 60.3453 12.6463 60.4296 12.7657C60.514 12.885 60.6792 12.9133 60.7985 12.829Z" fill="#C09068"/>
<path d="M139.8 91.6932C139.884 91.5738 139.856 91.4086 139.737 91.3243C139.617 91.2399 139.452 91.2684 139.368 91.3878C139.283 91.5071 139.312 91.6722 139.431 91.7565C139.55 91.8409 139.716 91.8126 139.8 91.6932Z" fill="#C09068"/>
<path d="M135.047 146.043C135.047 146.043 137.741 142.05 140.676 142.795C140.266 142.3 139.686 141.976 139.049 141.887C138.412 141.798 137.766 141.95 137.236 142.314C135.696 143.541 138.968 141.352 135.071 138.826C131.173 141.232 134.614 143.325 132.906 142.314C132.376 141.95 131.729 141.798 131.092 141.887C130.455 141.976 129.875 142.3 129.465 142.795C130.589 142.845 131.684 143.166 132.656 143.732C133.628 144.298 134.448 145.091 135.047 146.043Z" fill="#C09068"/>
<path d="M136.755 142.795C137.473 142.488 138.103 142.004 138.587 141.389C139.07 140.775 139.391 140.048 139.52 139.277C139.649 138.506 139.583 137.715 139.327 136.976C139.07 136.237 138.633 135.575 138.054 135.049C134.493 131.176 134.902 129.973 134.902 129.973C134.902 129.973 134.902 131.777 131.871 135.001C127.397 139.668 133.459 142.675 133.459 142.675L136.755 142.795Z" fill="#C09068"/>
<path d="M135.191 152.057C136.613 152.057 137.765 150.905 137.765 149.483C137.765 148.062 136.613 146.909 135.191 146.909C133.769 146.909 132.617 148.062 132.617 149.483C132.617 150.905 133.769 152.057 135.191 152.057Z" fill="#C09068"/>
<path d="M134.421 1013.3V154.752C134.421 154.548 134.502 154.352 134.646 154.207C134.791 154.063 134.987 153.982 135.191 153.982C135.395 153.982 135.591 154.063 135.735 154.207C135.88 154.352 135.961 154.548 135.961 154.752V1013.3C135.961 1013.5 135.88 1013.7 135.735 1013.84C135.591 1013.99 135.395 1014.07 135.191 1014.07C134.987 1014.07 134.791 1013.99 134.646 1013.84C134.502 1013.7 134.421 1013.5 134.421 1013.3Z" fill="#C09068"/>
<path d="M135.215 1030.75C138.494 1030.64 141.063 1027.89 140.951 1024.61C140.839 1021.33 138.09 1018.76 134.81 1018.87C131.53 1018.98 128.962 1021.73 129.074 1025.01C129.186 1028.29 131.935 1030.86 135.215 1030.75Z" fill="#C09068"/>
</svg>
