<svg width="278" height="181" viewBox="0 0 278 181" fill="none" xmlns="http://www.w3.org/2000/svg">
<path d="M70.3608 6.1814H244.887M34.179 175.554H207.25M6.18164 71.3471V147.077M273 34.3471V110.077" stroke="#C09068" stroke-width="0.804826" stroke-linecap="round"/>
<path d="M208.945 180L209.216 179.846C209.474 179.69 209.72 179.516 209.953 179.324C210.333 179.005 210.659 178.627 210.919 178.204C211.083 177.937 211.211 177.65 211.301 177.349L211.352 177.093V176.246C211.352 176.195 211.352 176.144 211.352 176.101V175.956C211.352 175.862 211.352 175.759 211.284 175.656C211.223 175.454 211.146 175.257 211.055 175.066L210.911 174.776L210.733 174.494L210.64 174.348L210.589 174.28L210.487 174.152L210.368 174.015C210.036 173.627 209.609 173.333 209.131 173.16C208.859 173.066 208.568 173.039 208.284 173.083C208.13 173.109 207.982 173.158 207.843 173.228C207.701 173.304 207.573 173.402 207.461 173.519C207.235 173.753 207.084 174.051 207.029 174.374C206.977 174.69 206.995 175.014 207.08 175.323C207.165 175.625 207.293 175.913 207.461 176.178L207.589 176.375L207.733 176.563L207.885 176.742L207.961 176.828V176.87L208.275 177.17L208.631 177.477C208.75 177.58 208.877 177.666 209.004 177.76C209.131 177.854 209.258 177.939 209.385 178.025C209.927 178.379 210.493 178.694 211.08 178.965C211.368 179.11 211.674 179.239 211.97 179.367C212.267 179.495 212.58 179.615 212.902 179.717C213.53 179.948 214.182 180.136 214.86 180.307C215.538 180.478 216.225 180.615 216.928 180.735C217.632 180.855 218.36 180.914 219.089 180.966C220.604 181.058 222.123 180.963 223.615 180.684C225.183 180.398 226.683 179.818 228.039 178.974L228.293 178.811L228.785 178.452L228.844 178.401L228.954 178.307C229.284 178.018 229.57 177.68 229.802 177.306C230.229 176.575 230.492 175.758 230.573 174.913C230.618 174.489 230.618 174.062 230.573 173.639V173.331L230.514 173.015C230.469 172.805 230.409 172.6 230.336 172.399C230.191 171.987 229.97 171.607 229.683 171.279C229.384 170.941 228.991 170.7 228.556 170.586C228.332 170.548 228.102 170.548 227.878 170.586C227.65 170.616 227.429 170.685 227.225 170.792C227.024 170.901 226.841 171.043 226.683 171.211C226.532 171.379 226.406 171.569 226.31 171.775C226.121 172.182 226.02 172.625 226.013 173.074C226.009 173.74 226.127 174.401 226.361 175.024C226.447 175.232 226.546 175.435 226.657 175.631C226.892 176.023 227.177 176.382 227.505 176.699C228.135 177.332 228.873 177.845 229.683 178.213C229.878 178.315 230.09 178.392 230.285 178.478C230.48 178.563 230.692 178.632 230.903 178.691C231.318 178.827 231.739 178.938 232.166 179.025C233.004 179.193 233.855 179.287 234.709 179.307C236.442 179.349 238.168 179.059 239.794 178.452C240.175 178.324 240.582 178.119 240.972 177.939L241.531 177.623L241.667 177.546L241.802 177.452L242.065 177.264C242.768 176.771 243.348 176.122 243.76 175.366C243.811 175.272 243.845 175.169 243.896 175.075C243.941 174.979 243.978 174.879 244.006 174.776L244.099 174.468C244.099 174.365 244.099 174.254 244.15 174.152C244.21 173.736 244.195 173.314 244.108 172.903C244.018 172.5 243.861 172.115 243.641 171.766C243.436 171.406 243.121 171.121 242.743 170.954C242.541 170.892 242.326 170.892 242.124 170.954C241.923 171.004 241.739 171.107 241.591 171.253C241.304 171.546 241.12 171.924 241.065 172.331C241.004 172.726 241.021 173.13 241.116 173.519C241.164 173.712 241.226 173.9 241.302 174.083C241.375 174.263 241.459 174.437 241.557 174.605C241.944 175.285 242.476 175.869 243.116 176.315C243.742 176.749 244.435 177.076 245.167 177.281C246.578 177.633 248.045 177.697 249.481 177.469C249.828 177.418 250.167 177.349 250.506 177.281C250.676 177.281 250.837 177.204 251.006 177.161L251.498 177.033L251.744 176.964H251.981L252.447 176.828L253.371 176.537C255.464 175.75 257.63 175.177 259.837 174.827C260.299 174.77 260.763 174.739 261.227 174.733H261.905C262.109 174.733 262.312 174.733 262.515 174.784C263.251 174.855 263.973 175.031 264.66 175.306C265.632 175.728 266.513 176.338 267.253 177.101C267.516 177.375 267.719 177.589 267.855 177.734L268.058 177.956C268.12 178.018 268.202 178.055 268.289 178.06C268.376 178.066 268.462 178.04 268.532 177.988C268.601 177.935 268.65 177.859 268.669 177.773C268.688 177.687 268.675 177.598 268.634 177.52L268.473 177.247C268.314 176.976 268.142 176.713 267.956 176.46C267.829 176.298 267.694 176.11 267.524 175.913C267.355 175.716 267.355 175.716 267.253 175.614L266.939 175.297C266.433 174.811 265.862 174.397 265.244 174.066C264.444 173.671 263.585 173.411 262.702 173.297L262.337 173.254H261.236C260.981 173.254 260.719 173.254 260.464 173.254H260.066L259.668 173.305C258.549 173.458 257.447 173.722 256.379 174.092C255.82 174.271 255.261 174.485 254.684 174.707L252.989 175.391L252.142 175.75L251.693 175.93L251.583 175.973H251.472L251.244 176.05L250.794 176.204C250.642 176.255 250.489 176.315 250.337 176.357C250.023 176.443 249.71 176.537 249.396 176.614C248.08 176.948 246.71 177.009 245.37 176.793C244.678 176.654 244.014 176.4 243.404 176.041C242.781 175.667 242.253 175.152 241.862 174.536C241.759 174.378 241.669 174.212 241.591 174.04C241.511 173.873 241.446 173.698 241.396 173.519C241.295 173.158 241.266 172.78 241.311 172.408C241.35 172.032 241.511 171.681 241.768 171.407C241.897 171.275 242.058 171.181 242.235 171.134C242.411 171.079 242.6 171.079 242.777 171.134C243.139 171.284 243.439 171.556 243.625 171.903C243.927 172.407 244.079 172.987 244.062 173.576C244.046 174.164 243.861 174.735 243.531 175.22C243.091 175.856 242.511 176.38 241.836 176.751C241.49 176.94 241.134 177.108 240.768 177.255C240.396 177.383 240.048 177.52 239.633 177.623C238.081 178.052 236.478 178.262 234.87 178.247C233.254 178.266 231.648 178 230.124 177.46C229.375 177.19 228.681 176.788 228.073 176.272C227.776 176.024 227.513 175.736 227.293 175.417C227.183 175.253 227.084 175.081 226.996 174.904C226.749 174.367 226.611 173.786 226.59 173.194C226.574 172.801 226.646 172.409 226.802 172.048C226.879 171.872 226.982 171.707 227.107 171.561C227.233 171.42 227.382 171.302 227.547 171.211C227.712 171.124 227.889 171.066 228.073 171.04C228.255 171.009 228.441 171.009 228.624 171.04C228.991 171.137 229.321 171.343 229.573 171.629C229.829 171.924 230.025 172.267 230.149 172.638C230.213 172.825 230.264 173.017 230.302 173.211L230.353 173.502V173.81C230.394 174.202 230.394 174.597 230.353 174.99C230.249 175.761 229.977 176.5 229.556 177.153C229.357 177.473 229.111 177.761 228.827 178.008L228.708 178.102L228.649 178.144L228.174 178.469L227.929 178.615C227.18 178.928 226.398 179.152 225.598 179.281C224.888 179.506 224.163 179.678 223.428 179.794C222.706 179.901 221.979 179.969 221.25 180C220.886 180 220.53 180 220.174 180C219.818 180 219.462 180 219.106 180C217.736 179.911 216.375 179.708 215.038 179.393C214.394 179.239 213.758 179.059 213.157 178.854C212.563 178.653 211.981 178.422 211.411 178.161C210.866 177.915 210.339 177.629 209.834 177.306C209.707 177.23 209.589 177.153 209.47 177.067C209.351 176.982 209.233 176.905 209.131 176.819L208.809 176.563L208.487 176.272L208.419 176.204L208.292 176.058L208.173 175.913L208.063 175.759C207.925 175.56 207.816 175.341 207.741 175.109C207.666 174.914 207.643 174.704 207.672 174.497C207.702 174.29 207.784 174.095 207.911 173.929C208.045 173.79 208.217 173.693 208.404 173.649C208.592 173.605 208.788 173.616 208.97 173.681C209.364 173.809 209.72 174.035 210.004 174.34L210.114 174.451L210.224 174.579L210.275 174.639L210.368 174.759L210.546 175.007L210.69 175.263C210.783 175.428 210.862 175.599 210.928 175.776C210.928 175.862 210.979 175.947 211.004 176.033V176.161C211.004 176.204 211.004 176.246 211.004 176.289V176.546C211.004 176.631 211.004 176.714 211.004 176.793V177.272C210.942 177.569 210.843 177.856 210.707 178.127C210.485 178.551 210.199 178.937 209.86 179.273C209.648 179.483 209.422 179.677 209.182 179.854L208.945 180Z" fill="#C09068"/>
<path d="M277.009 110.961L276.856 111.235C276.702 111.495 276.529 111.744 276.339 111.979C276.023 112.362 275.648 112.691 275.229 112.954C274.964 113.119 274.679 113.248 274.381 113.338L274.127 113.39H273.288C273.237 113.39 273.186 113.39 273.144 113.39H273C272.907 113.39 272.805 113.39 272.703 113.321C272.503 113.26 272.307 113.183 272.118 113.09L271.83 112.945L271.551 112.765L271.407 112.671L271.339 112.62L271.212 112.518L271.076 112.398C270.692 112.062 270.4 111.632 270.229 111.15C270.135 110.875 270.109 110.582 270.152 110.295C270.178 110.14 270.227 109.99 270.296 109.85C270.372 109.707 270.469 109.577 270.584 109.465C270.817 109.237 271.112 109.085 271.432 109.029C271.746 108.977 272.067 108.994 272.373 109.081C272.672 109.166 272.958 109.296 273.22 109.465L273.415 109.594L273.602 109.739L273.78 109.893L273.864 109.97H273.907L274.203 110.286L274.508 110.645C274.61 110.765 274.695 110.893 274.788 111.021C274.881 111.15 274.966 111.278 275.051 111.406C275.403 111.952 275.714 112.524 275.983 113.116C276.127 113.407 276.254 113.714 276.381 114.014C276.509 114.313 276.627 114.629 276.729 114.954C276.958 115.587 277.144 116.245 277.314 116.929C277.483 117.613 277.619 118.306 277.737 119.015C277.856 119.725 277.915 120.46 277.966 121.195C278.057 122.723 277.964 124.256 277.687 125.761C277.404 127.343 276.829 128.856 275.992 130.224L275.831 130.48L275.475 130.976L275.424 131.036L275.331 131.147C275.044 131.48 274.71 131.768 274.339 132.002C273.614 132.433 272.804 132.699 271.966 132.78C271.546 132.826 271.123 132.826 270.703 132.78H270.398L270.084 132.72C269.877 132.675 269.673 132.615 269.474 132.541C269.066 132.395 268.689 132.171 268.364 131.882C268.029 131.58 267.79 131.185 267.678 130.745C267.639 130.519 267.639 130.288 267.678 130.061C267.707 129.832 267.776 129.609 267.881 129.403C267.99 129.2 268.13 129.015 268.296 128.856C268.463 128.704 268.652 128.577 268.856 128.48C269.259 128.289 269.698 128.187 270.144 128.18C270.804 128.176 271.459 128.295 272.076 128.531C272.283 128.617 272.484 128.717 272.678 128.83C273.066 129.067 273.423 129.355 273.737 129.685C274.364 130.321 274.872 131.065 275.237 131.882C275.339 132.079 275.415 132.293 275.5 132.489C275.585 132.686 275.653 132.9 275.712 133.114C275.846 133.532 275.956 133.957 276.042 134.388C276.209 135.233 276.302 136.091 276.322 136.952C276.363 138.701 276.076 140.442 275.475 142.082C275.347 142.467 275.144 142.877 274.966 143.271L274.653 143.835L274.576 143.972L274.483 144.108L274.297 144.374C273.809 145.082 273.165 145.668 272.415 146.083C272.322 146.135 272.22 146.169 272.127 146.22C272.032 146.266 271.932 146.303 271.83 146.331L271.525 146.425C271.424 146.425 271.313 146.425 271.212 146.477C270.8 146.537 270.381 146.523 269.974 146.434C269.574 146.344 269.193 146.185 268.847 145.964C268.49 145.756 268.208 145.439 268.042 145.057C267.981 144.854 267.981 144.637 268.042 144.433C268.091 144.23 268.193 144.044 268.339 143.895C268.628 143.606 269.003 143.42 269.406 143.365C269.799 143.303 270.199 143.32 270.584 143.416C270.775 143.464 270.962 143.527 271.144 143.604C271.322 143.677 271.495 143.763 271.661 143.861C272.335 144.251 272.914 144.788 273.356 145.434C273.787 146.065 274.11 146.764 274.314 147.503C274.663 148.926 274.726 150.406 274.5 151.854C274.449 152.205 274.381 152.547 274.314 152.889C274.314 153.06 274.237 153.222 274.195 153.393L274.068 153.889L274 154.137V154.377L273.864 154.847L273.576 155.779C272.796 157.89 272.228 160.076 271.881 162.302C271.825 162.767 271.794 163.236 271.788 163.704V164.388C271.788 164.593 271.788 164.799 271.839 165.004C271.909 165.746 272.083 166.474 272.356 167.167C272.774 168.148 273.379 169.036 274.136 169.783C274.407 170.048 274.619 170.253 274.763 170.39L274.983 170.595C275.044 170.658 275.081 170.741 275.086 170.828C275.092 170.916 275.066 171.003 275.014 171.073C274.962 171.143 274.886 171.192 274.801 171.211C274.716 171.23 274.628 171.218 274.551 171.177L274.28 171.014C274.011 170.854 273.751 170.68 273.5 170.493C273.339 170.364 273.152 170.228 272.957 170.057C272.763 169.886 272.763 169.886 272.661 169.783L272.347 169.467C271.865 168.956 271.455 168.38 271.127 167.757C270.735 166.95 270.478 166.083 270.364 165.192L270.322 164.824V163.713C270.322 163.456 270.322 163.191 270.322 162.935V162.533L270.373 162.131C270.524 161.002 270.785 159.891 271.152 158.814C271.33 158.25 271.542 157.685 271.763 157.104L272.441 155.394L272.796 154.539L272.974 154.086L273.017 153.975V153.864L273.093 153.633L273.246 153.18C273.296 153.026 273.356 152.872 273.398 152.718C273.483 152.402 273.576 152.085 273.652 151.769C273.983 150.441 274.044 149.06 273.83 147.708C273.692 147.01 273.44 146.339 273.085 145.724C272.714 145.096 272.203 144.563 271.593 144.168C271.436 144.065 271.272 143.974 271.101 143.895C270.935 143.814 270.762 143.749 270.584 143.698C270.226 143.597 269.852 143.568 269.483 143.613C269.111 143.652 268.762 143.814 268.491 144.074C268.36 144.204 268.267 144.366 268.22 144.545C268.166 144.723 268.166 144.913 268.22 145.092C268.369 145.457 268.638 145.759 268.983 145.947C269.482 146.252 270.057 146.405 270.641 146.388C271.224 146.372 271.79 146.186 272.271 145.853C272.901 145.409 273.421 144.824 273.788 144.143C273.976 143.794 274.143 143.434 274.288 143.065C274.415 142.689 274.551 142.339 274.653 141.92C275.077 140.355 275.286 138.738 275.271 137.115C275.29 135.485 275.026 133.865 274.491 132.327C274.224 131.572 273.825 130.872 273.313 130.258C273.068 129.958 272.783 129.694 272.466 129.471C272.303 129.361 272.133 129.261 271.957 129.172C271.425 128.923 270.849 128.783 270.262 128.762C269.873 128.746 269.484 128.819 269.127 128.976C268.952 129.054 268.789 129.157 268.644 129.283C268.504 129.411 268.387 129.561 268.296 129.728C268.21 129.894 268.153 130.073 268.127 130.258C268.097 130.442 268.097 130.63 268.127 130.814C268.224 131.184 268.427 131.517 268.711 131.771C269.004 132.029 269.344 132.227 269.712 132.353C269.897 132.418 270.087 132.469 270.279 132.507L270.568 132.558H270.873C271.261 132.6 271.653 132.6 272.042 132.558C272.807 132.454 273.54 132.179 274.186 131.754C274.504 131.553 274.789 131.305 275.034 131.019L275.127 130.899L275.169 130.839L275.492 130.361L275.636 130.113C275.946 129.358 276.168 128.569 276.297 127.762C276.519 127.046 276.689 126.314 276.805 125.573C276.91 124.844 276.978 124.111 277.009 123.376C277.009 123.008 277.009 122.649 277.009 122.29C277.009 121.931 277.009 121.572 277.009 121.212C276.92 119.83 276.719 118.458 276.407 117.109C276.254 116.459 276.076 115.818 275.873 115.211C275.674 114.612 275.445 114.024 275.186 113.449C274.942 112.899 274.659 112.368 274.339 111.859C274.263 111.731 274.186 111.611 274.102 111.492C274.017 111.372 273.941 111.252 273.856 111.15L273.602 110.825L273.313 110.5L273.246 110.431L273.102 110.303L272.957 110.183L272.805 110.072C272.607 109.933 272.39 109.823 272.161 109.747C271.968 109.672 271.759 109.648 271.554 109.678C271.349 109.708 271.155 109.791 270.991 109.918C270.853 110.054 270.757 110.227 270.713 110.416C270.67 110.606 270.681 110.804 270.745 110.987C270.872 111.385 271.096 111.744 271.398 112.03L271.508 112.141L271.635 112.252L271.695 112.304L271.813 112.398L272.059 112.577L272.313 112.723C272.476 112.816 272.646 112.896 272.822 112.962C272.907 112.962 272.991 113.013 273.076 113.039H273.203C273.246 113.039 273.288 113.039 273.33 113.039H273.585C273.669 113.039 273.751 113.039 273.83 113.039H274.305C274.599 112.977 274.884 112.876 275.153 112.74C275.572 112.515 275.955 112.227 276.288 111.885C276.496 111.671 276.689 111.443 276.864 111.201L277.009 110.961Z" fill="#C09068"/>
<path d="M69.0554 0.999916L68.7842 1.1538C68.5263 1.30945 68.2798 1.48375 68.0469 1.67533C67.6674 1.99406 67.3413 2.37222 67.0807 2.79534C66.9168 3.0621 66.7885 3.34959 66.6993 3.65031L66.6485 3.90679V4.75321C66.6485 4.80451 66.6485 4.8558 66.6485 4.89855V5.0439C66.6485 5.13795 66.6485 5.24054 66.7163 5.34313C66.7771 5.54553 66.8536 5.74279 66.9451 5.93306L67.0892 6.22375L67.2672 6.50589L67.3604 6.65123L67.4112 6.71963L67.5129 6.84788L67.6316 6.98467C67.9644 7.37217 68.3905 7.66663 68.869 7.83964C69.1412 7.93371 69.4319 7.9601 69.7165 7.91658C69.8697 7.89043 70.0182 7.84145 70.1572 7.77124C70.2987 7.69528 70.4274 7.59717 70.5385 7.48055C70.7651 7.24629 70.9159 6.94815 70.9708 6.62558C71.0227 6.30929 71.0053 5.98537 70.9199 5.67657C70.8353 5.37418 70.7067 5.08608 70.5385 4.8216L70.4114 4.62497L70.2673 4.43687L70.1148 4.25733L70.0385 4.17184V4.12908L69.7249 3.82985L69.369 3.52206C69.2503 3.41946 69.1232 3.33397 68.9961 3.23992C68.869 3.14587 68.7418 3.06038 68.6147 2.97488C68.0732 2.62012 67.5067 2.30579 66.9197 2.03442C66.6316 1.88908 66.3264 1.76083 66.0298 1.63259C65.7332 1.50434 65.4196 1.38464 65.0975 1.28205C64.4704 1.05121 63.8178 0.863121 63.1398 0.692123C62.4618 0.521133 61.7753 0.384338 61.0719 0.264641C60.3685 0.144951 59.6396 0.0850983 58.9108 0.0337982C57.3965 -0.0582428 55.8767 0.0365067 54.3851 0.315941C52.8173 0.601234 51.3165 1.18128 49.9611 2.02587L49.7069 2.18832L49.2153 2.5474L49.156 2.59869L49.0458 2.69274C48.7157 2.98193 48.43 3.31905 48.1983 3.69305C47.771 4.42463 47.5078 5.24174 47.4271 6.08696C47.3816 6.51035 47.3816 6.93746 47.4271 7.36086V7.66864L47.4864 7.98498C47.5312 8.19416 47.5907 8.39986 47.6644 8.60056C47.809 9.01253 48.0305 9.39272 48.3169 9.72056C48.6164 10.0589 49.0087 10.2999 49.4441 10.4131C49.6685 10.4518 49.8978 10.4518 50.1221 10.4131C50.3499 10.3836 50.5707 10.3142 50.7747 10.2079C50.9764 10.0981 51.1595 9.95673 51.3171 9.78896C51.4681 9.62026 51.5937 9.43014 51.69 9.22468C51.8788 8.81751 51.9799 8.3746 51.9866 7.92513C51.9907 7.25933 51.8729 6.5985 51.6392 5.97581C51.5535 5.76717 51.4544 5.5644 51.3425 5.36878C51.1076 4.97671 50.8226 4.61741 50.495 4.30008C49.8651 3.66763 49.1273 3.155 48.3169 2.78679C48.122 2.6842 47.9102 2.60725 47.7152 2.52175C47.5203 2.43626 47.3084 2.36786 47.0965 2.30801C46.6823 2.17266 46.2607 2.06133 45.8338 1.97457C44.9959 1.80692 44.1452 1.71253 43.2912 1.69244C41.5579 1.65076 39.8325 1.94086 38.2062 2.5474C37.8248 2.67564 37.418 2.88084 37.0282 3.06038L36.4688 3.37672L36.3332 3.45366L36.1976 3.54771L35.9349 3.7358C35.2323 4.22805 34.6521 4.87768 34.2399 5.63383C34.189 5.72787 34.1551 5.83047 34.1043 5.92451C34.0587 6.02069 34.0218 6.12084 33.9941 6.22375L33.9009 6.53153C33.9009 6.63413 33.9009 6.74528 33.85 6.84788C33.7902 7.26318 33.8045 7.68593 33.8924 8.09612C33.9816 8.49944 34.1393 8.88416 34.3585 9.23323C34.5644 9.59375 34.8792 9.87836 35.2569 10.0454C35.4586 10.107 35.6739 10.107 35.8756 10.0454C36.077 9.99595 36.2614 9.89258 36.4095 9.74621C36.6956 9.45394 36.88 9.07593 36.935 8.66895C36.9961 8.27332 36.9788 7.86939 36.8841 7.48055C36.8361 7.288 36.7737 7.09938 36.6977 6.91628C36.6255 6.73647 36.5405 6.56217 36.4434 6.39474C36.0565 5.71459 35.5237 5.13035 34.884 4.68481C34.2583 4.25009 33.5651 3.92358 32.833 3.7187C31.4219 3.36618 29.9552 3.30223 28.5192 3.53061C28.1717 3.58191 27.8327 3.6503 27.4937 3.7187C27.3242 3.7187 27.1632 3.79565 26.9937 3.8384L26.5022 3.96664L26.2564 4.03504H26.0191L25.5529 4.17184L24.6292 4.46252C22.536 5.24976 20.3696 5.82262 18.1627 6.17245C17.7015 6.2294 17.2375 6.2608 16.7728 6.2665H16.0948C15.8914 6.2665 15.688 6.2665 15.4846 6.2152C14.749 6.14439 14.0271 5.9688 13.3404 5.69367C12.3683 5.27126 11.4873 4.66137 10.747 3.89825C10.4843 3.62466 10.2809 3.41091 10.1453 3.26557L9.9419 3.04328C9.87969 2.98186 9.79773 2.94492 9.71087 2.93917C9.62401 2.93342 9.53797 2.95922 9.46833 3.01191C9.39869 3.0646 9.35006 3.14069 9.33122 3.22643C9.31237 3.31216 9.32457 3.40186 9.3656 3.47931L9.52662 3.7529C9.68552 4.02382 9.85807 4.28636 10.0436 4.53947C10.1707 4.70191 10.3063 4.89001 10.4758 5.08665C10.6453 5.28329 10.6453 5.28329 10.747 5.38589L11.0606 5.70222C11.5674 6.18858 12.1377 6.60278 12.7556 6.93337C13.5558 7.32825 14.4147 7.58819 15.2981 7.70284L15.6626 7.74559H16.7643C17.0186 7.74559 17.2813 7.74559 17.5356 7.74559H17.9339L18.3322 7.69429C19.4512 7.54138 20.5526 7.27793 21.6205 6.90772C22.1799 6.72818 22.7392 6.51443 23.3155 6.29214L25.0105 5.60818L25.8581 5.24908L26.3072 5.06955L26.4174 5.0268H26.5276L26.7564 4.94985L27.2056 4.79596C27.3581 4.74466 27.5107 4.68481 27.6632 4.64206C27.9768 4.55656 28.2904 4.46252 28.604 4.38557C29.9201 4.05198 31.2895 3.99091 32.6296 4.20603C33.3217 4.34557 33.9861 4.5998 34.5958 4.9584C35.2186 5.33266 35.7467 5.84779 36.1383 6.46314C36.2407 6.62148 36.3313 6.78722 36.4095 6.95901C36.4891 7.12694 36.5543 7.30142 36.6044 7.48055C36.7048 7.84182 36.7336 8.2195 36.6892 8.59201C36.6502 8.96725 36.4893 9.31894 36.2315 9.59232C36.1034 9.72416 35.9423 9.81868 35.7654 9.8659C35.5886 9.92014 35.3998 9.92014 35.223 9.8659C34.8609 9.71584 34.5614 9.44395 34.3755 9.09643C34.0732 8.59299 33.9212 8.01231 33.9378 7.42395C33.9543 6.83559 34.1386 6.26453 34.4687 5.77917C34.9085 5.14341 35.4888 4.61949 36.1637 4.24878C36.5095 4.05959 36.8661 3.89116 37.2316 3.74435C37.6045 3.61611 37.952 3.47932 38.3672 3.37672C39.9187 2.94798 41.5216 2.73795 43.1302 2.75259C44.7456 2.73333 46.3519 2.99954 47.8762 3.53915C48.6245 3.80904 49.3191 4.21148 49.9272 4.72756C50.2245 4.97543 50.4868 5.26307 50.7069 5.58253C50.8166 5.7469 50.9157 5.91826 51.0035 6.0955C51.2506 6.63248 51.3889 7.21382 51.4103 7.80544C51.4263 8.19856 51.3539 8.59022 51.1985 8.95109C51.1212 9.12783 51.0183 9.29205 50.8934 9.43842C50.7668 9.57916 50.6179 9.69763 50.4527 9.78896C50.2884 9.87574 50.1107 9.93356 49.9272 9.95995C49.7448 9.99025 49.5587 9.99025 49.3763 9.95995C49.0091 9.86213 48.6789 9.65686 48.4271 9.37002C48.1712 9.07518 47.9754 8.73236 47.8508 8.36116C47.7865 8.17412 47.7356 7.9827 47.6983 7.78834L47.6474 7.49765V7.18987C47.6056 6.79771 47.6056 6.40216 47.6474 6.01001C47.7507 5.2383 48.0228 4.49944 48.4441 3.84695C48.6433 3.52679 48.889 3.23859 49.1729 2.99198L49.2916 2.89793L49.3509 2.85519L49.8255 2.5303L50.0713 2.38496C50.8196 2.07137 51.6018 1.84755 52.4019 1.71809C53.1116 1.49345 53.8368 1.322 54.5715 1.2051C55.2936 1.09892 56.0206 1.03043 56.7496 0.999916C57.1141 0.999916 57.47 0.999916 57.826 0.999916C58.1819 0.999916 58.5379 0.999916 58.8938 0.999916C60.2641 1.08891 61.6247 1.29195 62.9618 1.60694C63.6059 1.76083 64.2416 1.94038 64.8433 2.14557C65.4365 2.34644 66.0192 2.57757 66.5892 2.83809C67.1344 3.0844 67.6612 3.37012 68.1655 3.69305C68.2927 3.77 68.4113 3.84695 68.53 3.93244C68.6486 4.01794 68.7673 4.09489 68.869 4.18038L69.191 4.43687L69.5131 4.72756L69.5809 4.79596L69.708 4.9413L69.8266 5.08665L69.9368 5.24054C70.0753 5.43994 70.1839 5.6589 70.2589 5.89031C70.3336 6.08508 70.3573 6.29599 70.3276 6.50267C70.2979 6.70936 70.2158 6.90482 70.0894 7.07017C69.9547 7.2093 69.7834 7.30659 69.5957 7.35052C69.4079 7.39447 69.2116 7.38322 69.03 7.31811C68.6356 7.19071 68.2797 6.96416 67.996 6.65978L67.8858 6.54864L67.7757 6.42039L67.7248 6.36054L67.6316 6.24085L67.4536 5.99291L67.3096 5.73642C67.2172 5.57198 67.1379 5.40045 67.0723 5.22344C67.0723 5.13795 67.0214 5.05245 66.996 4.96696V4.83871C66.996 4.79596 66.996 4.75321 66.996 4.71046V4.45397C66.996 4.36848 66.996 4.28584 66.996 4.20603V3.72725C67.0577 3.4305 67.1574 3.1431 67.2926 2.87228C67.5155 2.44899 67.8013 2.06263 68.1401 1.72663C68.3518 1.5165 68.5784 1.3222 68.8181 1.14526L69.0554 0.999916Z" fill="#C09068"/>
<path d="M0.991435 70.038L1.14398 69.7645C1.29827 69.5042 1.47105 69.2557 1.66096 69.0206C1.97691 68.6379 2.35177 68.3088 2.7712 68.046C3.03563 67.8806 3.32061 67.7512 3.6187 67.6612L3.87295 67.6099H4.71198C4.76283 67.6099 4.81368 67.6099 4.85606 67.6099H5.00013C5.09336 67.6099 5.19506 67.6099 5.29676 67.6783C5.49739 67.7397 5.69292 67.8169 5.88154 67.9092L6.16969 68.0545L6.44937 68.2341L6.59344 68.3281L6.66124 68.3794L6.78837 68.482L6.92397 68.6017C7.30809 68.9374 7.59997 69.3673 7.77148 69.85C7.86473 70.1246 7.89089 70.4179 7.84775 70.7049C7.82183 70.8595 7.77328 71.0093 7.70368 71.1495C7.62838 71.2923 7.53112 71.4222 7.41552 71.5342C7.18331 71.7628 6.88777 71.9149 6.56802 71.9703C6.25448 72.0226 5.9334 72.0051 5.62729 71.919C5.32754 71.8336 5.04195 71.7039 4.77978 71.5342L4.58486 71.406L4.3984 71.2606L4.22043 71.1068L4.13568 71.0298H4.0933L3.79668 70.7135L3.49157 70.3544C3.38987 70.2347 3.30512 70.1064 3.2119 69.9782C3.11867 69.8499 3.03392 69.7217 2.94917 69.5935C2.5975 69.0472 2.28591 68.4757 2.01692 67.8835C1.87284 67.5929 1.74571 67.2851 1.61859 66.9858C1.49146 66.6866 1.37281 66.3702 1.27111 66.0453C1.04228 65.4127 0.855834 64.7543 0.686333 64.0704C0.516831 63.3864 0.381231 62.6939 0.26258 61.9843C0.143929 61.2746 0.0846001 60.5394 0.0337498 59.8041C-0.0574884 58.2765 0.036433 56.7433 0.313428 55.2386C0.596234 53.6569 1.17122 52.143 2.00844 50.7757L2.16947 50.5192L2.52542 50.0233L2.57627 49.9635L2.66949 49.8523C2.95615 49.5193 3.29034 49.2311 3.66107 48.9973C4.38627 48.5663 5.19626 48.3007 6.03409 48.2193C6.45379 48.1735 6.87717 48.1735 7.29687 48.2193H7.60197L7.91555 48.2792C8.1229 48.3244 8.32682 48.3844 8.52576 48.4587C8.93413 48.6046 9.31101 48.828 9.63599 49.117C9.97134 49.4192 10.2102 49.8149 10.3225 50.2541C10.3609 50.4805 10.3609 50.7118 10.3225 50.9381C10.2933 51.1679 10.2244 51.3907 10.1191 51.5964C10.0103 51.7999 9.8701 51.9846 9.70379 52.1436C9.53656 52.2959 9.34811 52.4226 9.14443 52.5198C8.74082 52.7103 8.30177 52.8122 7.85623 52.819C7.19623 52.8231 6.54116 52.7043 5.92392 52.4685C5.7171 52.3821 5.51609 52.2821 5.32218 52.1693C4.93353 51.9322 4.57737 51.6448 4.2628 51.3143C3.63587 50.6788 3.12771 49.9345 2.76272 49.117C2.66102 48.9204 2.58474 48.7067 2.49999 48.51C2.41524 48.3134 2.34744 48.0996 2.28812 47.8859C2.15395 47.468 2.04359 47.0426 1.95759 46.612C1.7914 45.7667 1.69783 44.9086 1.67791 44.0471C1.6366 42.2985 1.92418 40.5579 2.52542 38.9173C2.65254 38.5326 2.85594 38.1222 3.03392 37.7289L3.3475 37.1646L3.42377 37.0278L3.517 36.891L3.70345 36.626C4.1914 35.9172 4.83536 35.3319 5.58491 34.9161C5.67814 34.8648 5.77984 34.8306 5.87306 34.7793C5.9684 34.7332 6.06768 34.696 6.16969 34.6681L6.47479 34.5741C6.57649 34.5741 6.68667 34.5741 6.78837 34.5228C7.20004 34.4624 7.61911 34.4768 8.02573 34.5655C8.42553 34.6555 8.80688 34.8146 9.15291 35.0358C9.51028 35.2434 9.79241 35.561 9.95804 35.942C10.0191 36.1455 10.0191 36.3627 9.95804 36.5662C9.90898 36.7693 9.80651 36.9554 9.66141 37.1048C9.37169 37.3934 8.99699 37.5794 8.59355 37.6349C8.20138 37.6965 7.80097 37.6791 7.41552 37.5835C7.22466 37.5351 7.03768 37.4722 6.85617 37.3955C6.67794 37.3227 6.50516 37.2369 6.33919 37.139C5.66497 36.7487 5.08583 36.2112 4.64418 35.5658C4.21326 34.9346 3.88959 34.2354 3.6865 33.4968C3.33706 32.0733 3.27367 30.5937 3.50005 29.145C3.5509 28.7945 3.6187 28.4525 3.6865 28.1105C3.6865 27.9396 3.76278 27.7771 3.80515 27.6061L3.93227 27.1102L4.00008 26.8623V26.6229L4.13568 26.1527L4.42383 25.2208C5.20421 23.1091 5.77207 20.9237 6.11884 18.6974C6.1753 18.2321 6.20642 17.764 6.21207 17.2952V16.6112C6.21207 16.4061 6.21207 16.2009 6.16122 15.9957C6.09103 15.2536 5.91697 14.5254 5.64424 13.8326C5.22551 12.852 4.62094 11.9633 3.86448 11.2164C3.59328 10.9514 3.3814 10.7462 3.23732 10.6094L3.01697 10.4042C2.95609 10.3414 2.91947 10.2588 2.91377 10.1711C2.90807 10.0835 2.93364 9.99672 2.98587 9.92647C3.0381 9.85622 3.11353 9.80716 3.19852 9.78814C3.2835 9.76913 3.37243 9.78144 3.4492 9.82283L3.7204 9.98526C3.98896 10.1456 4.24921 10.3196 4.50011 10.5068C4.66113 10.635 4.84759 10.7718 5.04251 10.9428C5.23744 11.1138 5.23744 11.1138 5.33914 11.2164L5.65272 11.5328C6.13482 12.044 6.54542 12.6193 6.87312 13.2427C7.26456 14.0499 7.52222 14.9163 7.63588 15.8076L7.67825 16.1752V17.2867C7.67825 17.5432 7.67825 17.8082 7.67825 18.0647V18.4665L7.6274 18.8684C7.47583 19.9972 7.21467 21.1083 6.8477 22.1856C6.66972 22.7499 6.45784 23.3142 6.23749 23.8956L5.55949 25.6055L5.20353 26.4605L5.02556 26.9136L4.98319 27.0247V27.1359L4.90691 27.3667L4.75436 27.8198C4.70351 27.9737 4.64418 28.1276 4.6018 28.2815C4.51705 28.5979 4.42383 28.9142 4.34756 29.2305C4.01687 30.5582 3.95633 31.9397 4.16958 33.2916C4.3079 33.9898 4.55991 34.6601 4.91538 35.2751C5.28637 35.9034 5.797 36.4361 6.407 36.8312C6.56395 36.9345 6.72824 37.0259 6.89854 37.1048C7.065 37.1851 7.23796 37.2509 7.41552 37.3014C7.77364 37.4027 8.14803 37.4317 8.51728 37.3869C8.88925 37.3476 9.23788 37.1853 9.50886 36.9252C9.63956 36.796 9.73326 36.6335 9.78006 36.455C9.83382 36.2766 9.83382 36.0862 9.78006 35.9078C9.63131 35.5425 9.3618 35.2404 9.01731 35.0529C8.51826 34.7479 7.94264 34.5946 7.35942 34.6113C6.7762 34.628 6.21011 34.8139 5.72899 35.1469C5.09878 35.5906 4.57943 36.176 4.21195 36.8568C4.02442 37.2057 3.85746 37.5654 3.71193 37.9341C3.5848 38.3103 3.4492 38.6608 3.3475 39.0797C2.92251 40.6449 2.7143 42.2619 2.72882 43.8847C2.70973 45.5143 2.97361 47.1347 3.50852 48.6725C3.77605 49.4273 4.17498 50.128 4.68655 50.7415C4.93226 51.0413 5.21739 51.306 5.53406 51.528C5.69701 51.6387 5.86687 51.7387 6.04257 51.8273C6.57485 52.0766 7.15112 52.2161 7.73758 52.2377C8.12727 52.2537 8.51551 52.1807 8.87323 52.0239C9.04843 51.9459 9.21122 51.8422 9.35631 51.7161C9.49582 51.5885 9.61326 51.4382 9.70379 51.2716C9.78981 51.1059 9.84713 50.9266 9.87329 50.7415C9.90333 50.5575 9.90333 50.3697 9.87329 50.1857C9.77632 49.8153 9.57285 49.4822 9.28851 49.2282C8.99624 48.97 8.65641 48.7725 8.28845 48.6468C8.10304 48.582 7.91329 48.5305 7.72062 48.4929L7.43248 48.4416H7.12737C6.73864 48.3994 6.34654 48.3994 5.95781 48.4416C5.19284 48.5458 4.46042 48.8203 3.81362 49.2453C3.49626 49.4462 3.21058 49.6941 2.96612 49.9805L2.87289 50.1002L2.83052 50.1601L2.50846 50.6389L2.36439 50.8868C2.05355 51.6417 1.83168 52.4309 1.70334 53.238C1.48067 53.9539 1.31071 54.6855 1.19483 55.4267C1.08957 56.1551 1.02169 56.8885 0.991435 57.624C0.991435 57.9916 0.991435 58.3507 0.991435 58.7098C0.991435 59.0688 0.991435 59.4279 0.991435 59.787C1.07966 61.1693 1.28092 62.5419 1.59316 63.8908C1.74571 64.5406 1.92369 65.1818 2.12709 65.7889C2.3262 66.3873 2.55532 66.9751 2.81357 67.5501C3.05773 68.1001 3.34097 68.6316 3.66107 69.1403C3.73735 69.2686 3.81362 69.3883 3.89837 69.508C3.98312 69.6277 4.0594 69.7474 4.14415 69.85L4.3984 70.1748L4.68655 70.4997L4.75436 70.5681L4.89843 70.6964L5.04251 70.8161L5.19506 70.9272C5.39272 71.0669 5.60977 71.1764 5.83916 71.2521C6.03222 71.3275 6.2413 71.3514 6.44618 71.3214C6.65106 71.2915 6.84482 71.2087 7.00872 71.0811C7.14663 70.9453 7.24308 70.7724 7.28664 70.583C7.33019 70.3936 7.31904 70.1956 7.2545 70.0124C7.12822 69.6145 6.90364 69.2555 6.60192 68.9693L6.49174 68.8582L6.36462 68.747L6.30529 68.6957L6.18664 68.6017L5.94086 68.4221L5.68661 68.2768C5.5236 68.1837 5.35358 68.1036 5.17811 68.0374C5.09336 68.0374 5.00861 67.9861 4.92386 67.9605H4.79673C4.75436 67.9605 4.71198 67.9605 4.66961 67.9605H4.41535C4.3306 67.9605 4.24868 67.9605 4.16958 67.9605H3.69497C3.40081 68.0227 3.11591 68.1233 2.84747 68.2597C2.42786 68.4846 2.04487 68.7729 1.71181 69.1147C1.50351 69.3283 1.3109 69.5569 1.13551 69.7987L0.991435 70.038Z" fill="#C09068"/>
</svg>
