<svg width="149" height="15" viewBox="0 0 149 15" fill="none" xmlns="http://www.w3.org/2000/svg">
<path d="M75.48 1.89984L75.68 2.09984C75.81 2.22984 76 2.43984 76.24 2.71984C76.5252 3.06922 76.7826 3.44035 77.01 3.82984C77.3233 4.36726 77.559 4.94634 77.71 5.54984C77.8032 5.90992 77.8601 6.27842 77.88 6.64984C77.9055 7.06116 77.882 7.47406 77.81 7.87984C77.6477 8.80287 77.2671 9.67373 76.7 10.4198C76.0545 11.2607 75.2447 11.9616 74.32 12.4798C73.3014 13.0442 72.1965 13.4361 71.05 13.6398C69.8094 13.8648 68.5424 13.9052 67.29 13.7598C65.9548 13.5999 64.6467 13.2637 63.4 12.7598C62.0889 12.2415 60.8436 11.5702 59.69 10.7598C59.1033 10.3465 58.5333 9.90317 57.98 9.42984C57.71 9.18984 57.43 8.94984 57.17 8.68984L56.97 8.49984L56.86 8.39984L56.76 8.29984C56.63 8.16984 56.51 8.04984 56.38 7.89984C55.8587 7.3446 55.3994 6.73435 55.01 6.07984C54.8125 5.74536 54.6452 5.39397 54.51 5.02984C54.369 4.65906 54.2717 4.27313 54.22 3.87984C54.1543 3.47918 54.1543 3.0705 54.22 2.66984C54.302 2.26462 54.4653 1.88021 54.7 1.53984C54.9387 1.20063 55.2451 0.914615 55.6 0.699842C55.9563 0.488966 56.3503 0.349689 56.76 0.289838C56.963 0.27383 57.167 0.27383 57.37 0.289838H57.68H57.97C58.3787 0.340519 58.781 0.434375 59.17 0.569837C59.9536 0.849058 60.6741 1.2807 61.29 1.83984C61.6014 2.11929 61.886 2.4273 62.14 2.75984C62.399 3.09131 62.6267 3.44617 62.82 3.81984C63.21 4.57552 63.4607 5.39528 63.56 6.23984C63.7046 7.12006 63.6774 8.01995 63.48 8.88984C63.2586 9.74524 62.8448 10.5388 62.27 11.2098C61.6935 11.8672 60.9847 12.3954 60.19 12.7598C59.4356 13.1136 58.6339 13.3561 57.81 13.4798C57.0162 13.6019 56.2126 13.6488 55.41 13.6198C54.6295 13.5943 53.8514 13.5208 53.08 13.3998L52.5 13.2998L51.94 13.1898C51.56 13.1098 51.19 13.0098 50.83 12.9098C50.1 12.7098 49.39 12.4798 48.7 12.2498C47.31 11.7798 45.96 11.2498 44.65 10.7898C43.34 10.3298 42.05 9.78984 40.8 9.35984C38.3 8.44984 35.91 7.65984 33.67 7.07984C31.6469 6.51852 29.5736 6.15679 27.48 5.99984C25.8606 5.8761 24.2319 6.0214 22.66 6.42984C22.0814 6.5907 21.519 6.80496 20.98 7.06984C20.5832 7.27096 20.2022 7.50161 19.84 7.75984C19.614 7.92115 19.397 8.09474 19.19 8.27984L18.98 8.46984L19.19 8.26984C19.3898 8.07514 19.6001 7.89153 19.82 7.71984C20.1742 7.44545 20.5486 7.19809 20.94 6.97984C21.4764 6.68824 22.0389 6.4472 22.62 6.25984C23.3395 6.02486 24.0794 5.85747 24.83 5.75984C25.7085 5.64632 26.5944 5.59952 27.48 5.61984C29.6167 5.70121 31.7403 5.99262 33.82 6.48984C36.11 7.00984 38.54 7.73984 41.08 8.56984C42.35 8.98984 43.65 9.42984 44.98 9.87984C46.31 10.3298 47.66 10.7898 49.04 11.2098C49.73 11.4198 50.43 11.6198 51.13 11.7898C51.48 11.8698 51.84 11.9598 52.18 12.0198L52.72 12.1098L53.25 12.1798C54.6854 12.3934 56.1445 12.3934 57.58 12.1798C58.2729 12.0593 58.9459 11.844 59.58 11.5398C60.5054 11.1066 61.2656 10.3854 61.7469 9.48408C62.2282 8.58277 62.4047 7.54983 62.25 6.53984C62.1621 5.85165 61.9804 5.17873 61.71 4.53984C61.5756 4.19646 61.4186 3.86239 61.24 3.53984C61.0594 3.23136 60.8555 2.93717 60.63 2.65984C60.1888 2.07833 59.6256 1.60047 58.98 1.25984C58.663 1.10083 58.3269 0.983198 57.98 0.909841H57.7H57.44C57.2637 0.892652 57.0862 0.892652 56.91 0.909841C56.5664 0.946684 56.2343 1.05462 55.9348 1.22678C55.6352 1.39894 55.3748 1.63156 55.17 1.90984C54.7871 2.50137 54.6441 3.21656 54.77 3.90984C54.8238 4.25414 54.9212 4.59019 55.06 4.90984C55.1985 5.23737 55.3658 5.55194 55.56 5.84984C55.9492 6.44361 56.4055 6.99056 56.92 7.47984C57.04 7.59984 57.18 7.72984 57.32 7.84984L57.42 7.93984L57.52 8.01984L57.72 8.18984C57.99 8.41984 58.27 8.63984 58.54 8.85984C59.1 9.27984 59.66 9.68984 60.24 10.0598C60.82 10.4298 61.41 10.7598 62 11.0598L62.45 11.2798L62.9 11.4798L63.35 11.6698L63.8 11.8498L64.25 12.0198L64.7 12.1798L65.61 12.4398C66.2053 12.5947 66.8098 12.7116 67.42 12.7898C68.5776 12.9525 69.7523 12.9525 70.91 12.7898C71.958 12.6229 72.9714 12.285 73.91 11.7898C74.7655 11.3569 75.5242 10.7548 76.14 10.0198C76.6927 9.36683 77.0833 8.59246 77.28 7.75984C77.3659 7.39608 77.4096 7.02361 77.41 6.64984C77.4126 6.31437 77.3824 5.97945 77.32 5.64984C77.2119 5.06795 77.0269 4.503 76.77 3.96984C76.5775 3.57134 76.357 3.18703 76.11 2.81984C75.91 2.51984 75.74 2.29984 75.62 2.14984L75.48 1.92984V1.89984Z" fill="#C09068"/>
<path d="M76.6599 8.22989L76.4899 8.39989L76.2799 8.59989L75.9499 8.85989C75.8299 8.95989 75.6799 9.03989 75.5099 9.14989C75.4225 9.20154 75.3324 9.24828 75.2399 9.28989C75.1499 9.28989 75.0499 9.38989 74.9399 9.42989L74.6099 9.56989L74.2399 9.67989C74.1099 9.67989 73.9799 9.7399 73.8399 9.7699C73.6979 9.80114 73.5544 9.82451 73.4099 9.8399C72.7402 9.91525 72.0625 9.86781 71.4099 9.6999L71.1499 9.6299L70.8899 9.53989C70.7094 9.47609 70.5325 9.40265 70.3599 9.31989C70.0024 9.14276 69.6669 8.92463 69.3599 8.6699C69.0247 8.41005 68.7283 8.10361 68.4799 7.75989C68.2157 7.38445 68.0412 6.95338 67.9699 6.49989C67.9311 6.2639 67.9451 6.02225 68.0108 5.7923C68.0765 5.56234 68.1923 5.34979 68.3499 5.1699C68.5146 4.97883 68.741 4.85146 68.9899 4.8099C69.2476 4.77543 69.5098 4.80993 69.7499 4.90989C70.2458 5.12539 70.6742 5.47091 70.9899 5.90989C71.3198 6.34893 71.5516 6.85361 71.6699 7.38989C71.8077 7.94215 71.8416 8.51523 71.7699 9.07989C71.6927 9.66118 71.5025 10.2217 71.2099 10.7299C70.9072 11.2399 70.5219 11.6961 70.0699 12.0799C69.6184 12.4714 69.1215 12.8071 68.5899 13.0799C68.3299 13.2199 68.0499 13.3399 67.7799 13.4499L67.5699 13.5299H67.4599H67.3599L66.9399 13.6799C66.6599 13.7799 66.3699 13.8699 66.0799 13.9599C65.7899 14.0499 65.4999 14.1399 65.1999 14.2099L64.7599 14.3199L64.3099 14.4199L63.8599 14.5099L63.4799 14.5599C62.8608 14.653 62.2359 14.7031 61.6099 14.7099C60.974 14.7186 60.3386 14.6751 59.7099 14.5799C59.0744 14.4873 58.4462 14.3503 57.8299 14.1699C57.2099 13.9899 56.5999 13.7699 55.9999 13.5199C55.3999 13.2699 54.8099 12.9999 54.2299 12.7099C53.0599 12.1299 51.9299 11.4899 50.8199 10.8199L49.1599 9.81989L48.3399 9.29989L47.4799 8.75989L46.6699 8.24989L45.8699 7.74989C45.3299 7.41989 44.7899 7.09989 44.2499 6.74989C42.1377 5.54919 39.9181 4.54819 37.6199 3.75989C36.5274 3.37372 35.4076 3.06954 34.2699 2.84989C33.1996 2.64322 32.1092 2.55934 31.0199 2.59989C30.7599 2.59989 30.4999 2.5999 30.2499 2.6699L29.8699 2.72989L29.4799 2.75989C29.0052 2.86761 28.5452 3.03213 28.1099 3.24989L27.9499 3.32989L27.7999 3.4199L27.4999 3.60989C27.3103 3.74079 27.1299 3.88446 26.9599 4.03989C26.6272 4.33641 26.3317 4.6722 26.0799 5.03989L25.9099 5.3099L25.7499 5.59989C25.6977 5.69724 25.651 5.79739 25.6099 5.89989C25.5647 5.99775 25.5247 6.09789 25.4899 6.1999C25.341 6.59297 25.2403 7.00262 25.1899 7.4199C25.1416 7.8151 25.1416 8.21469 25.1899 8.60989C25.2379 9.00387 25.3353 9.39025 25.4799 9.75989C25.677 10.4171 26.0187 11.0219 26.4799 11.5299C26.8996 11.9415 27.4001 12.2616 27.9499 12.4699C28.4015 12.6355 28.8788 12.7201 29.3599 12.7199H29.6699H29.9499L30.4399 12.6399L30.8199 12.5399L31.0899 12.4499L31.3099 12.3699C31.3288 12.3692 31.3474 12.3744 31.3632 12.3849C31.379 12.3953 31.391 12.4105 31.3977 12.4282C31.4043 12.4459 31.4052 12.4653 31.4002 12.4835C31.3952 12.5018 31.3846 12.518 31.3699 12.5299L31.1499 12.6299L30.8799 12.7499L30.4899 12.8799L29.9899 13.0099H29.6899H29.5299H29.3599C28.8339 13.0476 28.3054 12.99 27.7999 12.8399C27.1607 12.6354 26.5738 12.2942 26.0799 11.8399C25.4963 11.3151 25.0383 10.6657 24.7399 9.93989C24.3962 9.11177 24.2556 8.21343 24.3299 7.31989C24.3695 6.83667 24.4668 6.35995 24.6199 5.89989C24.6199 5.77989 24.6999 5.66989 24.7499 5.54989C24.7939 5.43074 24.8439 5.31393 24.8999 5.1999L25.0699 4.84989L25.2699 4.49989C25.3399 4.37989 25.4099 4.27989 25.4699 4.17989L25.5699 4.02989L25.6199 3.9499L25.8799 3.63989L25.9499 3.5599L26.0199 3.4899L26.1699 3.34989C26.3673 3.15573 26.5778 2.97532 26.7999 2.8099L27.1499 2.57989L27.4799 2.45989L27.6699 2.35989C28.1645 2.09934 28.6881 1.89795 29.2299 1.75989L29.6499 1.65989L30.0799 1.57989C30.3699 1.51989 30.6599 1.49989 30.9499 1.46989C32.1332 1.39364 33.3215 1.45741 34.4899 1.65989C35.6934 1.86462 36.88 2.15877 38.0399 2.53989C40.4364 3.3514 42.7502 4.38942 44.9499 5.63989C45.5099 5.94989 46.0699 6.27989 46.6199 6.63989C47.1699 6.99989 47.7199 7.34989 48.2399 7.70989L49.8099 8.75989L51.3799 9.8799C52.3799 10.6199 53.4799 11.3499 54.5599 12.0199C55.0999 12.3499 55.6499 12.6699 56.2099 12.9499C56.767 13.2383 57.3415 13.4922 57.9299 13.7099C59.6732 14.3693 61.556 14.5724 63.3999 14.2999C63.9981 14.2151 64.5896 14.0881 65.1699 13.9199L65.5999 13.7899L66.0299 13.6499C66.3099 13.5499 66.5899 13.4499 66.8599 13.3399L67.2699 13.1699H67.3699H67.4699L67.6699 13.0799C67.9299 12.9599 68.1899 12.8299 68.4399 12.6799C68.9279 12.4012 69.3811 12.0656 69.7899 11.6799C70.1912 11.3186 70.5292 10.8927 70.7899 10.4199C71.2602 9.52205 71.3814 8.48179 71.1299 7.49989C71.0058 7.03902 70.8244 6.59555 70.5899 6.17989C70.4807 5.97247 70.3536 5.77505 70.2099 5.5899C70.0707 5.40638 69.9016 5.2475 69.7099 5.11989C69.5261 4.99085 69.3041 4.92744 69.0799 4.93989C68.9705 4.95138 68.8646 4.98474 68.7684 5.038C68.6722 5.09126 68.5877 5.16331 68.5199 5.24989C68.3803 5.41456 68.2843 5.61162 68.2406 5.82302C68.1969 6.03442 68.207 6.25339 68.2699 6.45989C68.3933 6.83813 68.606 7.18112 68.8899 7.45989C69.1563 7.73504 69.4552 7.97681 69.7799 8.17989C70.8475 8.89892 72.1132 9.26606 73.3999 9.22989C74.2401 9.19349 75.0623 8.97513 75.8099 8.5899L76.1599 8.40989L76.4099 8.25989L76.6099 8.13989C76.6231 8.12928 76.6401 8.12438 76.6569 8.12626C76.6738 8.12813 76.6893 8.13663 76.6999 8.14989C76.7105 8.16315 76.7154 8.18009 76.7135 8.19697C76.7116 8.21384 76.7031 8.22929 76.6899 8.2399L76.6599 8.22989Z" fill="#C09068"/>
<path d="M78.19 1.89992L77.99 2.09991C77.86 2.22991 77.67 2.43991 77.43 2.71991C77.1449 3.0693 76.8874 3.44043 76.66 3.82992C76.3466 4.36728 76.1109 4.94638 75.96 5.54992C75.8668 5.90999 75.8098 6.27849 75.79 6.64992C75.7645 7.06124 75.788 7.47415 75.86 7.87992C76.0223 8.80295 76.4029 9.67381 76.97 10.4199C77.6155 11.2608 78.4253 11.9617 79.35 12.4799C80.3686 13.0442 81.4735 13.4362 82.62 13.6399C83.8606 13.8649 85.1276 13.9053 86.38 13.7599C87.7152 13.6 89.0233 13.2637 90.27 12.7599C91.5812 12.2417 92.8265 11.5704 93.98 10.7599C94.5667 10.3466 95.1367 9.90325 95.69 9.42991C95.96 9.18991 96.24 8.94992 96.5 8.68992L96.7 8.49991L96.81 8.39992L96.91 8.29992C97.04 8.16992 97.16 8.04992 97.29 7.89992C97.8113 7.34468 98.2707 6.73443 98.66 6.07992C98.8575 5.74543 99.0248 5.39405 99.16 5.02991C99.3055 4.68601 99.4128 4.3272 99.48 3.95991C99.5457 3.55925 99.5457 3.15057 99.48 2.74991C99.398 2.34469 99.2347 1.96029 99 1.61992C98.7613 1.28071 98.4549 0.994685 98.1 0.779913C97.7438 0.569036 97.3497 0.429767 96.94 0.369916C96.737 0.353908 96.5331 0.353908 96.33 0.369916H96.02H95.73C95.3213 0.420597 94.919 0.514453 94.53 0.649915C93.7465 0.929136 93.0259 1.36078 92.41 1.91992C92.0986 2.19937 91.814 2.50738 91.56 2.83992C91.301 3.17142 91.0734 3.52628 90.88 3.89992C90.49 4.65559 90.2394 5.47535 90.14 6.31991C90.0319 7.17904 90.0862 8.05084 90.3 8.88991C90.5214 9.74532 90.9353 10.5388 91.51 11.2099C92.0545 11.8551 92.7248 12.3825 93.48 12.7599C94.2344 13.1137 95.0361 13.3562 95.86 13.4799C96.6539 13.602 97.4574 13.6489 98.26 13.6199C99.0405 13.5943 99.8186 13.5209 100.59 13.3999L101.17 13.2999L101.73 13.1899C102.12 13.1099 102.48 13.0099 102.84 12.9099C103.57 12.7099 104.28 12.4799 104.97 12.2499C106.36 11.7799 107.71 11.2499 109.02 10.7899C110.33 10.3299 111.62 9.78992 112.87 9.35991C115.37 8.44991 117.76 7.65992 120 7.07992C122.03 6.51731 124.11 6.15557 126.21 5.99991C127.829 5.87618 129.458 6.02148 131.03 6.42991C131.609 6.59078 132.171 6.80503 132.71 7.06991C133.107 7.27104 133.488 7.50169 133.85 7.75992C134.076 7.92123 134.293 8.09482 134.5 8.27991L134.71 8.46992L134.5 8.26992C134.3 8.07522 134.09 7.89161 133.87 7.71991C133.516 7.44547 133.141 7.1981 132.75 6.97992C132.214 6.68826 131.651 6.44722 131.07 6.25992C130.351 6.02494 129.611 5.85755 128.86 5.75992C127.975 5.64873 127.082 5.60527 126.19 5.62992C124.053 5.71129 121.93 6.00269 119.85 6.49991C117.56 7.01991 115.13 7.74992 112.59 8.57992C111.32 8.99992 110.02 9.43991 108.69 9.88991C107.36 10.3399 106.01 10.7999 104.63 11.2199C103.94 11.4299 103.24 11.6299 102.54 11.7999C102.19 11.8799 101.83 11.9699 101.49 12.0299L100.95 12.1199L100.42 12.1899C98.9846 12.4035 97.5255 12.4035 96.09 12.1899C95.3972 12.0694 94.7242 11.8541 94.09 11.5499C93.1647 11.1167 92.4044 10.3955 91.9231 9.49415C91.4418 8.59284 91.2653 7.55991 91.42 6.54992C91.5079 5.86173 91.6896 5.18881 91.96 4.54992C92.0944 4.20654 92.2514 3.87247 92.43 3.54992C92.6106 3.24144 92.8145 2.94725 93.04 2.66992C93.4895 2.10541 94.0558 1.64486 94.7 1.31991C95.017 1.1609 95.3531 1.04327 95.7 0.969915H95.98H96.24C96.4163 0.952725 96.5938 0.952725 96.77 0.969915C97.1136 1.00676 97.4457 1.11469 97.7452 1.28686C98.0448 1.45902 98.3053 1.69163 98.51 1.96991C98.8929 2.56144 99.0359 3.27664 98.91 3.96991C98.8563 4.31422 98.7588 4.65026 98.62 4.96991C98.4816 5.29745 98.3142 5.61202 98.12 5.90992C97.7308 6.5037 97.2745 7.05063 96.76 7.53991C96.64 7.65991 96.5 7.78992 96.36 7.90992L96.26 7.99991L96.16 8.07992L95.96 8.24991C95.69 8.47991 95.41 8.69992 95.14 8.91992C94.58 9.33992 94.02 9.74992 93.44 10.1199C92.86 10.4899 92.27 10.8199 91.68 11.1199L91.23 11.3399L90.78 11.5399L90.33 11.7299L89.88 11.9099L89.43 12.0799L88.98 12.2399L88.07 12.4999C87.4747 12.6548 86.8702 12.7717 86.26 12.8499C85.1024 13.0126 83.9277 13.0126 82.77 12.8499C81.7221 12.6829 80.7086 12.3451 79.77 11.8499C78.8865 11.4034 78.1063 10.7766 77.48 10.0099C76.9466 9.35491 76.5734 8.58449 76.39 7.75992C76.3041 7.39616 76.2605 7.02369 76.26 6.64992C76.2575 6.31445 76.2876 5.97953 76.35 5.64992C76.4581 5.06802 76.6431 4.50308 76.9 3.96991C77.0925 3.57141 77.313 3.18711 77.56 2.81991C77.76 2.51991 77.93 2.29992 78.05 2.14992L78.23 1.92991L78.19 1.89992Z" fill="#C09068"/>
<path d="M77.0101 8.22995L77.1801 8.39995L77.3901 8.59995L77.7201 8.85995C77.8401 8.95995 78.0001 9.03995 78.1601 9.14995C78.2474 9.2016 78.3375 9.24833 78.4301 9.28995C78.5201 9.28995 78.6201 9.38995 78.7301 9.42995L79.0601 9.56995L79.4301 9.67995C79.5601 9.67995 79.6901 9.73995 79.8301 9.76995C79.972 9.8012 80.1156 9.82457 80.2601 9.83995C80.9297 9.91531 81.6075 9.86786 82.2601 9.69995L82.5201 9.62995L82.7801 9.53995C82.9606 9.47615 83.1375 9.40271 83.3101 9.31995C83.6675 9.14282 84.0031 8.92469 84.3101 8.66995C84.6448 8.38119 84.9347 8.04415 85.1701 7.66995C85.4342 7.29451 85.6087 6.86344 85.6801 6.40995C85.7188 6.17396 85.7049 5.93231 85.6392 5.70235C85.5735 5.4724 85.4577 5.25984 85.3001 5.07995C85.1353 4.88888 84.9089 4.76151 84.6601 4.71995C84.4024 4.68548 84.1401 4.71999 83.9001 4.81995C83.4042 5.03544 82.9757 5.38096 82.6601 5.81995C82.3302 6.25898 82.0983 6.76367 81.9801 7.29995C81.8423 7.85221 81.8083 8.42529 81.8801 8.98995C81.9572 9.57124 82.1475 10.1318 82.4401 10.6399C82.7428 11.1499 83.128 11.6061 83.5801 11.99C84.0315 12.3814 84.5284 12.7172 85.0601 12.99C85.3201 13.13 85.6001 13.2499 85.8701 13.3599L86.0801 13.4399H86.1901H86.2901L86.7101 13.59C86.9901 13.69 87.2801 13.7799 87.5701 13.8699C87.8601 13.9599 88.1501 14.0499 88.4501 14.1199L88.8901 14.2299L89.3401 14.3299L89.7901 14.42L90.2501 14.4999C90.8692 14.5931 91.494 14.6432 92.1201 14.6499C92.7559 14.6586 93.3914 14.6152 94.0201 14.52C94.6556 14.4273 95.2838 14.2903 95.9001 14.1099C96.5201 13.9299 97.1301 13.7099 97.7301 13.4599C98.3301 13.2099 98.9201 12.9399 99.5001 12.6499C100.67 12.0699 101.8 11.4299 102.91 10.7599L104.57 9.75995L105.39 9.23995L106.2 8.71995L107.01 8.20995L107.81 7.70995C108.35 7.37995 108.89 7.05995 109.43 6.70995C111.541 5.52357 113.757 4.53599 116.05 3.75995C117.143 3.37377 118.262 3.06959 119.4 2.84995C120.47 2.64327 121.561 2.55939 122.65 2.59995C122.91 2.59995 123.17 2.59995 123.42 2.66995L123.8 2.72995L124.17 2.80995C124.645 2.91767 125.105 3.08219 125.54 3.29995L125.7 3.37995L125.85 3.46995L126.15 3.65995C126.34 3.79085 126.52 3.93452 126.69 4.08995C127.023 4.38647 127.318 4.72226 127.57 5.08995L127.74 5.35995L127.9 5.64995C127.952 5.74729 127.999 5.84745 128.04 5.94995C128.085 6.04783 128.125 6.14796 128.16 6.24995C128.309 6.64305 128.41 7.05269 128.46 7.46995C128.508 7.86515 128.508 8.26475 128.46 8.65995C128.421 9.03528 128.337 9.40457 128.21 9.75995C127.984 10.4102 127.615 11.0014 127.13 11.49C126.71 11.9016 126.21 12.2217 125.66 12.4299C125.208 12.5956 124.731 12.6802 124.25 12.6799H123.94H123.66L123.17 12.5999L122.79 12.4999L122.52 12.41L122.3 12.3299C122.281 12.3292 122.263 12.3344 122.247 12.3449C122.231 12.3554 122.219 12.3706 122.212 12.3883C122.206 12.406 122.205 12.4254 122.21 12.4436C122.215 12.4619 122.225 12.4781 122.24 12.49L122.46 12.59L122.73 12.7099L123.12 12.84L123.62 12.9699H123.92H124.08H124.25C124.776 13.0077 125.305 12.9501 125.81 12.7999C126.449 12.5955 127.036 12.2542 127.53 11.7999C128.114 11.2752 128.572 10.6258 128.87 9.89995C129.214 9.07182 129.354 8.17348 129.28 7.27995C129.24 6.79673 129.143 6.32 128.99 5.85995C128.99 5.73995 128.91 5.62995 128.86 5.50995C128.816 5.3908 128.766 5.27398 128.71 5.15995L128.54 4.80995L128.34 4.45995C128.27 4.33995 128.2 4.23995 128.14 4.13995L128.04 3.98995L127.99 3.90995L127.73 3.59995L127.66 3.51995L127.59 3.44995L127.44 3.30995C127.243 3.11579 127.032 2.93537 126.81 2.76995L126.46 2.53995L126.28 2.41995L126.09 2.31995C125.578 2.06948 125.037 1.88147 124.48 1.75995L124.06 1.65995L123.63 1.57995C123.34 1.51995 123.05 1.49995 122.76 1.46995C121.577 1.3936 120.388 1.45738 119.22 1.65995C118.017 1.86468 116.83 2.15882 115.67 2.53995C113.274 3.35145 110.96 4.38948 108.76 5.63995C108.2 5.94995 107.64 6.27995 107.09 6.63995C106.54 6.99995 105.99 7.34995 105.47 7.70995L103.86 8.75995L102.29 9.87995C101.29 10.62 100.19 11.35 99.1101 12.02C98.5701 12.35 98.0201 12.67 97.4601 12.95C96.9029 13.2384 96.3285 13.4922 95.7401 13.7099C93.9968 14.3694 92.1139 14.5725 90.2701 14.2999C89.6719 14.2152 89.0804 14.0882 88.5001 13.92L88.0701 13.7899L87.6401 13.6499C87.3601 13.5499 87.0801 13.45 86.8101 13.34L86.4001 13.17H86.3001H86.2001L86.0001 13.0799C85.7401 12.9599 85.4801 12.8299 85.2301 12.6799C84.742 12.4013 84.2889 12.0656 83.8801 11.6799C83.4788 11.3187 83.1408 10.8928 82.8801 10.42C82.4097 9.52211 82.2886 8.48185 82.5401 7.49995C82.6641 7.03907 82.8455 6.5956 83.0801 6.17995C83.1892 5.97253 83.3164 5.7751 83.4601 5.58995C83.5994 5.40656 83.7684 5.24771 83.9601 5.11995C84.1439 4.9909 84.3658 4.9275 84.5901 4.93995C84.6994 4.95143 84.8054 4.9848 84.9016 5.03806C84.9978 5.09131 85.0823 5.16337 85.1501 5.24995C85.2897 5.41461 85.3857 5.61168 85.4294 5.82307C85.473 6.03447 85.463 6.25345 85.4001 6.45995C85.277 6.83836 85.0643 7.18142 84.7801 7.45995C84.5137 7.73509 84.2148 7.97686 83.8901 8.17995C82.8225 8.89897 81.5567 9.26611 80.2701 9.22995C79.4299 9.19355 78.6076 8.97519 77.8601 8.58995L77.5101 8.40995L77.2601 8.25995L77.0601 8.13995C77.0535 8.13469 77.046 8.13079 77.0379 8.12845C77.0298 8.12611 77.0214 8.12538 77.013 8.12631C76.9961 8.12819 76.9807 8.13669 76.9701 8.14995C76.9595 8.16321 76.9546 8.18014 76.9564 8.19702C76.9583 8.2139 76.9668 8.22934 76.9801 8.23995L77.0101 8.22995Z" fill="#C09068"/>
<path d="M148.66 0.68H0.34C0.249827 0.68 0.163345 0.644184 0.0995827 0.580421C0.0358203 0.516659 0 0.430178 0 0.340004C0 0.24983 0.0358203 0.163349 0.0995827 0.0995865C0.163345 0.0358241 0.249827 0 0.34 0H148.66C148.75 0 148.837 0.0358241 148.9 0.0995865C148.964 0.163349 149 0.24983 149 0.340004C149 0.430178 148.964 0.516659 148.9 0.580421C148.837 0.644184 148.75 0.68 148.66 0.68Z" fill="#C09068"/>
</svg>
