<svg width="152" height="1031" viewBox="0 0 152 1031" fill="none" xmlns="http://www.w3.org/2000/svg">
<path d="M17.1621 1030.7C20.4419 1030.59 23.0102 1027.84 22.8985 1024.56C22.7869 1021.28 20.0375 1018.71 16.7577 1018.83C13.4779 1018.94 10.9097 1021.69 11.0213 1024.97C11.133 1028.25 13.8823 1030.81 17.1621 1030.7Z" fill="#C09068"/>
<path d="M16.3521 1013.3V154.752C16.3521 154.547 16.4331 154.352 16.5775 154.207C16.7219 154.063 16.9177 153.982 17.1219 153.982C17.326 153.982 17.5218 154.063 17.6662 154.207C17.8106 154.352 17.8917 154.547 17.8917 154.752V1013.3C17.8917 1013.5 17.8106 1013.7 17.6662 1013.84C17.5218 1013.99 17.326 1014.07 17.1219 1014.07C16.9177 1014.07 16.7219 1013.99 16.5775 1013.84C16.4331 1013.7 16.3521 1013.5 16.3521 1013.3Z" fill="#C09068"/>
<path d="M16.9774 146.043C16.9774 146.043 19.6718 142.05 22.6067 142.795C22.1969 142.3 21.6167 141.976 20.9801 141.887C20.3434 141.798 19.6966 141.95 19.1666 142.314C17.627 143.541 20.8987 141.352 17.0015 138.826C13.1043 141.232 16.5444 143.325 14.8364 142.314C14.3064 141.95 13.6596 141.798 13.0229 141.887C12.3863 141.976 11.806 142.3 11.3962 142.795C12.5198 142.845 13.6147 143.166 14.5868 143.732C15.5589 144.298 16.3792 145.091 16.9774 146.043Z" fill="#C09068"/>
<path d="M18.6855 142.795C19.4043 142.488 20.0342 142.004 20.5174 141.389C21.0006 140.775 21.3217 140.048 21.451 139.277C21.5803 138.506 21.5138 137.715 21.2576 136.976C21.0013 136.237 20.5636 135.575 19.9845 135.049C16.4241 131.176 16.8331 129.973 16.8331 129.973C16.8331 129.973 16.8331 131.777 13.8019 135.001C9.32735 139.668 15.3897 142.675 15.3897 142.675L18.6855 142.795Z" fill="#C09068"/>
<path d="M17.1218 152.057C18.5434 152.057 19.6958 150.905 19.6958 149.483C19.6958 148.062 18.5434 146.909 17.1218 146.909C15.7001 146.909 14.5477 148.062 14.5477 149.483C14.5477 150.905 15.7001 152.057 17.1218 152.057Z" fill="#C09068"/>
<path d="M41.9004 42.093L41.1546 42.6704C40.404 43.2054 39.5974 43.6572 38.749 44.0176C37.0166 44.735 35.1816 45.1735 33.3121 45.3167C32.3688 45.4229 31.4167 45.4229 30.4734 45.3167L29.6074 45.0039L28.9338 44.8355C28.4767 44.7152 28.0437 44.5468 27.5866 44.4025C24.0127 43.0199 21.0057 40.4787 19.0464 37.1854C18.0686 35.5798 17.3158 33.8476 16.8091 32.0372C16.3011 30.2539 15.9708 28.4247 15.8228 26.5763C15.6901 24.7424 15.6901 22.9012 15.8228 21.0673C15.8228 20.1531 15.9672 19.239 16.0874 18.3488V17.6753C16.0874 17.6753 16.0874 17.4588 16.0874 17.3144V16.3762H18.0601C18.9502 16.2559 19.8644 16.2078 20.7785 16.1116C22.6125 15.9788 24.4536 15.9788 26.2875 16.1116C28.1359 16.2595 29.9651 16.5899 31.7484 17.0979C33.5587 17.6046 35.291 18.3574 36.8966 19.3352C40.1898 21.2945 42.731 24.3015 44.1136 27.8754C44.282 28.3084 44.4264 28.7655 44.5467 29.2226C44.6669 29.6797 44.6669 29.6797 44.715 29.8962C44.7632 30.1127 44.715 30.3773 44.8594 30.5938C44.9656 31.5371 44.9656 32.4893 44.8594 33.4325C44.7162 35.3021 44.2777 37.1371 43.5603 38.8694C43.1997 39.7177 42.748 40.5244 42.2131 41.2751C42.1221 41.5526 42.0177 41.8256 41.9004 42.093ZM18.2044 18.397V18.83C18.0601 19.696 17.9879 20.5621 17.8917 21.4281C17.7426 23.1721 17.7024 24.9236 17.7714 26.6726C17.8505 30.1753 18.7485 33.6109 20.3936 36.7043C22.1112 39.7996 24.8238 42.224 28.0918 43.5846L29.3427 44.0417L29.9923 44.2341L30.6177 44.3785C31.4834 44.5263 32.3632 44.5748 33.2399 44.5228C35.0304 44.4183 36.7927 44.0285 38.4603 43.3681C39.3067 43.0431 40.1138 42.6234 40.8659 42.1171L41.5155 41.6119L42.0207 40.9624C42.527 40.2102 42.9466 39.4032 43.2716 38.5567C43.9321 36.8892 44.3219 35.1268 44.4264 33.3363C44.4785 32.4596 44.4301 31.5798 44.282 30.7141C44.282 30.4976 44.282 30.2811 44.1377 30.0886C43.9933 29.8962 44.0174 29.6556 43.9452 29.4391C43.8731 29.2226 43.6566 28.5971 43.4882 28.1881C42.1276 24.9202 39.7032 22.2075 36.6079 20.4899C33.5145 18.8449 30.0789 17.9468 26.5762 17.8677C24.8273 17.7988 23.0757 17.8389 21.3318 17.988C20.4658 17.988 19.5997 18.1564 18.7337 18.3007L18.2044 18.397ZM35.0442 35.2368C33.7769 35.6054 32.5636 36.1392 31.4357 36.8246C30.6794 37.2873 29.9559 37.8018 29.2706 38.3642L28.7413 38.7972L28.2602 39.2303L27.8031 39.6874L27.2017 40.1925C26.0326 41.529 25.001 42.9797 24.1224 44.5228C23.2124 46.0702 22.4086 47.6777 21.7167 49.3342C21.0187 50.9848 20.4084 52.6711 19.8884 54.3861C17.8692 61.2667 17.2877 68.4893 18.1804 75.6044C18.3969 77.3605 18.6856 79.1407 19.0705 80.8728C19.4554 82.6049 19.8884 84.337 20.4176 86.0451C21.4374 89.3918 22.8167 92.6182 24.5314 95.6678C25.3969 97.1888 26.3612 98.6514 27.4182 100.046C28.4724 101.431 29.6305 102.734 30.8824 103.943C33.3448 106.353 36.2322 108.286 39.3985 109.645C42.4967 110.985 45.869 111.571 49.2377 111.353C50.9079 111.254 52.5425 110.829 54.0491 110.102C55.4686 109.467 56.5828 108.301 57.1524 106.854C57.3835 106.148 57.4331 105.395 57.2967 104.665C57.1514 103.917 56.8745 103.2 56.4788 102.548C55.6563 101.226 54.5959 100.068 53.3514 99.132C50.7988 97.3283 47.9116 96.0524 44.8594 95.3792C41.8689 94.6767 38.813 94.2896 35.7419 94.2244C32.7572 94.1452 29.7712 94.3222 26.8168 94.7537C21.1851 95.5119 15.7345 97.2717 10.7227 99.95C8.38579 101.185 6.27828 102.813 4.49204 104.761C3.65822 105.706 2.95436 106.758 2.39911 107.889C1.86643 108.989 1.50927 110.166 1.3406 111.377C1.04483 113.719 1.42024 116.096 2.42315 118.233C3.3571 120.272 4.71914 122.085 6.41659 123.55C7.20129 124.241 8.07513 124.823 9.01473 125.282C9.928 125.714 10.8888 126.037 11.8775 126.244C13.7686 126.609 15.7119 126.609 17.603 126.244C19.3182 125.968 20.9569 125.337 22.4144 124.392C23.6087 123.642 24.5572 122.559 25.143 121.277C25.7287 119.994 25.9259 118.568 25.7102 117.175C25.5495 115.96 25.1662 114.786 24.5795 113.711C24.1014 112.831 23.4262 112.073 22.6068 111.497C21.8827 111.013 21.0617 110.693 20.2011 110.559C19.0708 110.295 17.8832 110.449 16.8572 110.992C16.6269 111.124 16.4359 111.315 16.3039 111.545C16.2982 111.601 16.2982 111.658 16.3039 111.714C16.2853 111.779 16.2458 111.837 16.1916 111.878C16.1373 111.919 16.0712 111.941 16.0032 111.941C15.9353 111.941 15.8691 111.919 15.8149 111.878C15.7606 111.837 15.7212 111.779 15.7025 111.714C15.6882 111.602 15.6882 111.489 15.7025 111.377C15.7892 110.964 15.9989 110.586 16.3039 110.294C16.8656 109.801 17.523 109.429 18.2349 109.202C18.9469 108.974 19.6981 108.896 20.4417 108.971C21.5376 109.042 22.6011 109.372 23.545 109.934C24.6785 110.622 25.6149 111.592 26.2635 112.748C26.9751 114.038 27.4401 115.45 27.6347 116.91C27.7321 117.709 27.7321 118.517 27.6347 119.316C27.431 121.106 26.6741 122.788 25.4696 124.127C24.8303 124.844 24.0933 125.468 23.2804 125.98C21.574 127.025 19.662 127.69 17.6752 127.928C15.5625 128.213 13.4148 128.09 11.3482 127.567C10.2544 127.291 9.19667 126.887 8.19681 126.364C7.23826 125.816 6.34968 125.154 5.55054 124.392C3.77187 122.767 2.34695 120.794 1.36464 118.594C0.856975 117.44 0.493391 116.228 0.282094 114.986C-0.170465 112.369 0.208117 109.677 1.36464 107.287C1.95935 106.071 2.7116 104.939 3.60195 103.919C5.45756 101.852 7.65463 100.119 10.0973 98.7952C15.2105 95.9696 20.7939 94.0949 26.5762 93.2621C29.6093 92.8077 32.6758 92.6145 35.7419 92.6848C38.9141 92.7494 42.0692 93.169 45.1481 93.9357C46.7273 94.3317 48.272 94.8546 49.767 95.4994C51.3052 96.1523 52.7526 97.0014 54.0731 98.0254C54.7401 98.5563 55.3599 99.1438 55.9255 99.7816C56.5053 100.422 57.0135 101.124 57.4411 101.875C57.8812 102.618 58.1904 103.432 58.3553 104.28C58.5131 105.19 58.4386 106.125 58.1388 106.999C57.8239 107.858 57.3132 108.632 56.6472 109.26C56.0025 109.878 55.2635 110.39 54.4581 110.776C52.8696 111.512 51.1546 111.936 49.4061 112.027C47.6668 112.13 45.9213 112.017 44.2099 111.69L42.9348 111.425L41.6839 111.088C40.8419 110.848 40.024 110.511 39.2782 110.198C36.0311 108.801 33.058 106.838 30.4974 104.401C29.1987 103.176 27.9926 101.858 26.8889 100.455C25.7745 99.0483 24.7539 97.5696 23.8337 96.0287C22.9005 94.4704 22.0493 92.8644 21.2837 91.2173C20.5379 89.5814 19.8643 87.8975 19.2629 86.1654C18.6615 84.4333 18.0601 82.9177 17.579 81.0893C17.0978 79.261 16.761 77.5289 16.4483 75.7006C15.8655 72.0345 15.68 68.3162 15.895 64.6103C16.1041 60.8672 16.75 57.1614 17.8195 53.5682C18.8409 49.9722 20.3807 46.5442 22.3903 43.3921C23.4314 41.7992 24.6412 40.3232 25.9988 38.9897L26.5281 38.5086L27.0814 38.0274L27.6588 37.5703L28.2121 37.1614C28.9794 36.6177 29.7832 36.1274 30.6177 35.6939C31.6984 35.1341 32.8355 34.6906 34.0098 34.3708C34.3294 33.1964 34.7729 32.0593 35.3329 30.9787C35.7663 30.1442 36.2567 29.3404 36.8004 28.573L37.2093 28.0197L37.6664 27.4424L38.1475 26.8891L38.6287 26.3598C39.9621 25.0022 41.4381 23.7923 43.0311 22.7513C46.2073 20.6995 49.6686 19.1269 53.3033 18.0842C56.8965 17.0147 60.6023 16.3688 64.3454 16.1597C68.0513 15.9447 71.7695 16.1302 75.4356 16.713C77.2639 17.0257 79.0441 17.3625 80.8243 17.8437C82.6045 18.3248 84.3366 18.8059 86.0687 19.4074C87.8008 20.0088 89.4607 20.6824 91.1207 21.4281C92.7679 22.1936 94.3738 23.0448 95.932 23.9782C97.473 24.8983 98.9516 25.919 100.358 27.0334C101.761 28.137 103.08 29.3432 104.304 30.6419C106.741 33.2029 108.704 36.1759 110.101 39.4227C110.414 40.2407 110.751 41.0345 110.992 41.8284C111.136 42.2614 111.232 42.6704 111.328 43.0794C111.425 43.4883 111.521 43.9214 111.593 44.3544C111.92 46.0658 112.034 47.8113 111.93 49.5507C111.84 51.2992 111.415 53.0142 110.679 54.6026C110.293 55.4081 109.781 56.1471 109.163 56.7918C108.536 57.4578 107.761 57.9685 106.902 58.2834C106.028 58.5832 105.093 58.6577 104.184 58.4999C103.335 58.335 102.522 58.0258 101.778 57.5857C101.027 57.1581 100.325 56.6499 99.6849 56.0701C99.0472 55.5044 98.4596 54.8846 97.9287 54.2177C96.9047 52.8972 96.0557 51.4498 95.4028 49.9115C94.7579 48.4166 94.2349 46.8719 93.8391 45.2926C93.0723 42.2137 92.6527 39.0586 92.5881 35.8864C92.5177 32.8202 92.7109 29.7537 93.1655 26.7207C93.9982 20.9383 95.8729 15.3549 98.6985 10.2417C100.022 7.79901 101.755 5.60191 103.823 3.74629C104.842 2.85594 105.975 2.10371 107.191 1.509C109.58 0.352465 112.273 -0.0261179 114.889 0.426443C116.132 0.637741 117.343 1.00133 118.497 1.509C120.697 2.49131 122.67 3.91623 124.295 5.69491C125.079 6.55227 125.75 7.50623 126.292 8.53363C126.814 9.53349 127.218 10.5912 127.495 11.6851C128.018 13.7517 128.14 15.8994 127.855 18.0121C127.617 19.9989 126.952 21.9109 125.907 23.6173C125.395 24.4303 124.771 25.1672 124.054 25.8065C122.715 27.0111 121.033 27.7679 119.243 27.9716C118.444 28.0691 117.636 28.0691 116.837 27.9716C115.377 27.777 113.966 27.312 112.676 26.6004C111.519 25.9518 110.549 25.0154 109.861 23.8819C109.3 22.938 108.97 21.8745 108.899 20.7786C108.823 20.035 108.901 19.2838 109.129 18.5718C109.357 17.8599 109.729 17.2025 110.222 16.6408C110.514 16.3357 110.891 16.1261 111.304 16.0394H111.713C111.779 16.0581 111.836 16.0975 111.877 16.1518C111.918 16.206 111.94 16.2721 111.94 16.3401C111.94 16.4081 111.918 16.4742 111.877 16.5284C111.836 16.5827 111.779 16.6221 111.713 16.6408H111.545C111.314 16.7727 111.123 16.9637 110.992 17.1941C110.449 18.22 110.295 19.4077 110.559 20.538C110.693 21.3986 111.013 22.2196 111.497 22.9437C112.072 23.7637 112.83 24.439 113.71 24.9164C114.785 25.5031 115.96 25.8864 117.174 26.0471C118.568 26.2628 119.994 26.0656 121.276 25.4799C122.559 24.8942 123.642 23.9456 124.391 22.7513C125.337 21.2938 125.968 19.6551 126.244 17.9399C126.608 16.0488 126.608 14.1055 126.244 12.2143C126.036 11.2257 125.713 10.2648 125.281 9.35156C124.805 8.32036 124.181 7.36408 123.429 6.51284C121.964 4.81538 120.151 3.45335 118.112 2.51939C115.976 1.51648 113.598 1.14106 111.256 1.43683C110.045 1.60511 108.868 1.9623 107.768 2.49534C106.637 3.0506 105.585 3.75447 104.641 4.58829C102.692 6.37455 101.065 8.48207 99.8292 10.819C97.1204 15.8408 95.3359 21.3084 94.5608 26.9612C94.1293 29.9157 93.9523 32.9016 94.0315 35.8864C94.0967 38.9575 94.4838 42.0134 95.1862 45.0039C95.8595 48.0562 97.1354 50.9433 98.9391 53.496C99.8745 54.7409 101.033 55.8013 102.355 56.6234C103.007 57.0191 103.724 57.296 104.472 57.4414C105.202 57.5777 105.955 57.5281 106.661 57.297C108.108 56.7274 109.274 55.6132 109.909 54.1937C110.636 52.6871 111.061 51.0524 111.16 49.3823C111.378 46.0135 110.792 42.6412 109.452 39.543C108.093 36.3767 106.16 33.4893 103.75 31.0269C102.541 29.7749 101.238 28.6168 99.8533 27.5627C98.4586 26.5056 96.996 25.5412 95.4749 24.6758C92.4252 22.9613 89.1988 21.5821 85.8522 20.5621C84.1682 20.0328 82.4361 19.5998 80.68 19.2149C78.9238 18.83 77.1677 18.5413 75.4115 18.3248C68.2965 17.4322 61.074 18.0136 54.1934 20.0328C52.4784 20.5528 50.7921 21.1631 49.1415 21.8612C47.485 22.5531 45.8775 23.3568 44.3301 24.2669C42.7871 25.1454 41.3364 26.177 39.9999 27.3461L39.5188 27.8032L39.0617 28.2603L38.6287 28.7414L38.1957 29.2707C37.6332 29.9561 37.1187 30.6795 36.656 31.4358C35.9358 32.5975 35.3773 33.852 34.9961 35.1646L35.0442 35.2368Z" fill="#C09068"/>
<path d="M19.5035 53.472V53.6885C19.5035 53.8328 19.5035 54.0493 19.5035 54.2899C19.425 55.0899 19.425 55.8956 19.5035 56.6956C19.5788 57.8968 19.764 59.0886 20.0568 60.256C20.4352 61.7846 20.9755 63.2685 21.6686 64.6825C22.4794 66.3628 23.5154 67.9248 24.7478 69.3255C26.108 70.8926 27.7901 72.1481 29.6795 73.0062C31.7219 73.8801 33.9302 74.2988 36.1508 74.2331C38.4456 74.2126 40.6975 73.6082 42.6942 72.477C43.6695 71.8967 44.5264 71.1377 45.2202 70.2397C45.8491 69.3063 46.2677 68.2474 46.4471 67.1363C46.8494 64.9811 46.6067 62.7551 45.7495 60.7372C45.3956 59.7861 44.8742 58.9061 44.2098 58.139C43.5572 57.4125 42.7288 56.8657 41.8042 56.5513C40.9729 56.252 40.0846 56.1451 39.206 56.2385C38.3686 56.324 37.5536 56.5604 36.8003 56.9362C35.4946 57.5724 34.443 58.6325 33.8173 59.9433C33.3629 60.9382 33.2611 62.0583 33.5286 63.1188C33.7162 63.8278 34.0167 64.502 34.4187 65.1155L34.7555 65.6207L34.8758 65.7891C34.9179 65.8574 34.9342 65.9385 34.9218 66.0178C34.9094 66.0971 34.8692 66.1693 34.8082 66.2215C34.7473 66.2738 34.6698 66.3025 34.5895 66.3026C34.5093 66.3027 34.4316 66.2742 34.3706 66.2222L34.2022 66.0778L33.7451 65.5967C33.1719 64.9598 32.7304 64.2158 32.446 63.4075C32.236 62.8126 32.1302 62.186 32.1333 61.5551C32.1409 60.8025 32.2962 60.0587 32.5904 59.3659C32.925 58.5967 33.3979 57.8955 33.9857 57.297C34.6289 56.6471 35.3771 56.1103 36.1989 55.7093C37.0939 55.2647 38.0655 54.9952 39.0616 54.9154C40.1511 54.8114 41.2494 54.9764 42.2603 55.3958C43.2711 55.8152 44.1636 56.4763 44.8593 57.3211C45.5724 58.2099 46.1185 59.2206 46.4711 60.3041C46.8415 61.3868 47.0837 62.5091 47.1929 63.6481C47.3028 64.8254 47.2133 66.0128 46.9282 67.1604C46.6257 68.3251 46.0851 69.4146 45.3405 70.3599C44.5926 71.3247 43.6706 72.1407 42.6221 72.7656C40.545 73.9438 38.2019 74.573 35.814 74.594C33.5106 74.6626 31.2199 74.2274 29.1021 73.3189C27.1439 72.4287 25.391 71.1427 23.954 69.542C22.6641 68.0935 21.5794 66.4745 20.7304 64.7306C20.0064 63.2834 19.4263 61.7685 18.9983 60.2079C18.6687 58.9955 18.4513 57.7554 18.3488 56.5031C18.2802 55.7027 18.2802 54.8979 18.3488 54.0975C18.3488 53.8088 18.3488 53.5923 18.3488 53.472V53.2555C18.3824 53.1544 18.4502 53.0683 18.5406 53.012C18.6309 52.9557 18.7381 52.9327 18.8436 52.9469C18.9491 52.9612 19.0463 53.0118 19.1185 53.0901C19.1906 53.1684 19.2332 53.2694 19.2388 53.3757L19.5035 53.472Z" fill="#C09068"/>
<path d="M53.3033 19.672H54.1213C54.9212 19.5936 55.727 19.5936 56.5269 19.672C57.7281 19.7474 58.9199 19.9326 60.0873 20.2253C61.6159 20.6039 63.0997 21.1442 64.5138 21.8371C66.1939 22.6482 67.7559 23.6842 69.1568 24.9164C70.7239 26.2766 71.9793 27.9587 72.8374 29.8481C73.7114 31.8905 74.13 34.0988 74.0643 36.3194C73.9632 38.5345 73.3188 40.6908 72.1879 42.5982C71.6077 43.5735 70.8486 44.4304 69.9506 45.1242C69.0624 45.8088 68.0366 46.293 66.9435 46.5436C64.7883 46.9459 62.5623 46.7032 60.5444 45.8459C59.5933 45.4921 58.7134 44.9706 57.9463 44.3063C57.2197 43.6536 56.673 42.8252 56.3585 41.9006C56.092 41.1201 55.9936 40.2921 56.0699 39.4708C56.1554 38.6334 56.3917 37.8184 56.7675 37.0652C57.4037 35.7594 58.4638 34.7078 59.7746 34.0821C60.7695 33.6277 61.8896 33.5259 62.9501 33.7934C63.6676 33.9782 64.3502 34.2788 64.9709 34.6835L65.4761 35.0203L65.6445 35.1406C65.7128 35.1827 65.7939 35.199 65.8731 35.1866C65.9524 35.1743 66.0247 35.134 66.0769 35.0731C66.1291 35.0121 66.1578 34.9346 66.158 34.8543C66.1581 34.7741 66.1295 34.6965 66.0775 34.6354L65.9332 34.467L65.452 34.0099C64.8151 33.4367 64.0711 32.9952 63.2629 32.7108C62.668 32.5008 62.0413 32.395 61.4105 32.3981C60.6579 32.4057 59.9141 32.561 59.2213 32.8552C58.4521 33.1898 57.7509 33.6627 57.1524 34.2505C56.5025 34.8937 55.9657 35.642 55.5646 36.4637C55.12 37.3587 54.8506 38.3304 54.7708 39.3265C54.6668 40.416 54.8318 41.5143 55.2512 42.5251C55.6706 43.536 56.3317 44.4284 57.1765 45.1242C58.0653 45.8373 59.0759 46.3834 60.1595 46.736C61.2421 47.1064 62.3644 47.3486 63.5034 47.4577C64.6807 47.5677 65.8682 47.4782 67.0157 47.1931C68.1805 46.8906 69.2699 46.35 70.2153 45.6054C71.18 44.8575 71.996 43.9354 72.6209 42.8869C73.7951 40.8169 74.4242 38.4826 74.4493 36.1029C74.5179 33.7994 74.0827 31.5088 73.1742 29.391C72.284 27.4327 70.998 25.6799 69.3973 24.2428C67.9488 22.9529 66.3298 21.8682 64.586 21.0192C63.1387 20.2952 61.6239 19.7151 60.0633 19.2871C58.8509 18.9576 57.6107 18.7402 56.3585 18.6375C55.5581 18.569 54.7533 18.569 53.9528 18.6375H53.1109C53.0099 18.6712 52.9238 18.739 52.8674 18.8294C52.8111 18.9197 52.7881 19.0269 52.8023 19.1324C52.8166 19.2379 52.8672 19.3351 52.9455 19.4073C53.0238 19.4795 53.1248 19.522 53.2312 19.5276L53.3033 19.672Z" fill="#C09068"/>
<path d="M11.4926 11.661L11.1317 12.5752C10.3111 14.7679 9.69109 17.0305 9.27934 19.3352C9.08099 20.4805 8.9604 21.6378 8.91847 22.7994C8.91847 23.0881 8.91847 23.3768 8.91847 23.6654C8.91847 23.9541 8.91847 23.9782 8.91847 24.0985V24.5315C8.91847 25.1089 8.91847 25.6862 8.91847 26.2876C9.12128 28.568 9.60613 30.8144 10.3619 32.9755C11.0889 35.1456 12.2148 37.1608 13.6817 38.9175C14.3868 39.8107 15.1942 40.6181 16.0874 41.3232C16.5393 41.6526 17.0135 41.95 17.5068 42.2133L18.2525 42.5742L18.9742 42.8388L20.153 43.2237L19.2629 44.0417C18.878 44.4025 18.469 44.8355 18.1082 45.2445C17.7473 45.6535 17.3624 46.1106 17.0016 46.5676C15.5896 48.401 14.3722 50.3763 13.369 52.4616C12.865 53.5041 12.4153 54.5721 12.0218 55.6612C11.6129 56.7437 11.276 57.8503 10.9874 58.981C10.843 59.5343 10.6987 60.1117 10.5784 60.665L10.41 61.507L10.2657 62.373C10.0732 63.5278 9.95291 64.7787 9.85668 65.8372C9.85668 66.4146 9.85668 66.992 9.85668 67.5693C9.85668 68.1467 9.85668 68.7241 9.85668 69.3014C9.85668 69.8788 9.85668 70.4562 9.85668 71.0335C9.85668 71.6109 9.85669 72.1883 9.97697 72.7656C10.0973 73.343 10.1213 73.9204 10.1694 74.5218V75.3878L10.3138 76.2539C10.3138 76.8313 10.4822 77.4086 10.6025 77.986L10.9393 79.7181C10.9393 80.2955 11.1798 80.8728 11.3001 81.4261C11.4204 81.9794 11.5407 82.5809 11.7091 83.1342C11.8775 83.6875 11.9978 84.2648 12.1421 84.8422L12.6232 86.5262L13.1525 88.1861L13.7298 89.8461C14.1388 90.9286 14.5719 92.0352 15.077 93.0697C15.5546 94.1275 16.1094 95.1486 16.7369 96.1249C16.7606 96.1907 16.7616 96.2624 16.7397 96.3288C16.7178 96.3952 16.6743 96.4523 16.6162 96.491C16.558 96.5298 16.4886 96.548 16.4189 96.5427C16.3492 96.5373 16.2834 96.5088 16.2318 96.4617C15.5622 95.4729 14.9671 94.4356 14.4515 93.3584C13.9223 92.2999 13.4652 91.1932 13.0322 90.0866L12.4067 88.4267L11.8294 86.7427L11.3242 85.0347C11.1558 84.4573 11.0114 83.904 10.8671 83.3266C10.7228 82.7493 10.5784 82.1719 10.4341 81.5945C10.2897 81.0172 10.1454 80.4398 10.0491 79.8624L9.6883 78.1303C9.6883 77.553 9.47178 76.9756 9.37555 76.3742L9.23122 75.5081C9.23122 75.3638 9.23122 75.2194 9.23122 75.051V74.618C9.23122 74.0406 9.06283 73.4633 9.01472 72.8619C8.9666 72.2604 8.89441 71.659 8.8463 71.0816C8.79819 70.5043 8.8463 69.9029 8.8463 69.3014C8.8463 68.7 8.8463 68.0986 8.8463 67.5212C8.8463 66.9439 8.8463 66.3184 8.8463 65.741C8.8463 64.5622 9.03876 63.3353 9.23122 62.1806L9.37555 61.2905L9.54397 60.4004C9.54397 59.823 9.8086 59.2216 9.92889 58.6442C10.2176 57.4895 10.5543 56.2385 10.9633 55.2041C11.3552 54.0751 11.8048 52.967 12.3105 51.8842C13.3198 49.7013 14.5533 47.6293 15.9912 45.7016C16.352 45.2204 16.7369 44.7393 17.1219 44.2822C17.524 43.8121 17.9496 43.3625 18.3969 42.935L18.6856 44.1619C18.3652 44.0625 18.0518 43.9419 17.7474 43.8011L16.9053 43.3681C16.3615 43.0677 15.839 42.7301 15.3417 42.3577C14.3946 41.6386 13.5312 40.8155 12.7676 39.9039C11.2134 37.9997 10.0302 35.821 9.27934 33.4807C8.52496 31.1421 8.07225 28.7168 7.93217 26.2636C7.93217 25.6622 7.93217 25.0607 7.93217 24.4593V24.0022C7.93217 23.8338 7.93217 23.6895 7.93217 23.5452C7.93217 23.4008 7.93217 22.9437 7.93217 22.631C7.99476 21.4197 8.13941 20.2141 8.36517 19.0225C8.82072 16.6654 9.48903 14.3545 10.3619 12.1181L10.8911 10.795L12.2143 10.2657C14.4506 9.39274 16.7615 8.72442 19.1186 8.269C20.3103 8.04332 21.5159 7.89864 22.7271 7.83598H26.3356C28.7888 7.97606 31.2141 8.42878 33.5527 9.18317C35.893 9.93407 38.0717 11.1173 39.9758 12.6714C40.928 13.467 41.7839 14.3713 42.5258 15.3658C42.8982 15.8632 43.2358 16.3856 43.5362 16.9295C43.6806 17.1941 43.8249 17.4828 43.9693 17.7715C44.1101 18.0759 44.2307 18.3894 44.3301 18.7097L42.8386 18.5413C43.2659 18.0939 43.7155 17.6683 44.1858 17.2663C44.6429 16.8814 45.124 16.4965 45.6051 16.1356C47.5328 14.6977 49.6049 13.4642 51.7877 12.4549C52.8706 11.9493 53.9786 11.4997 55.1076 11.1077C56.2383 10.6988 57.393 10.362 58.5477 10.0733C59.1251 9.95299 59.7024 9.78459 60.3038 9.68836L61.194 9.51996L62.0841 9.37562C63.2628 9.18316 64.4897 9.08694 65.6444 8.99071C66.2459 8.99071 66.8473 8.99071 67.4247 8.99071H70.9851L72.7653 9.15911C73.3667 9.15911 73.9441 9.30345 74.5214 9.37562H75.4115L76.2776 9.51996L78.0337 9.83271L79.7658 10.1936L81.4979 10.5785L83.23 11.0115L84.938 11.4686L86.6461 11.9738L88.33 12.5511L89.99 13.1766C91.0966 13.6096 92.1791 14.0667 93.2617 14.596C94.3471 15.1105 95.3925 15.7055 96.3891 16.3762C96.4362 16.4278 96.4647 16.4937 96.47 16.5633C96.4753 16.633 96.4571 16.7025 96.4184 16.7606C96.3796 16.8187 96.3225 16.8622 96.2561 16.8841C96.1898 16.906 96.118 16.905 96.0523 16.8814C95.0759 16.2539 94.0548 15.6991 92.9971 15.2215C91.9386 14.7163 90.856 14.2832 89.7734 13.8743L88.1135 13.2969L86.4536 12.7676L84.7696 12.2865L83.0616 11.8535L81.3535 11.4445L79.6455 11.0837L77.9134 10.7469L76.1813 10.4582L74.4492 10.1936C73.8719 10.1936 73.2705 10.0252 72.6931 10.0011L70.961 9.88082H67.4968C66.9195 9.88082 66.3421 9.88082 65.7647 9.88082C64.61 9.88082 63.3591 10.0973 62.3006 10.2898L61.4345 10.4341L60.5925 10.6025C60.0152 10.6025 59.4618 10.8672 58.9085 11.0115C57.8019 11.3242 56.6713 11.637 55.5887 12.0459C54.4997 12.4397 53.4318 12.8894 52.3892 13.3931C50.2743 14.4846 48.2823 15.7992 46.4471 17.3144C45.99 17.6753 45.557 18.0361 45.124 18.421C44.691 18.8059 44.2579 19.1908 43.9211 19.5758L43.1032 20.4659L42.7183 19.2871C42.6444 19.0415 42.556 18.8005 42.4537 18.5654C42.4537 18.3248 42.2131 18.0602 42.0928 17.8196C41.8295 17.3264 41.5321 16.8521 41.2028 16.4002C40.4977 15.5071 39.6903 14.6996 38.7971 13.9946C37.0404 12.5276 35.0251 11.4017 32.855 10.6747C30.6522 9.93371 28.3649 9.473 26.0469 9.30345H22.5587C21.3972 9.34546 20.2398 9.46602 19.0945 9.66431C16.7898 10.0761 14.5272 10.6961 12.3346 11.5167L11.4926 11.661Z" fill="#C09068"/>
<path d="M17.5789 17.7474C17.4284 18.333 17.3159 18.9276 17.2421 19.5276C17.2421 19.7923 17.2421 20.0328 17.2421 20.1772V20.3937C17.2421 20.4543 17.2181 20.5124 17.1752 20.5553C17.1323 20.5982 17.0742 20.6222 17.0136 20.6222C16.953 20.6222 16.8949 20.5982 16.852 20.5553C16.8092 20.5124 16.7851 20.4543 16.7851 20.3937V20.1772C16.7851 20.0328 16.7851 19.8163 16.7851 19.5276C16.8507 18.7979 16.9713 18.0741 17.1459 17.3625C17.8574 17.1875 18.5812 17.0668 19.311 17.0017H20.1771C20.2377 17.0017 20.2958 17.0257 20.3387 17.0686C20.3815 17.1115 20.4056 17.1696 20.4056 17.2302C20.4056 17.2908 20.3815 17.349 20.3387 17.3918C20.2958 17.4347 20.2377 17.4587 20.1771 17.4587H19.3351C18.7442 17.5177 18.1576 17.6141 17.5789 17.7474Z" fill="#C09068"/>
<path d="M24.3149 24.4834C24.4933 25.4535 24.8092 26.3931 25.2531 27.274C25.7419 28.2216 26.4414 29.0446 27.2979 29.6797C27.5969 29.919 27.9292 30.1135 28.2842 30.257C27.9166 30.1401 27.568 29.9699 27.2498 29.7518C26.3195 29.1438 25.5515 28.3181 25.0125 27.3461C24.4049 26.2608 23.9821 25.082 23.7616 23.8579C24.9857 24.0785 26.1645 24.5012 27.2498 25.1089C28.2217 25.6479 29.0475 26.4158 29.6555 27.3461C29.8732 27.6646 30.0434 28.0131 30.1606 28.3806C30.0171 28.0255 29.8226 27.6933 29.5833 27.3943C28.9482 26.5378 28.1252 25.8382 27.1776 25.3494C26.2702 24.9239 25.306 24.6322 24.3149 24.4834Z" fill="#C09068"/>
<path d="M27.2017 87.8493L27.0092 87.4404C26.8889 87.1757 26.6965 86.7908 26.48 86.2856C26.2635 85.7804 25.9988 85.179 25.7342 84.4573C25.4696 83.7356 25.1809 82.9417 24.8922 82.0516C24.6035 81.1615 24.3149 80.1752 24.0743 79.1167C23.8337 78.0582 23.5691 76.9516 23.3767 75.7968C23.3767 75.2195 23.1842 74.618 23.112 74.0166C23.0399 73.4152 22.9677 72.7897 22.8955 72.1883C22.8234 71.5868 22.8955 70.9373 22.7752 70.3118C22.6549 69.6863 22.7752 69.0609 22.7752 68.4113C22.7752 67.7618 22.7752 67.1363 22.7752 66.5108V64.6344C22.8846 63.4147 23.0613 62.202 23.3045 61.0018C23.3045 60.4244 23.5691 59.8471 23.6894 59.2937C23.8097 58.7404 24.0021 58.2112 24.1465 57.6819C24.4506 56.7072 24.8121 55.7513 25.229 54.8192C25.5899 53.9291 26.0229 53.1833 26.3597 52.4135C26.6965 51.6437 27.1055 51.1866 27.3941 50.7295L28.4045 49.3342L27.6347 50.8738L26.8408 52.654L26.4078 53.7847C26.2394 54.1696 26.1191 54.6026 25.9748 55.0357C25.8305 55.4687 25.662 55.9258 25.5418 56.4069C25.4215 56.8881 25.2531 57.3692 25.1328 57.8985C24.8922 58.9329 24.6757 60.0155 24.4832 61.1461C24.2908 62.2768 24.1946 63.5518 24.0984 64.6584V66.6552C24.0984 67.2566 24.0984 67.8821 24.0984 68.4835C24.0984 69.0849 24.0984 69.7104 24.0984 70.3118C24.0984 70.9133 24.0984 71.5387 24.0984 72.1402C24.0984 73.343 24.2908 74.5459 24.4592 75.6765C24.6276 76.8072 24.772 77.9379 24.9644 78.9723C25.1569 80.0068 25.3493 80.9931 25.5418 81.9073C25.9267 83.7115 26.3116 85.2271 26.6003 86.2856L26.9371 87.5125L27.2017 87.8493Z" fill="#C09068"/>
<path d="M87.6565 27.4183L87.2475 27.2259L86.0927 26.6966C85.5875 26.4801 84.9861 26.2155 84.2644 25.9509C83.5427 25.6862 82.7488 25.3975 81.8587 25.1089C80.9687 24.8202 79.9823 24.5315 78.9238 24.2909C77.8653 24.0503 76.7587 23.7857 75.604 23.5933L73.8238 23.3286C73.2224 23.3286 72.5969 23.1843 71.9954 23.1121L70.119 22.9918C69.4935 22.9918 68.8681 22.9918 68.2185 22.9918H64.4416C63.2219 23.1013 62.0093 23.278 60.809 23.5211C60.2317 23.5211 59.6543 23.7857 59.101 23.906C58.5477 24.0263 58.0184 24.2187 57.4892 24.3631C56.5145 24.6673 55.5586 25.0288 54.6264 25.4456C53.7363 25.8065 52.9906 26.2395 52.2207 26.5763L50.5368 27.6108L49.1415 28.6212L50.6811 27.8513L52.4613 27.0575L53.592 26.6244L54.843 26.1914C55.276 26.0471 55.733 25.8787 56.2142 25.7584C56.6953 25.6381 57.1764 25.4697 57.7057 25.3494C58.7401 25.1089 59.8227 24.8923 60.9534 24.6999C62.084 24.5074 63.3591 24.4112 64.4657 24.315H68.0983C68.6997 24.315 69.3251 24.315 69.9266 24.315H71.7549C72.9577 24.315 74.1606 24.5074 75.2913 24.6758L78.587 25.181L81.522 25.7584C83.3262 26.1433 84.8418 26.5282 85.9003 26.8169L87.1272 27.1537L87.6565 27.4183Z" fill="#C09068"/>
<path d="M36.1154 66.678C37.5407 66.5118 38.5614 65.2217 38.3952 63.7964C38.2291 62.3712 36.939 61.3505 35.5137 61.5166C34.0884 61.6828 33.0677 62.9729 33.2339 64.3982C33.4001 65.8234 34.6902 66.8441 36.1154 66.678Z" fill="#C09068"/>
<path d="M66.4836 36.2762C66.6495 34.8509 65.6286 33.561 64.2033 33.3951C62.778 33.2291 61.4881 34.2501 61.3222 35.6754C61.1562 37.1007 62.1772 38.3906 63.6024 38.5565C65.0277 38.7224 66.3177 37.7015 66.4836 36.2762Z" fill="#C09068"/>
<path d="M22.4317 116.067C23.9073 114.202 23.5915 111.494 21.7264 110.018C19.8613 108.542 17.1532 108.858 15.6775 110.723C14.2019 112.588 14.5177 115.296 16.3828 116.772C18.2479 118.248 20.956 117.932 22.4317 116.067Z" fill="#C09068"/>
<path d="M115.904 22.6508C117.769 21.1751 118.085 18.4669 116.609 16.6018C115.134 14.7367 112.425 14.421 110.56 15.8966C108.695 17.3722 108.379 20.0804 109.855 21.9455C111.331 23.8106 114.039 24.1264 115.904 22.6508Z" fill="#C09068"/>
<path d="M12.8893 47.8308C13.7794 47.2026 13.9918 45.9718 13.3636 45.0817C12.7355 44.1915 11.5047 43.9791 10.6145 44.6073C9.72437 45.2354 9.51197 46.4663 10.1401 47.3564C10.7683 48.2466 11.9991 48.459 12.8893 47.8308Z" fill="#C09068"/>
<path d="M47.66 13.0751C48.2882 12.185 48.0758 10.9541 47.1857 10.326C46.2955 9.69782 45.0647 9.91019 44.4365 10.8003C43.8084 11.6905 44.0207 12.9213 44.9109 13.5495C45.801 14.1777 47.0319 13.9653 47.66 13.0751Z" fill="#C09068"/>
<path d="M10.1097 52.665C10.9022 52.1059 11.0915 51.0102 10.5324 50.2176C9.97336 49.4251 8.87764 49.2358 8.08509 49.7949C7.29255 50.354 7.1033 51.4497 7.66237 52.2423C8.22145 53.0348 9.31715 53.2241 10.1097 52.665Z" fill="#C09068"/>
<path d="M52.5159 10.3351C53.0749 9.54258 52.8857 8.44688 52.0931 7.8878C51.3006 7.32872 50.2049 7.51797 49.6458 8.31052C49.0867 9.10307 49.276 10.1988 50.0685 10.7579C50.8611 11.3169 51.9568 11.1277 52.5159 10.3351Z" fill="#C09068"/>
<path d="M8.04766 57.9344C8.77498 57.4211 8.94854 56.4154 8.43528 55.6881C7.92203 54.9608 6.91632 54.7873 6.18901 55.3005C5.4617 55.8138 5.28817 56.8195 5.80143 57.5468C6.31468 58.2741 7.32035 58.4476 8.04766 57.9344Z" fill="#C09068"/>
<path d="M57.7671 8.26638C58.2804 7.53906 58.1069 6.53336 57.3795 6.0201C56.6522 5.50684 55.6465 5.6804 55.1333 6.40772C54.62 7.13503 54.7936 8.14071 55.5209 8.65397C56.2482 9.16723 57.2539 8.9937 57.7671 8.26638Z" fill="#C09068"/>
<path d="M7.12654 62.6004C7.7453 62.1637 7.89292 61.3082 7.45627 60.6894C7.01962 60.0706 6.16406 59.923 5.5453 60.3596C4.92654 60.7963 4.77889 61.6519 5.21554 62.2707C5.65219 62.8894 6.50778 63.037 7.12654 62.6004Z" fill="#C09068"/>
<path d="M62.4294 7.29352C62.866 6.67468 62.7182 5.81914 62.0994 5.3826C61.4805 4.94605 60.625 5.09382 60.1884 5.71266C59.7519 6.3315 59.8997 7.18707 60.5185 7.62361C61.1373 8.06015 61.9929 7.91236 62.4294 7.29352Z" fill="#C09068"/>
<path d="M7.02334 67.448C7.60953 67.0343 7.74938 66.2238 7.33571 65.6376C6.92205 65.0514 6.11151 64.9115 5.52532 65.3252C4.93913 65.7388 4.79925 66.5494 5.21292 67.1356C5.62658 67.7218 6.43714 67.8616 7.02334 67.448Z" fill="#C09068"/>
<path d="M67.2285 7.21801C67.6422 6.63181 67.5023 5.82124 66.9162 5.40758C66.33 4.99391 65.5194 5.13378 65.1057 5.71998C64.6921 6.30617 64.8319 7.11671 65.4181 7.53038C66.0043 7.94405 66.8149 7.8042 67.2285 7.21801Z" fill="#C09068"/>
<path d="M7.10532 71.6923C7.60467 71.3399 7.72382 70.6494 7.37144 70.1501C7.01906 69.6507 6.32858 69.5316 5.82923 69.884C5.32988 70.2364 5.21073 70.9268 5.56311 71.4262C5.91549 71.9255 6.60597 72.0447 7.10532 71.6923Z" fill="#C09068"/>
<path d="M71.5464 7.32441C71.8987 6.82505 71.7796 6.1346 71.2803 5.78222C70.7809 5.42983 70.0905 5.54896 69.7381 6.04831C69.3857 6.54766 69.5048 7.23814 70.0042 7.59053C70.5035 7.94291 71.194 7.82376 71.5464 7.32441Z" fill="#C09068"/>
<path d="M7.51466 75.5746C7.94887 75.2681 8.05249 74.6677 7.74607 74.2335C7.43965 73.7993 6.83923 73.6957 6.40501 74.0021C5.9708 74.3085 5.8672 74.9089 6.17362 75.3431C6.48004 75.7774 7.08044 75.881 7.51466 75.5746Z" fill="#C09068"/>
<path d="M75.3896 7.72577C75.696 7.29155 75.5924 6.69112 75.1582 6.3847C74.724 6.07828 74.1235 6.1819 73.8171 6.61612C73.5107 7.05034 73.6143 7.65073 74.0485 7.95715C74.4827 8.26357 75.0831 8.15999 75.3896 7.72577Z" fill="#C09068"/>
<path d="M8.3124 79.0748C8.6923 78.8066 8.78286 78.2812 8.51467 77.9013C8.24649 77.5214 7.72111 77.4308 7.34122 77.699C6.96132 77.9672 6.87078 78.4926 7.13897 78.8725C7.40715 79.2524 7.93251 79.343 8.3124 79.0748Z" fill="#C09068"/>
<path d="M78.9213 8.5124C79.1894 8.1325 79.0989 7.60715 78.719 7.33896C78.3391 7.07078 77.8137 7.16132 77.5455 7.54121C77.2774 7.92111 77.3679 8.4465 77.7478 8.71468C78.1277 8.98286 78.6531 8.89229 78.9213 8.5124Z" fill="#C09068"/>
<path d="M9.06883 82.418C9.37278 82.2035 9.4453 81.7832 9.2308 81.4793C9.01631 81.1753 8.59603 81.1028 8.29208 81.3173C7.98813 81.5318 7.91561 81.9521 8.1301 82.256C8.34459 82.56 8.76487 82.6325 9.06883 82.418Z" fill="#C09068"/>
<path d="M82.2346 9.27463C82.4491 8.97068 82.3766 8.55039 82.0726 8.3359C81.7687 8.1214 81.3484 8.19392 81.1339 8.49788C80.9194 8.80183 80.9919 9.22211 81.2959 9.43661C81.5998 9.6511 82.0201 9.57858 82.2346 9.27463Z" fill="#C09068"/>
<path d="M9.85733 85.6023C10.1288 85.4109 10.1937 85.0357 10.0022 84.7642C9.81083 84.4927 9.4356 84.4279 9.16414 84.6193C8.89269 84.8107 8.82781 85.1859 9.01923 85.4574C9.21065 85.7288 9.58588 85.7937 9.85733 85.6023Z" fill="#C09068"/>
<path d="M85.3655 10.036C85.5569 9.76457 85.492 9.38934 85.2205 9.19792C84.9491 9.0065 84.5739 9.07138 84.3825 9.34284C84.191 9.61429 84.2559 9.98952 84.5274 10.1809C84.7988 10.3724 85.174 10.3075 85.3655 10.036Z" fill="#C09068"/>
<path d="M10.5469 87.8815C10.764 87.7284 10.8158 87.4282 10.6627 87.211C10.5095 86.9939 10.2093 86.9421 9.99218 87.0952C9.77505 87.2484 9.7232 87.5486 9.87637 87.7657C10.0295 87.9828 10.3297 88.0347 10.5469 87.8815Z" fill="#C09068"/>
<path d="M87.745 10.7743C87.8982 10.5572 87.8463 10.257 87.6292 10.1038C87.4121 9.95065 87.1119 10.0025 86.9587 10.2196C86.8055 10.4368 86.8574 10.737 87.0745 10.8902C87.2916 11.0433 87.5919 10.9915 87.745 10.7743Z" fill="#C09068"/>
<path d="M11.461 89.8744C11.6131 89.7672 11.6494 89.5571 11.5422 89.405C11.435 89.253 11.2249 89.2167 11.0729 89.3239C10.9208 89.4311 10.8845 89.6412 10.9917 89.7932C11.0989 89.9453 11.309 89.9816 11.461 89.8744Z" fill="#C09068"/>
<path d="M89.6975 11.6494C89.8047 11.4975 89.7685 11.2873 89.6165 11.1801C89.4645 11.0728 89.2544 11.1091 89.1471 11.2611C89.0399 11.413 89.0761 11.6232 89.2281 11.7304C89.3801 11.8377 89.5902 11.8014 89.6975 11.6494Z" fill="#C09068"/>
<path d="M14.4247 90.8836C14.544 90.7992 14.5723 90.6341 14.4879 90.5147C14.4036 90.3954 14.2384 90.3671 14.1191 90.4515C13.9998 90.5359 13.9715 90.7011 14.0559 90.8204C14.1403 90.9397 14.3054 90.968 14.4247 90.8836Z" fill="#C09068"/>
<path d="M91.577 12.7472C91.6613 12.6278 91.633 12.4627 91.5136 12.3783C91.3943 12.294 91.2291 12.3223 91.1448 12.4417C91.0604 12.5611 91.0888 12.7262 91.2082 12.8105C91.3275 12.8949 91.4926 12.8665 91.577 12.7472Z" fill="#C09068"/>
<path d="M145.441 17.6271C145.441 17.6271 141.447 14.9327 142.193 11.9978C141.698 12.4076 141.374 12.9879 141.285 13.6245C141.196 14.2611 141.348 14.908 141.712 15.4379C142.939 16.9776 140.75 13.7058 138.224 17.6031C140.629 21.5003 142.722 18.0601 141.712 19.7682C141.348 20.2981 141.196 20.945 141.285 21.5817C141.374 22.2183 141.698 22.7985 142.193 23.2083C142.243 22.0847 142.564 20.9899 143.13 20.0178C143.695 19.0457 144.488 18.2254 145.441 17.6271Z" fill="#C09068"/>
<path d="M142.145 15.895C141.837 15.1762 141.354 14.5463 140.739 14.0631C140.124 13.5798 139.398 13.2588 138.627 13.1295C137.856 13.0002 137.064 13.0667 136.326 13.3229C135.587 13.5791 134.924 14.0169 134.399 14.596C130.526 18.1564 129.323 17.7474 129.323 17.7474C129.323 17.7474 131.127 17.7474 134.351 20.7786C139.018 25.2532 142.025 19.1908 142.025 19.1908L142.145 15.895Z" fill="#C09068"/>
<path d="M148.833 20.0088C150.254 20.0088 151.407 18.8563 151.407 17.4347C151.407 16.013 150.254 14.8606 148.833 14.8606C147.411 14.8606 146.259 16.013 146.259 17.4347C146.259 18.8563 147.411 20.0088 148.833 20.0088Z" fill="#C09068"/>
</svg>
