<svg width="273" height="61" viewBox="0 0 273 61" fill="none" xmlns="http://www.w3.org/2000/svg">
<path d="M10.5 5.5C10.5 7 9.8 9.3 7 6.5C4.2 3.7 8.16667 3 10.5 3H262.5C264.833 3 268.8 3.7 266 6.5C263.2 9.3 262.5 7 262.5 5.5M10.5 55.3192C10.5 53.8192 9.8 51.5192 7 54.3192C4.2 57.1192 8.16667 57.8192 10.5 57.8192H262.5C264.833 57.8192 268.8 57.1192 266 54.3192C263.2 51.5192 262.5 53.8192 262.5 55.3192M5.50002 10.463C7.00002 10.463 9.30002 9.76305 6.50002 6.96305C3.70002 4.16305 3.00002 8.12971 3.00002 10.463V50.5C3.00002 52.8333 3.70002 56.8 6.50002 54C9.30002 51.2 7.00002 50.5 5.50002 50.5M267.319 10.463C265.819 10.463 263.519 9.76305 266.319 6.96305C269.119 4.16305 269.819 8.12971 269.819 10.463V50.5C269.819 52.8333 269.119 56.8 266.319 54C263.519 51.2 265.819 50.5 267.319 50.5M5 3C5 4.10457 4.10457 5 3 5C1.89543 5 1 4.10457 1 3C1 1.89543 1.89543 1 3 1C4.10457 1 5 1.89543 5 3ZM5 58C5 59.1046 4.10457 60 3 60C1.89543 60 1 59.1046 1 58C1 56.8954 1.89543 56 3 56C4.10457 56 5 56.8954 5 58ZM272 3C272 4.10457 271.105 5 270 5C268.895 5 268 4.10457 268 3C268 1.89543 268.895 1 270 1C271.105 1 272 1.89543 272 3ZM272 58C272 59.1046 271.105 60 270 60C268.895 60 268 59.1046 268 58C268 56.8954 268.895 56 270 56C271.105 56 272 56.8954 272 58Z" stroke="#C09068" stroke-width="1.58" stroke-linecap="round"/>
</svg>
