<svg width="746" height="477" viewBox="0 0 746 477" fill="none" xmlns="http://www.w3.org/2000/svg">
<path d="M83.5 6H662.5M83 471.819H663.5M6 83.463V393.5M739.819 83.463V393.5" stroke="#C09068" stroke-width="1.58" stroke-linecap="round"/>
<path d="M81.6994 1.16685L81.3785 1.34639C81.0733 1.52797 80.7818 1.73132 80.5062 1.95483C80.0573 2.3267 79.6713 2.76788 79.3631 3.26151C79.1691 3.57274 79.0174 3.90813 78.9119 4.25897L78.8517 4.5582V5.5457C78.8517 5.60555 78.8517 5.66539 78.8517 5.71526V5.88483C78.8517 5.99455 78.8517 6.11424 78.9319 6.23394C79.0039 6.47007 79.0944 6.7002 79.2027 6.92219L79.3731 7.26132L79.5837 7.59048L79.694 7.76006L79.7542 7.83985L79.8745 7.98947L80.0149 8.14907C80.4086 8.60115 80.9128 8.94468 81.4788 9.14653C81.8009 9.25628 82.1448 9.28706 82.4815 9.2363C82.6627 9.20579 82.8384 9.14864 83.0028 9.06673C83.1703 8.97811 83.3226 8.86365 83.4541 8.72759C83.7221 8.45429 83.9005 8.10646 83.9654 7.73013C84.0268 7.36112 84.0063 6.98322 83.9053 6.62295C83.8051 6.27016 83.653 5.93404 83.4541 5.62549L83.3037 5.39608L83.1332 5.17664L82.9527 4.96717L82.8625 4.86742V4.81755L82.4915 4.46844L82.0704 4.10935C81.93 3.98966 81.7796 3.88991 81.6292 3.78019C81.4788 3.67047 81.3284 3.57072 81.178 3.47098C80.5373 3.05708 79.8671 2.69037 79.1726 2.37378C78.8317 2.20421 78.4707 2.05459 78.1198 1.90497C77.7688 1.75535 77.3978 1.6157 77.0168 1.49601C76.2748 1.22669 75.5028 1.00726 74.7006 0.807762C73.8985 0.608276 73.0863 0.448677 72.2541 0.309036C71.4219 0.169388 70.5596 0.0995636 69.6973 0.0397186C67.9057 -0.0676651 66.1076 0.0428772 64.3429 0.368881C62.488 0.701721 60.7125 1.37845 59.1089 2.3638L58.8081 2.55332L58.2266 2.97225L58.1564 3.0321L58.026 3.14182C57.6354 3.47919 57.2975 3.87251 57.0233 4.30885C56.5178 5.16235 56.2064 6.11565 56.1109 7.10173C56.0571 7.5957 56.0571 8.09399 56.1109 8.58794V8.94703L56.1811 9.31609C56.2341 9.56013 56.3045 9.80013 56.3916 10.0343C56.5627 10.5149 56.8248 10.9585 57.1637 11.3409C57.518 11.7356 57.9822 12.0168 58.4973 12.1489C58.7627 12.1941 59.034 12.1941 59.2994 12.1489C59.5689 12.1145 59.8302 12.0335 60.0715 11.9095C60.3101 11.7814 60.5267 11.6165 60.7132 11.4207C60.8918 11.2239 61.0405 11.0021 61.1544 10.7624C61.3778 10.2874 61.4974 9.77065 61.5053 9.24627C61.5101 8.4695 61.3707 7.69852 61.0942 6.97207C60.9929 6.72865 60.8756 6.49208 60.7433 6.26386C60.4653 5.80644 60.1282 5.38726 59.7406 5.01704C58.9953 4.27918 58.1224 3.68111 57.1637 3.25154C56.9331 3.13184 56.6824 3.04208 56.4518 2.94233C56.2212 2.84258 55.9705 2.76279 55.7198 2.69296C55.2297 2.53505 54.7309 2.40517 54.2259 2.30396C53.2346 2.10836 52.2281 1.99823 51.2178 1.97479C49.1671 1.92617 47.1257 2.26463 45.2017 2.97225C44.7505 3.12187 44.2692 3.36126 43.808 3.57072L43.1462 3.93979L42.9858 4.02956L42.8254 4.13927L42.5145 4.35872C41.6833 4.93301 40.9969 5.6909 40.5092 6.57308C40.449 6.6828 40.4089 6.80249 40.3487 6.91222C40.2947 7.02442 40.2511 7.14127 40.2184 7.26132L40.1081 7.62041C40.1081 7.7401 40.1081 7.86977 40.0479 7.98947C39.9771 8.47398 39.9941 8.9672 40.0981 9.44576C40.2036 9.9163 40.3902 10.3651 40.6495 10.7724C40.8931 11.193 41.2655 11.525 41.7124 11.72C41.951 11.7918 42.2057 11.7918 42.4443 11.72C42.6826 11.6622 42.9008 11.5416 43.076 11.3709C43.4145 11.0299 43.6326 10.5889 43.6977 10.1141C43.77 9.6525 43.7496 9.18124 43.6375 8.72759C43.5807 8.50295 43.507 8.2829 43.4169 8.06927C43.3316 7.8595 43.231 7.65615 43.1161 7.46082C42.6584 6.6673 42.028 5.98569 41.2712 5.4659C40.5309 4.95872 39.7108 4.5778 38.8447 4.33877C37.1753 3.9275 35.4399 3.85289 33.7411 4.11933C33.33 4.17918 32.9289 4.25897 32.5278 4.33877C32.3273 4.33877 32.1368 4.42854 31.9362 4.47842L31.3547 4.62803L31.0639 4.70782H30.7831L30.2317 4.86742L29.1387 5.20656C26.6623 6.12502 24.0992 6.79335 21.4883 7.20148C20.9426 7.26792 20.3936 7.30455 19.8439 7.3112H19.0417C18.8011 7.3112 18.5604 7.3112 18.3198 7.25135C17.4495 7.16874 16.5955 6.96389 15.783 6.6429C14.6329 6.15009 13.5907 5.43855 12.7148 4.54824C12.404 4.22905 12.1633 3.97968 12.0029 3.81011L11.7622 3.55078C11.6886 3.47912 11.5917 3.43603 11.4889 3.42931C11.3862 3.4226 11.2844 3.45271 11.202 3.51418C11.1196 3.57565 11.062 3.66442 11.0397 3.76444C11.0175 3.86446 11.0319 3.96912 11.0804 4.05948L11.2709 4.37866C11.4589 4.69474 11.6631 5.00104 11.8826 5.29633C12.033 5.48585 12.1934 5.70529 12.3939 5.93471C12.5945 6.16412 12.5945 6.16412 12.7148 6.28381L13.0858 6.65288C13.6854 7.22029 14.3601 7.70354 15.0912 8.08922C16.0378 8.54991 17.054 8.85317 18.0992 8.98693L18.5304 9.0368H19.8338C20.1347 9.0368 20.4455 9.0368 20.7463 9.0368H21.2175L21.6888 8.97695C23.0127 8.79856 24.3158 8.4912 25.5792 8.0593C26.241 7.84982 26.9028 7.60046 27.5846 7.34112L29.5899 6.54316L30.5926 6.12422L31.124 5.91476L31.2544 5.86488H31.3848L31.6555 5.77511L32.1869 5.59557C32.3674 5.53572 32.5479 5.4659 32.7283 5.41602C33.0993 5.31628 33.4703 5.20656 33.8413 5.11679C35.3984 4.72759 37.0186 4.65634 38.6041 4.90733C39.4229 5.07011 40.2089 5.36671 40.9303 5.78509C41.6671 6.22171 42.2918 6.8227 42.7552 7.54062C42.8763 7.72533 42.9835 7.9187 43.076 8.11914C43.1702 8.31505 43.2473 8.51861 43.3066 8.72759C43.4254 9.14907 43.4594 9.5897 43.4069 10.0243C43.3608 10.4621 43.1704 10.8724 42.8655 11.1913C42.7139 11.3451 42.5233 11.4554 42.314 11.5105C42.1048 11.5738 41.8815 11.5738 41.6723 11.5105C41.2439 11.3354 40.8896 11.0182 40.6696 10.6128C40.312 10.0254 40.1321 9.34798 40.1517 8.66156C40.1713 7.97514 40.3894 7.30889 40.7799 6.74265C41.3002 6.00093 41.9867 5.38969 42.7853 4.95719C43.1944 4.73648 43.6162 4.53997 44.0486 4.3687C44.4898 4.21908 44.9009 4.05948 45.3922 3.93979C47.2278 3.4396 49.1242 3.19456 51.0273 3.21164C52.9385 3.18917 54.8388 3.49975 56.6423 4.1293C57.5276 4.44416 58.3493 4.91367 59.0688 5.51577C59.4205 5.80495 59.7309 6.14053 59.9913 6.51323C60.1211 6.70501 60.2383 6.90492 60.3422 7.11171C60.6346 7.73817 60.7982 8.41641 60.8235 9.10663C60.8424 9.56527 60.7567 10.0222 60.5728 10.4432C60.4814 10.6494 60.3597 10.841 60.2119 11.0118C60.0621 11.176 59.8859 11.3142 59.6905 11.4207C59.4962 11.522 59.2859 11.5894 59.0688 11.6202C58.853 11.6556 58.6329 11.6556 58.4171 11.6202C57.9826 11.5061 57.5919 11.2666 57.2941 10.932C56.9913 10.588 56.7596 10.188 56.6122 9.75497C56.5362 9.53676 56.4759 9.31342 56.4318 9.08668L56.3716 8.74754V8.38846C56.3221 7.93095 56.3221 7.46947 56.3716 7.01196C56.4937 6.11163 56.8157 5.24963 57.3141 4.48839C57.5498 4.11487 57.8405 3.77864 58.1764 3.49093L58.3168 3.3812L58.387 3.33134L58.9485 2.95229L59.2393 2.78273C60.1246 2.41689 61.0501 2.15576 61.9967 2.00471C62.8363 1.74265 63.6943 1.54261 64.5635 1.40624C65.4178 1.28236 66.2779 1.20245 67.1404 1.16685C67.5716 1.16685 67.9927 1.16685 68.4138 1.16685C68.8349 1.16685 69.2561 1.16685 69.6772 1.16685C71.2984 1.27068 72.9081 1.50755 74.4901 1.87505C75.2521 2.05459 76.0041 2.26405 76.716 2.50344C77.4178 2.73779 78.1072 3.00745 78.7815 3.31139C79.4266 3.59875 80.0499 3.9321 80.6466 4.30885C80.797 4.39861 80.9373 4.48838 81.0777 4.58813C81.2181 4.68787 81.3584 4.77765 81.4788 4.8774L81.8598 5.17664L82.2408 5.51577L82.321 5.59557L82.4714 5.76513L82.6118 5.93471L82.7422 6.11425C82.906 6.34689 83.0344 6.60233 83.1232 6.87231C83.2116 7.09953 83.2396 7.3456 83.2045 7.58673C83.1693 7.82787 83.0723 8.05591 82.9226 8.24881C82.7633 8.41113 82.5606 8.52464 82.3385 8.5759C82.1164 8.62717 81.8841 8.61404 81.6693 8.53808C81.2026 8.38945 80.7817 8.12514 80.446 7.77003L80.3157 7.64037L80.1853 7.49074L80.1251 7.42092L80.0149 7.28127L79.8043 6.99201L79.6338 6.69277C79.5246 6.50092 79.4307 6.30081 79.3531 6.0943C79.3531 5.99455 79.2929 5.89481 79.2628 5.79507V5.64544C79.2628 5.59557 79.2628 5.54569 79.2628 5.49582V5.19658C79.2628 5.09683 79.2628 5.00042 79.2628 4.90733V4.34874C79.3359 4.00253 79.4538 3.66723 79.6138 3.35128C79.8775 2.85744 80.2156 2.40668 80.6165 2.01469C80.867 1.76953 81.135 1.54284 81.4186 1.33642L81.6994 1.16685Z" fill="#C09068"/>
<path d="M1.17297 81.7113L1.35344 81.3921C1.53598 81.0886 1.74039 80.7985 1.96508 80.5244C2.33888 80.0778 2.78238 79.6939 3.2786 79.3873C3.59145 79.1943 3.92861 79.0434 4.28128 78.9384L4.58208 78.8786H5.57474C5.6349 78.8786 5.69506 78.8786 5.7452 78.8786H5.91565C6.02595 78.8786 6.14627 78.8785 6.26659 78.9583C6.50396 79.0299 6.73529 79.12 6.95844 79.2277L7.29935 79.3972L7.63024 79.6067L7.80069 79.7164L7.88091 79.7763L8.03131 79.896L8.19174 80.0356C8.64619 80.4273 8.99152 80.9288 9.19443 81.4919C9.30475 81.8123 9.3357 82.1545 9.28466 82.4894C9.254 82.6697 9.19655 82.8445 9.11421 83.008C9.02513 83.1746 8.91006 83.3261 8.77329 83.4569C8.49857 83.7236 8.14891 83.901 7.77061 83.9656C7.39967 84.0267 7.01979 84.0062 6.65763 83.9058C6.303 83.8061 5.96512 83.6548 5.65495 83.4569L5.42434 83.3073L5.20375 83.1377L4.99318 82.9582L4.89292 82.8684H4.84278L4.49184 82.4993L4.13088 82.0804C4.01055 81.9407 3.91028 81.7911 3.79999 81.6415C3.68969 81.4919 3.58943 81.3423 3.48916 81.1927C3.0731 80.5553 2.70446 79.8886 2.38621 79.1978C2.21575 78.8586 2.06535 78.4995 1.91495 78.1504C1.76455 77.8013 1.62417 77.4322 1.50384 77.0532C1.23312 76.3151 1.01254 75.547 0.811999 74.7491C0.611463 73.9511 0.451033 73.1431 0.310658 72.3153C0.170282 71.4874 0.10009 70.6296 0.0399293 69.7717C-0.0680145 67.9895 0.0431039 66.2008 0.370816 64.4453C0.705403 62.6001 1.38567 60.8338 2.37618 59.2386L2.56669 58.9393L2.98782 58.3608L3.04798 58.291L3.15827 58.1613C3.49742 57.7728 3.89279 57.4366 4.33141 57.1639C5.18939 56.661 6.14768 56.3511 7.13892 56.2562C7.63547 56.2027 8.13637 56.2027 8.63292 56.2562H8.99389L9.36488 56.326C9.61019 56.3788 9.85144 56.4488 10.0868 56.5354C10.57 56.7056 11.0158 56.9663 11.4003 57.3035C11.7971 57.656 12.0797 58.1177 12.2125 58.6301C12.2579 58.8942 12.2579 59.164 12.2125 59.4281C12.178 59.6961 12.0965 59.956 11.9719 60.1961C11.8431 60.4335 11.6773 60.649 11.4805 60.8345C11.2827 61.0122 11.0597 61.16 10.8188 61.2734C10.3412 61.4956 9.82181 61.6146 9.29469 61.6225C8.51385 61.6272 7.73884 61.4886 7.00858 61.2135C6.76389 61.1127 6.52608 60.9961 6.29667 60.8644C5.83685 60.5879 5.41547 60.2525 5.04331 59.867C4.3016 59.1256 3.70039 58.2572 3.26857 57.3035C3.14825 57.0741 3.05801 56.8247 2.95774 56.5953C2.85747 56.3659 2.77726 56.1165 2.70707 55.8671C2.54833 55.3796 2.41777 54.8834 2.31602 54.3809C2.11941 53.3948 2.0087 52.3936 1.98514 51.3886C1.93626 49.3485 2.27649 47.3178 2.98782 45.4038C3.13822 44.9549 3.37886 44.4762 3.58943 44.0173L3.96042 43.359L4.05066 43.1994L4.16096 43.0398L4.38155 42.7306C4.95884 41.9037 5.72071 41.2209 6.6075 40.7357C6.7178 40.6758 6.83812 40.6359 6.94841 40.5761C7.06121 40.5224 7.17867 40.479 7.29935 40.4464L7.66032 40.3367C7.78064 40.3367 7.91099 40.3367 8.03131 40.2769C8.51836 40.2064 9.01416 40.2233 9.49523 40.3267C9.96823 40.4317 10.4194 40.6173 10.8288 40.8753C11.2516 41.1176 11.5854 41.4881 11.7813 41.9326C11.8536 42.17 11.8536 42.4234 11.7813 42.6608C11.7233 42.8978 11.6021 43.1149 11.4304 43.2892C11.0876 43.6259 10.6443 43.8429 10.167 43.9076C9.70304 43.9796 9.22932 43.9592 8.77329 43.8478C8.54748 43.7912 8.32627 43.7179 8.11153 43.6283C7.90066 43.5434 7.69624 43.4434 7.49989 43.3291C6.70222 42.8737 6.01704 42.2466 5.49453 41.4938C4.9847 40.7573 4.60177 39.9415 4.36149 39.0799C3.94807 37.4192 3.87307 35.6929 4.14091 34.0028C4.20107 33.5939 4.28128 33.1949 4.36149 32.7959C4.36149 32.5964 4.45174 32.4069 4.50187 32.2074L4.65227 31.6289L4.73249 31.3396V31.0603L4.89292 30.5117L5.23383 29.4245C6.15709 26.9609 6.82893 24.4112 7.23919 21.8139C7.30598 21.271 7.3428 20.7249 7.34949 20.178V19.3801C7.34949 19.1407 7.34949 18.9013 7.28933 18.6619C7.20628 17.7962 7.00036 16.9466 6.67769 16.1383C6.18229 14.9942 5.46703 13.9574 4.57206 13.0861C4.2512 12.7769 4.00052 12.5375 3.83007 12.3779L3.56938 12.1385C3.49734 12.0653 3.45403 11.9688 3.44728 11.8666C3.44053 11.7644 3.47079 11.6631 3.53258 11.5812C3.59437 11.4992 3.68362 11.442 3.78416 11.4198C3.88471 11.3976 3.98991 11.412 4.08074 11.4603L4.4016 11.6498C4.71933 11.8368 5.02723 12.0399 5.32407 12.2582C5.51458 12.4078 5.73517 12.5674 5.96579 12.7669C6.1964 12.9664 6.1964 12.9664 6.31673 13.0861L6.68772 13.4552C7.2581 14.0516 7.74388 14.7228 8.13158 15.4501C8.59469 16.3918 8.89953 17.4027 9.03399 18.4425L9.08413 18.8714V20.1681C9.08413 20.4673 9.08413 20.7765 9.08413 21.0758V21.5446L9.02396 22.0134C8.84464 23.3304 8.53567 24.6266 8.1015 25.8835C7.89094 26.5418 7.64026 27.2002 7.37957 27.8784L6.57743 29.8734L6.15629 30.8708L5.94573 31.3995L5.8956 31.5291V31.6588L5.80536 31.9281L5.62487 32.4568C5.56471 32.6363 5.49452 32.8159 5.44439 32.9954C5.34412 33.3645 5.23383 33.7335 5.14359 34.1026C4.75235 35.6515 4.68073 37.2633 4.93303 38.8405C5.09667 39.6551 5.39482 40.437 5.81538 41.1546C6.2543 41.8876 6.85843 42.5091 7.58011 42.97C7.76579 43.0905 7.96017 43.1972 8.16166 43.2892C8.35859 43.3829 8.56322 43.4596 8.77329 43.5186C9.19698 43.6367 9.63992 43.6706 10.0768 43.6183C10.5169 43.5725 10.9293 43.3831 11.2499 43.0797C11.4046 42.9289 11.5154 42.7394 11.5708 42.5311C11.6344 42.323 11.6344 42.1008 11.5708 41.8927C11.3948 41.4666 11.0759 41.1141 10.6684 40.8953C10.0779 40.5395 9.39693 40.3606 8.70692 40.3801C8.01691 40.3996 7.34717 40.6165 6.77796 41.005C6.03236 41.5226 5.41792 42.2056 4.98316 42.9999C4.76128 43.4069 4.56375 43.8266 4.39158 44.2567C4.24117 44.6956 4.08074 45.1046 3.96042 45.5933C3.45761 47.4193 3.21129 49.3058 3.22846 51.199C3.20587 53.1003 3.51808 54.9907 4.15093 56.7848C4.46743 57.6655 4.93941 58.4829 5.54465 59.1987C5.83535 59.5485 6.17269 59.8573 6.54734 60.1163C6.74012 60.2455 6.94108 60.3621 7.14895 60.4654C7.7787 60.7563 8.46049 60.919 9.15432 60.9442C9.61536 60.963 10.0747 60.8777 10.4979 60.6949C10.7052 60.6039 10.8978 60.4829 11.0694 60.3358C11.2345 60.1868 11.3734 60.0115 11.4805 59.8171C11.5823 59.6238 11.6501 59.4147 11.6811 59.1987C11.7166 58.984 11.7166 58.765 11.6811 58.5503C11.5664 58.1182 11.3256 57.7295 10.9892 57.4332C10.6434 57.132 10.2414 56.9015 9.80606 56.7549C9.5867 56.6792 9.3622 56.6192 9.13426 56.5754L8.79335 56.5155H8.43239C7.97248 56.4663 7.50859 56.4663 7.04868 56.5155C6.14364 56.637 5.27712 56.9573 4.51189 57.4531C4.13642 57.6875 3.79843 57.9767 3.50921 58.3109L3.39891 58.4506L3.34878 58.5204L2.96776 59.079L2.79731 59.3682C2.42955 60.249 2.16705 61.1696 2.01522 62.1113C1.75178 62.9465 1.5507 63.8 1.41361 64.6648C1.28907 65.5145 1.20875 66.3702 1.17297 67.2282C1.17297 67.6571 1.17297 68.0761 1.17297 68.495C1.17297 68.9139 1.17297 69.3329 1.17297 69.7518C1.27734 71.3645 1.51545 72.9659 1.88487 74.5396C2.06535 75.2977 2.27591 76.0458 2.51656 76.754C2.75213 77.4521 3.0232 78.1379 3.32873 78.8087C3.61759 79.4504 3.95269 80.0704 4.33141 80.664C4.42165 80.8136 4.51189 80.9533 4.61216 81.0929C4.71243 81.2326 4.80267 81.3722 4.90294 81.4919L5.20375 81.8709L5.54465 82.25L5.62487 82.3298L5.79533 82.4794L5.96579 82.619L6.14627 82.7487C6.38012 82.9117 6.63691 83.0394 6.9083 83.1277C7.13672 83.2157 7.38407 83.2435 7.62646 83.2086C7.86886 83.1736 8.09809 83.0771 8.29201 82.9282C8.45517 82.7698 8.56928 82.5681 8.62081 82.3472C8.67234 82.1262 8.65915 81.8952 8.58279 81.6814C8.43338 81.2172 8.16769 80.7984 7.81072 80.4645L7.68037 80.3348L7.52997 80.2052L7.45978 80.1453L7.31941 80.0356L7.02863 79.8261L6.72782 79.6566C6.53497 79.5479 6.33381 79.4545 6.12621 79.3773C6.02594 79.3773 5.92568 79.3174 5.82541 79.2875H5.67501C5.62487 79.2875 5.57474 79.2875 5.5246 79.2875H5.2238C5.12353 79.2875 5.02661 79.2875 4.93303 79.2875H4.37152C4.02349 79.3602 3.68643 79.4775 3.36883 79.6366C2.8724 79.8989 2.41929 80.2353 2.02524 80.6341C1.7788 80.8833 1.55093 81.15 1.34342 81.4321L1.17297 81.7113Z" fill="#C09068"/>
<path d="M664.301 475.833L664.622 475.654C664.927 475.472 665.218 475.269 665.494 475.045C665.943 474.673 666.329 474.232 666.637 473.738C666.831 473.427 666.983 473.092 667.088 472.741L667.148 472.442V471.454C667.148 471.394 667.148 471.335 667.148 471.285V471.115C667.148 471.005 667.148 470.886 667.068 470.766C666.996 470.53 666.906 470.3 666.797 470.078L666.627 469.739L666.416 469.41L666.306 469.24L666.246 469.16L666.126 469.011L665.985 468.851C665.591 468.399 665.087 468.055 664.521 467.853C664.199 467.744 663.855 467.713 663.519 467.764C663.337 467.794 663.162 467.851 662.997 467.933C662.83 468.022 662.677 468.136 662.546 468.272C662.278 468.546 662.1 468.894 662.035 469.27C661.973 469.639 661.994 470.017 662.095 470.377C662.195 470.73 662.347 471.066 662.546 471.375L662.696 471.604L662.867 471.823L663.047 472.033L663.138 472.133V472.182L663.509 472.532L663.93 472.891C664.07 473.01 664.22 473.11 664.371 473.22C664.521 473.33 664.672 473.429 664.822 473.529C665.463 473.943 666.133 474.31 666.827 474.626C667.168 474.796 667.529 474.945 667.88 475.095C668.231 475.245 668.602 475.384 668.983 475.504C669.725 475.773 670.497 475.993 671.299 476.192C672.102 476.392 672.914 476.551 673.746 476.691C674.578 476.831 675.44 476.9 676.303 476.96C678.094 477.068 679.892 476.957 681.657 476.631C683.512 476.298 685.287 475.622 686.891 474.636L687.192 474.447L687.773 474.028L687.844 473.968L687.974 473.858C688.365 473.521 688.702 473.127 688.977 472.691C689.482 471.838 689.794 470.884 689.889 469.898C689.943 469.404 689.943 468.906 689.889 468.412V468.053L689.819 467.684C689.766 467.44 689.696 467.2 689.608 466.966C689.437 466.485 689.175 466.042 688.836 465.659C688.482 465.264 688.018 464.983 687.503 464.851C687.237 464.806 686.966 464.806 686.701 464.851C686.431 464.885 686.17 464.966 685.929 465.091C685.69 465.219 685.473 465.384 685.287 465.579C685.108 465.776 684.96 465.998 684.846 466.238C684.622 466.713 684.503 467.229 684.495 467.754C684.49 468.531 684.629 469.301 684.906 470.028C685.007 470.271 685.124 470.508 685.257 470.736C685.535 471.194 685.872 471.613 686.259 471.983C687.005 472.721 687.878 473.319 688.836 473.748C689.067 473.868 689.318 473.958 689.548 474.058C689.779 474.157 690.029 474.237 690.28 474.307C690.77 474.465 691.269 474.595 691.774 474.696C692.765 474.892 693.772 475.002 694.782 475.025C696.833 475.074 698.874 474.735 700.798 474.028C701.249 473.878 701.731 473.639 702.192 473.429L702.854 473.06L703.014 472.97L703.175 472.861L703.485 472.641C704.317 472.067 705.003 471.309 705.491 470.427C705.551 470.317 705.591 470.198 705.651 470.088C705.705 469.976 705.749 469.859 705.782 469.739L705.892 469.38C705.892 469.26 705.892 469.13 705.952 469.011C706.023 468.526 706.006 468.033 705.902 467.554C705.796 467.084 705.61 466.635 705.35 466.228C705.107 465.807 704.734 465.475 704.288 465.28C704.049 465.208 703.794 465.208 703.556 465.28C703.317 465.338 703.099 465.458 702.924 465.629C702.586 465.97 702.367 466.411 702.302 466.886C702.23 467.348 702.25 467.819 702.362 468.272C702.419 468.497 702.493 468.717 702.583 468.931C702.668 469.141 702.769 469.344 702.884 469.539C703.342 470.333 703.972 471.014 704.729 471.534C705.469 472.041 706.289 472.422 707.155 472.661C708.825 473.073 710.56 473.147 712.259 472.881C712.67 472.821 713.071 472.741 713.472 472.661C713.673 472.661 713.863 472.571 714.064 472.522L714.645 472.372L714.936 472.292H715.217L715.768 472.133L716.861 471.793C719.338 470.875 721.901 470.207 724.512 469.799C725.057 469.732 725.606 469.695 726.156 469.689H726.958C727.199 469.689 727.44 469.689 727.68 469.749C728.55 469.831 729.405 470.036 730.217 470.357C731.367 470.85 732.409 471.561 733.285 472.452C733.596 472.771 733.837 473.02 733.997 473.19L734.238 473.449C734.311 473.521 734.408 473.564 734.511 473.571C734.614 473.577 734.716 473.547 734.798 473.486C734.88 473.424 734.938 473.336 734.96 473.236C734.983 473.136 734.968 473.031 734.92 472.941L734.729 472.621C734.541 472.305 734.337 471.999 734.117 471.704C733.967 471.514 733.807 471.295 733.606 471.065C733.406 470.836 733.406 470.836 733.285 470.716L732.914 470.347C732.315 469.78 731.64 469.296 730.909 468.911C729.962 468.45 728.946 468.147 727.901 468.013L727.47 467.963H726.166C725.865 467.963 725.555 467.963 725.254 467.963H724.782L724.311 468.023C722.987 468.201 721.684 468.509 720.421 468.941C719.759 469.15 719.097 469.4 718.415 469.659L716.41 470.457L715.407 470.876L714.876 471.085L714.746 471.135H714.615L714.345 471.225L713.813 471.404C713.633 471.464 713.452 471.534 713.272 471.584C712.901 471.684 712.53 471.793 712.159 471.883C710.602 472.272 708.981 472.344 707.396 472.093C706.577 471.93 705.791 471.633 705.07 471.215C704.333 470.778 703.708 470.177 703.245 469.459C703.124 469.275 703.016 469.081 702.924 468.881C702.83 468.685 702.753 468.481 702.693 468.272C702.575 467.851 702.541 467.41 702.593 466.976C702.639 466.538 702.83 466.128 703.135 465.809C703.286 465.655 703.477 465.545 703.686 465.489C703.895 465.426 704.119 465.426 704.328 465.489C704.756 465.665 705.11 465.982 705.33 466.387C705.688 466.975 705.868 467.652 705.848 468.338C705.829 469.025 705.611 469.691 705.22 470.257C704.7 470.999 704.013 471.61 703.215 472.043C702.806 472.264 702.384 472.46 701.951 472.631C701.51 472.781 701.099 472.941 700.608 473.06C698.772 473.56 696.876 473.805 694.973 473.788C693.062 473.811 691.161 473.5 689.358 472.871C688.472 472.556 687.651 472.086 686.931 471.484C686.58 471.195 686.269 470.859 686.009 470.487C685.879 470.295 685.762 470.095 685.658 469.888C685.365 469.262 685.202 468.584 685.177 467.893C685.158 467.435 685.243 466.978 685.427 466.557C685.519 466.351 685.64 466.159 685.788 465.988C685.938 465.824 686.114 465.686 686.31 465.579C686.504 465.478 686.714 465.411 686.931 465.38C687.147 465.344 687.367 465.344 687.583 465.38C688.017 465.494 688.408 465.733 688.706 466.068C689.009 466.412 689.24 466.812 689.388 467.245C689.464 467.463 689.524 467.687 689.568 467.913L689.628 468.252V468.612C689.678 469.069 689.678 469.531 689.628 469.988C689.506 470.888 689.184 471.75 688.686 472.512C688.45 472.885 688.16 473.221 687.824 473.509L687.683 473.619L687.613 473.669L687.052 474.048L686.761 474.217C685.875 474.583 684.95 474.844 684.003 474.995C683.164 475.257 682.306 475.457 681.436 475.594C680.582 475.718 679.722 475.798 678.86 475.833C678.428 475.833 678.007 475.833 677.586 475.833C677.165 475.833 676.744 475.833 676.323 475.833C674.702 475.729 673.092 475.492 671.51 475.125C670.748 474.945 669.996 474.736 669.284 474.497C668.582 474.262 667.893 473.993 667.218 473.689C666.573 473.401 665.95 473.068 665.353 472.691C665.203 472.601 665.063 472.512 664.922 472.412C664.782 472.312 664.642 472.222 664.521 472.123L664.14 471.823L663.759 471.484L663.679 471.404L663.529 471.235L663.388 471.065L663.258 470.886C663.094 470.653 662.966 470.398 662.877 470.128C662.788 469.9 662.76 469.654 662.796 469.413C662.831 469.172 662.928 468.944 663.077 468.751C663.237 468.589 663.439 468.475 663.661 468.424C663.884 468.373 664.116 468.386 664.331 468.462C664.797 468.611 665.218 468.875 665.554 469.23L665.684 469.36L665.815 469.509L665.875 469.579L665.985 469.719L666.196 470.008L666.366 470.307C666.475 470.499 666.569 470.699 666.647 470.906C666.647 471.005 666.707 471.105 666.737 471.205V471.355C666.737 471.404 666.737 471.454 666.737 471.504V471.803C666.737 471.903 666.737 472 666.737 472.093V472.651C666.664 472.997 666.546 473.333 666.386 473.649C666.123 474.143 665.784 474.593 665.384 474.985C665.133 475.23 664.865 475.457 664.581 475.664L664.301 475.833Z" fill="#C09068"/>
<path d="M744.827 395.289L744.647 395.608C744.464 395.911 744.26 396.201 744.035 396.476C743.661 396.922 743.218 397.306 742.721 397.613C742.409 397.806 742.071 397.957 741.719 398.062L741.418 398.121H740.425C740.365 398.121 740.305 398.121 740.255 398.121H740.084C739.974 398.121 739.854 398.121 739.733 398.042C739.496 397.97 739.265 397.88 739.042 397.772L738.701 397.603L738.37 397.393L738.199 397.284L738.119 397.224L737.969 397.104L737.808 396.964C737.354 396.573 737.008 396.071 736.806 395.508C736.695 395.188 736.664 394.846 736.715 394.511C736.746 394.33 736.803 394.156 736.886 393.992C736.975 393.825 737.09 393.674 737.227 393.543C737.501 393.276 737.851 393.099 738.229 393.034C738.6 392.973 738.98 392.994 739.342 393.094C739.697 393.194 740.035 393.345 740.345 393.543L740.576 393.693L740.796 393.862L741.007 394.042L741.107 394.132H741.157L741.508 394.501L741.869 394.92C741.989 395.059 742.09 395.209 742.2 395.358C742.31 395.508 742.411 395.658 742.511 395.807C742.927 396.445 743.296 397.111 743.614 397.802C743.784 398.141 743.935 398.5 744.085 398.85C744.235 399.199 744.376 399.568 744.496 399.947C744.767 400.685 744.987 401.453 745.188 402.251C745.389 403.049 745.549 403.857 745.689 404.685C745.83 405.513 745.9 406.37 745.96 407.228C746.068 409.011 745.957 410.799 745.629 412.555C745.295 414.4 744.614 416.166 743.624 417.761L743.433 418.061L743.012 418.639L742.952 418.709L742.842 418.839C742.503 419.227 742.107 419.563 741.669 419.836C740.811 420.339 739.852 420.649 738.861 420.744C738.365 420.797 737.864 420.797 737.367 420.744H737.006L736.635 420.674C736.39 420.621 736.149 420.551 735.913 420.465C735.43 420.294 734.984 420.034 734.6 419.697C734.203 419.344 733.92 418.882 733.788 418.37C733.742 418.106 733.742 417.836 733.788 417.572C733.822 417.304 733.903 417.044 734.028 416.804C734.157 416.567 734.323 416.351 734.519 416.165C734.717 415.988 734.94 415.84 735.181 415.727C735.659 415.504 736.178 415.385 736.705 415.378C737.486 415.373 738.261 415.511 738.991 415.786C739.236 415.887 739.474 416.004 739.703 416.136C740.163 416.412 740.585 416.747 740.957 417.133C741.698 417.874 742.3 418.743 742.731 419.697C742.852 419.926 742.942 420.175 743.042 420.405C743.143 420.634 743.223 420.883 743.293 421.133C743.452 421.62 743.582 422.117 743.684 422.619C743.881 423.605 743.991 424.606 744.015 425.611C744.064 427.651 743.724 429.682 743.012 431.596C742.862 432.045 742.621 432.524 742.411 432.983L742.04 433.641L741.949 433.801L741.839 433.96L741.618 434.269C741.041 435.096 740.279 435.779 739.392 436.264C739.282 436.324 739.162 436.364 739.052 436.424C738.939 436.478 738.821 436.521 738.701 436.554L738.34 436.663C738.219 436.663 738.089 436.663 737.969 436.723C737.482 436.794 736.986 436.777 736.505 436.673C736.032 436.568 735.581 436.383 735.171 436.125C734.748 435.882 734.415 435.512 734.219 435.067C734.146 434.83 734.146 434.577 734.219 434.339C734.277 434.102 734.398 433.885 734.57 433.711C734.912 433.374 735.356 433.157 735.833 433.092C736.297 433.02 736.771 433.041 737.227 433.152C737.453 433.209 737.674 433.282 737.888 433.372C738.099 433.457 738.304 433.557 738.5 433.671C739.298 434.126 739.983 434.753 740.505 435.506C741.015 436.243 741.398 437.058 741.639 437.92C742.052 439.581 742.127 441.307 741.859 442.997C741.799 443.406 741.719 443.805 741.639 444.204C741.639 444.404 741.548 444.593 741.498 444.793L741.348 445.371L741.268 445.66V445.94L741.107 446.488L740.766 447.575C739.843 450.039 739.171 452.589 738.761 455.186C738.694 455.729 738.657 456.275 738.651 456.822V457.62C738.651 457.859 738.651 458.099 738.711 458.338C738.794 459.204 739 460.053 739.322 460.862C739.818 462.006 740.533 463.043 741.428 463.914C741.749 464.223 741.999 464.462 742.17 464.622L742.431 464.861C742.503 464.935 742.546 465.031 742.553 465.133C742.559 465.236 742.529 465.337 742.467 465.419C742.406 465.501 742.316 465.558 742.216 465.58C742.115 465.602 742.01 465.588 741.919 465.54L741.598 465.35C741.281 465.163 740.973 464.96 740.676 464.742C740.485 464.592 740.265 464.433 740.034 464.233C739.804 464.034 739.804 464.034 739.683 463.914L739.312 463.545C738.742 462.948 738.256 462.277 737.868 461.55C737.405 460.608 737.1 459.597 736.966 458.558L736.916 458.129V456.832C736.916 456.533 736.916 456.223 736.916 455.924V455.455L736.976 454.987C737.155 453.67 737.464 452.373 737.899 451.116C738.109 450.458 738.36 449.8 738.62 449.122L739.423 447.127L739.844 446.129L740.054 445.601L740.104 445.471V445.341L740.195 445.072L740.375 444.543C740.435 444.364 740.505 444.184 740.556 444.005C740.656 443.636 740.766 443.266 740.856 442.897C741.248 441.348 741.319 439.737 741.067 438.159C740.903 437.345 740.605 436.563 740.185 435.845C739.746 435.112 739.142 434.491 738.42 434.03C738.234 433.91 738.04 433.803 737.838 433.711C737.641 433.617 737.437 433.54 737.227 433.481C736.803 433.363 736.36 433.329 735.923 433.382C735.483 433.428 735.071 433.617 734.75 433.92C734.595 434.071 734.485 434.261 734.429 434.469C734.366 434.677 734.366 434.899 734.429 435.107C734.605 435.533 734.924 435.886 735.332 436.105C735.922 436.46 736.603 436.639 737.293 436.62C737.983 436.6 738.653 436.383 739.222 435.995C739.968 435.477 740.582 434.794 741.017 434C741.239 433.593 741.436 433.173 741.608 432.743C741.759 432.304 741.919 431.895 742.04 431.407C742.542 429.581 742.789 427.694 742.772 425.801C742.794 423.9 742.482 422.009 741.849 420.215C741.533 419.334 741.061 418.517 740.455 417.801C740.165 417.451 739.827 417.143 739.453 416.884C739.26 416.755 739.059 416.638 738.851 416.535C738.221 416.244 737.54 416.081 736.846 416.056C736.385 416.037 735.925 416.122 735.502 416.305C735.295 416.396 735.102 416.517 734.931 416.664C734.766 416.813 734.627 416.988 734.519 417.183C734.418 417.376 734.35 417.585 734.319 417.801C734.283 418.016 734.283 418.235 734.319 418.45C734.434 418.882 734.674 419.271 735.011 419.567C735.357 419.868 735.759 420.099 736.194 420.245C736.413 420.321 736.638 420.381 736.866 420.425L737.207 420.484H737.568C738.028 420.534 738.491 420.534 738.951 420.484C739.856 420.363 740.723 420.043 741.488 419.547C741.864 419.312 742.202 419.023 742.491 418.689L742.601 418.549L742.651 418.48L743.032 417.921L743.203 417.632C743.57 416.751 743.833 415.83 743.985 414.889C744.248 414.053 744.449 413.2 744.586 412.335C744.711 411.485 744.791 410.63 744.827 409.772C744.827 409.343 744.827 408.924 744.827 408.505C744.827 408.086 744.827 407.667 744.827 407.248C744.723 405.635 744.485 404.034 744.115 402.46C743.935 401.702 743.724 400.954 743.483 400.246C743.248 399.548 742.977 398.862 742.671 398.191C742.382 397.55 742.047 396.93 741.669 396.336C741.578 396.186 741.488 396.047 741.388 395.907C741.288 395.767 741.197 395.628 741.097 395.508L740.796 395.129L740.455 394.75L740.375 394.67L740.205 394.521L740.034 394.381L739.854 394.251C739.62 394.088 739.363 393.961 739.092 393.872C738.863 393.784 738.616 393.756 738.374 393.791C738.131 393.826 737.902 393.923 737.708 394.072C737.545 394.23 737.431 394.432 737.379 394.653C737.328 394.874 737.341 395.105 737.417 395.319C737.567 395.783 737.832 396.202 738.189 396.535L738.32 396.665L738.47 396.795L738.54 396.855L738.681 396.964L738.971 397.174L739.272 397.343C739.465 397.452 739.666 397.545 739.874 397.623C739.974 397.623 740.074 397.683 740.175 397.712H740.325C740.375 397.712 740.425 397.712 740.475 397.712H740.776C740.876 397.712 740.973 397.712 741.067 397.712H741.628C741.977 397.64 742.314 397.522 742.631 397.363C743.128 397.101 743.581 396.765 743.975 396.366C744.221 396.117 744.449 395.85 744.657 395.568L744.827 395.289Z" fill="#C09068"/>
</svg>
